<?xml version="1.0" encoding="UTF-8"?>
<svg width="71px" height="71px" viewBox="0 0 71 71" version="1.1" xmlns="http://www.w3.org/2000/svg" xmlns:xlink="http://www.w3.org/1999/xlink">
    <!-- Generator: Sketch 50 (54983) - http://www.bohemiancoding.com/sketch -->
    <title>Group 24 Copy 3</title>
    <desc>Created with Sketch.</desc>
    <defs></defs>
    <g id="Page-1" stroke="none" stroke-width="1" fill="none" fill-rule="evenodd">
        <g id="Group-24-Copy-3" fill="#222568" fill-rule="nonzero">
            <path d="M1.18342338,49.7 L7.10009004,49.7 L7.10009004,54.8273833 C7.10009004,60.4825333 11.70089,65.0833333 17.35604,65.0833333 L18.9334234,65.0833333 L18.9334234,71 L21.30009,71 L21.30009,65.0833333 L23.6667567,65.0833333 L23.6667567,62.7166667 L17.35604,62.7166667 C13.0061067,62.7166667 9.46675671,59.1773167 9.46675671,54.8273833 L9.46675671,48.5166667 C9.46675671,47.8634667 8.93780671,47.3333333 8.28342338,47.3333333 L3.03179004,47.3333333 L9.35789004,33.62915 C9.43007338,33.4741333 9.46675671,33.3049167 9.46675671,33.1333333 L9.46675671,27.2166667 C9.46675671,18.0813333 16.89809,10.65 26.0334234,10.65 L26.0334234,8.28333333 C15.5940567,8.28333333 7.10009004,16.7773 7.10009004,27.2166667 L7.10009004,32.873 L0.108956711,48.02085 C-0.0602599556,48.3876833 -0.0306766223,48.8136833 0.185873378,49.1544833 C0.404790044,49.4941 0.779906711,49.7 1.18342338,49.7 Z" id="Shape"></path>
            <path d="M45.0509378,50.8833333 L42.6842712,56.8 C42.6026212,57.0070833 42.5789545,57.2331 42.6191878,57.4508333 L44.9858545,70.4675 L47.3134712,70.04505 L45.0083378,57.3632667 L47.2495712,51.7637333 L45.0509378,50.8833333 Z" id="Shape"></path>
            <polygon id="Shape" points="61.5333333 14.2 61.5333333 17.75 57.9833333 17.75 57.9833333 20.1166667 61.5333333 20.1166667 61.5333333 23.6666667 63.9 23.6666667 63.9 20.1166667 67.45 20.1166667 67.45 17.75 63.9 17.75 63.9 14.2"></polygon>
            <rect id="Rectangle-path" x="54.4333333" y="1.18333333" width="7.1" height="2.36666667"></rect>
            <rect id="Rectangle-path" x="40.2333333" y="3.55" width="7.1" height="2.36666667"></rect>
            <rect id="Rectangle-path" x="42.6" y="0" width="2.36666667" height="2.36666667"></rect>
            <rect id="Rectangle-path" x="42.6" y="7.1" width="2.36666667" height="2.36666667"></rect>
            <polygon id="Shape" points="40.7232333 33.6232333 43.4366167 30.90985 46.15 33.6232333 47.8232333 31.95 45.10985 29.2366167 47.8232333 26.5232333 46.15 24.85 43.4366167 27.5633833 40.7232333 24.85 39.05 26.5232333 41.7633833 29.2366167 39.05 31.95"></polygon>
            <path d="M27.2166667,18.9333333 C27.2166667,17.6281167 28.2781167,16.5666667 29.5833333,16.5666667 C30.88855,16.5666667 31.95,17.6281167 31.95,18.9333333 C31.95,20.23855 30.88855,21.3 29.5833333,21.3 C28.92895,21.3 28.4,21.8301333 28.4,22.4833333 L28.4,24.85 L30.7666667,24.85 L30.7666667,23.5175667 C32.8067333,22.9909833 34.3166667,21.1355167 34.3166667,18.9333333 C34.3166667,16.3229 32.1937667,14.2 29.5833333,14.2 C26.9729,14.2 24.85,16.3229 24.85,18.9333333 L27.2166667,18.9333333 Z" id="Shape"></path>
            <rect id="Rectangle-path" x="28.4" y="27.2166667" width="2.36666667" height="2.36666667"></rect>
            <path d="M52.0666667,35.5 L52.0666667,54.4333333 C52.0666667,55.0865333 52.5956167,55.6166667 53.25,55.6166667 L69.8166667,55.6166667 C70.47105,55.6166667 71,55.0865333 71,54.4333333 L71,35.5 C71,34.8468 70.47105,34.3166667 69.8166667,34.3166667 L53.25,34.3166667 C52.5956167,34.3166667 52.0666667,34.8468 52.0666667,35.5 Z M54.4333333,36.6833333 L68.6333333,36.6833333 L68.6333333,53.25 L54.4333333,53.25 L54.4333333,36.6833333 Z" id="Shape"></path>
            <rect id="Rectangle-path" x="56.8" y="39.05" width="9.46666667" height="2.36666667"></rect>
            <rect id="Rectangle-path" x="56.8" y="43.7833333" width="9.46666667" height="2.36666667"></rect>
            <rect id="Rectangle-path" x="56.8" y="48.5166667" width="9.46666667" height="2.36666667"></rect>
            <path d="M27.2158773,37.4217699 C23.756994,35.2858533 20.5040107,34.8385533 18.7952773,36.5449199 C17.0889107,38.2524699 17.5350273,41.5042699 19.6721273,44.9643366 C17.569344,48.3995533 17.1386107,51.6217699 18.8355107,53.3198533 C19.546694,54.0310366 20.5241273,54.3694699 21.6719607,54.3694699 C23.274194,54.3694699 25.2101273,53.6949699 27.2170607,52.4619366 C29.199144,53.6665699 31.1102273,54.3280533 32.6935273,54.3280533 C33.842544,54.3280533 34.8199773,53.9884366 35.5299773,53.2784366 C37.2197773,51.5874533 36.799694,48.3841699 34.719394,44.9643366 C36.835194,41.5196533 37.271844,38.2856033 35.571394,36.5839699 C33.8756773,34.8882533 30.6522773,35.3189866 27.2158773,37.4217699 Z M20.469694,38.2181533 C20.7122773,37.9755699 21.1181607,37.8548699 21.6364607,37.8548699 C22.2293107,37.8548699 22.968894,38.0122533 23.7806607,38.3234699 C24.204294,38.4867699 24.6397607,38.6974033 25.0787773,38.9281533 C24.3877107,39.4819533 23.6978273,40.0913699 23.022144,40.7670533 C22.3464607,41.4427366 21.737044,42.1314366 21.1844273,42.8213199 C20.0247607,40.6120366 19.844894,38.8429533 20.469694,38.2181533 Z M27.2028607,40.2889866 C28.041844,40.9078699 28.876094,41.6036699 29.6736607,42.4024199 C30.5363107,43.2650699 31.2593273,44.1265366 31.865194,44.9607866 C31.2676107,45.7772866 30.5576107,46.6198199 29.713894,47.4635366 C28.872544,48.3037033 28.0335607,49.0125199 27.2194273,49.6089199 C26.348494,48.9746533 25.4811107,48.2516366 24.6539607,47.4233033 C23.824444,46.5937866 23.1239107,45.7654533 22.5310607,44.9607866 C23.1310107,44.1383699 23.8445607,43.2911033 24.694194,42.4426533 C25.5402773,41.5965699 26.3828107,40.8877533 27.2028607,40.2889866 Z M20.5099273,51.6466199 C19.8922273,51.0289199 20.0638107,49.2858699 21.1915273,47.1038033 C21.7311273,47.7735699 22.3251607,48.4409699 22.9807273,49.0953533 C23.668244,49.7828699 24.371144,50.3934699 25.074044,50.9543699 C22.8825107,52.0927366 21.1311773,52.2666866 20.5099273,51.6466199 Z M33.8579273,51.6063866 C33.338444,52.1258699 32.067544,52.0844533 30.5469607,51.4998866 C30.157644,51.3507866 29.7576773,51.1519866 29.355344,50.9449033 C30.0381273,50.3970199 30.718544,49.8041699 31.3871273,49.1367699 C32.053344,48.4717366 32.653294,47.7936866 33.199994,47.1132699 C34.3064107,49.2704866 34.470894,50.9922366 33.8579273,51.6063866 Z M33.8981607,38.2583866 C34.517044,38.8784533 34.3442773,40.6274199 33.2094607,42.8154033 C32.649744,42.1136866 32.0332273,41.4155199 31.346894,40.7291866 C30.6913273,40.0736199 30.0239273,39.4807699 29.355344,38.9411699 C30.711444,38.2394533 31.900694,37.9033866 32.752694,37.9033866 C33.2698107,37.9022033 33.6638607,38.0240866 33.8981607,38.2583866 Z" id="Shape"></path>
            <path d="M46.15,15.3833333 C46.15,17.3405667 47.7427667,18.9333333 49.7,18.9333333 C51.6572333,18.9333333 53.25,17.3405667 53.25,15.3833333 C53.25,13.4261 51.6572333,11.8333333 49.7,11.8333333 C47.7427667,11.8333333 46.15,13.4261 46.15,15.3833333 Z M49.7,14.2 C50.3532,14.2 50.8833333,14.7313167 50.8833333,15.3833333 C50.8833333,16.03535 50.3532,16.5666667 49.7,16.5666667 C49.0468,16.5666667 48.5166667,16.03535 48.5166667,15.3833333 C48.5166667,14.7313167 49.0468,14.2 49.7,14.2 Z" id="Shape"></path>
        </g>
    </g>
</svg>