<?xml version="1.0" encoding="UTF-8"?>
<svg width="69px" height="58px" viewBox="0 0 69 58" version="1.1" xmlns="http://www.w3.org/2000/svg" xmlns:xlink="http://www.w3.org/1999/xlink">
    <!-- Generator: Sketch 50 (54983) - http://www.bohemiancoding.com/sketch -->
    <title>sprite-reason3</title>
    <desc>Created with Sketch.</desc>
    <defs></defs>
    <g id="sprite-reason3" stroke="none" stroke-width="1" fill="none" fill-rule="evenodd">
        <path d="M56.1928333,35.9653421 C56.1928333,32.8745526 53.6666667,30.3591842 50.5609,30.3591842 C47.4551333,30.3591842 44.9289667,32.8745526 44.9289667,35.9653421 C44.9289667,39.0561316 47.4551333,41.5715 50.5609,41.5715 C53.6666667,41.5715 56.1928333,39.0561316 56.1928333,35.9653421 Z M50.5609,39.3285789 C48.6971333,39.3285789 47.1814333,37.8190526 47.1814333,35.9653421 C47.1814333,34.1116316 48.6971333,32.6021053 50.5609,32.6021053 C52.4239,32.6021053 53.9396,34.1116316 53.9396,35.9653421 C53.9396,37.8190526 52.4239,39.3285789 50.5609,39.3285789 Z" id="Shape" fill="#222568" fill-rule="nonzero"></path>
        <path d="M67.8737667,0.496815789 L1.12623333,0.496815789 C0.504466667,0.496815789 0,0.998973684 0,1.61789474 L0,43.1451316 C0,43.7640526 0.504466667,44.2662105 1.12623333,44.2662105 L34.5,44.2662105 L34.5,42.0240526 L11.7277,42.0240526 C11.0430667,37.1406053 7.15913333,33.2736842 2.25246667,32.5914211 L2.25246667,12.1716053 C7.15836667,11.4893421 11.0423,7.62242105 11.7277,2.73897368 L57.2715333,2.73897368 C57.9569333,7.62242105 61.8401,11.4901053 66.7467667,12.1716053 L66.7467667,43.1451316 L69,43.1451316 L69,1.61789474 C69,0.998973684 68.4955333,0.496815789 67.8737667,0.496815789 Z M9.45146667,42.0232895 L2.25246667,42.0232895 L2.25246667,34.8564737 C5.9156,35.4998158 8.80593333,38.3769211 9.45146667,42.0232895 Z M2.25246667,9.90578947 L2.25246667,2.73821053 L9.45146667,2.73821053 C8.80593333,6.38457895 5.91483333,9.26244737 2.25246667,9.90578947 Z M66.7475333,9.90578947 C63.0851667,9.26168421 60.1940667,6.38457895 59.5485333,2.73821053 L66.7475333,2.73821053 L66.7475333,9.90578947 Z" id="Shape" fill="#222568" fill-rule="nonzero"></path>
        <rect id="Rectangle-path" fill="#222568" fill-rule="nonzero" x="15.3103333" y="10.9612368" width="34.2079" height="2.24215789"></rect>
        <rect id="Rectangle-path" fill="#222568" fill-rule="nonzero" x="15.3103333" y="20.5121579" width="19.1896667" height="2.24215789"></rect>
        <rect id="Rectangle-path" fill="#222568" fill-rule="nonzero" x="15.3103333" y="30.0646053" width="19.1896667" height="2.24215789"></rect>
        <path d="M61.2858,41.5539474 C62.0233333,41.2044211 62.5730333,40.6381579 62.8053333,39.9253684 C63.0859333,39.0675789 62.8935,38.1037105 62.2778667,37.2848421 L61.2873333,35.9653421 L62.2778667,34.6458421 C62.8935,33.8269737 63.0867,32.8631053 62.8053333,32.0045526 C62.5255,31.1467632 61.801,30.479 60.8196667,30.1767895 L59.2380333,29.6891316 L59.2610333,28.0422368 C59.2725333,27.1821579 58.9842667,26.4113684 58.4483667,25.8710526 C57.7139,25.1292632 56.5639,24.8987895 55.4415,25.2818947 L53.8752,25.8115263 L52.9199333,24.4637895 C52.3273,23.6281316 51.4671,23.1481053 50.5601333,23.1481053 C49.6524,23.1481053 48.7929667,23.6281316 48.1995667,24.4637895 L47.2443,25.8115263 L45.6787667,25.2818947 C44.5533,24.8987895 43.4071333,25.1300263 42.6719,25.8710526 C42.1367667,26.4113684 41.8477333,27.1821579 41.8592333,28.0422368 L41.8822333,29.6891316 L40.3021333,30.1767895 C39.3200333,30.479 38.5955333,31.1467632 38.3149333,32.0045526 C38.0343333,32.8631053 38.2267667,33.8269737 38.8424,34.6458421 L39.8337,35.9653421 L38.8424,37.2848421 C38.2267667,38.1037105 38.0343333,39.0675789 38.3149333,39.9253684 C38.548,40.6381579 39.0969333,41.2044211 39.8344667,41.5539474 L33.3147333,50.2325789 C32.7075333,51.0636579 32.9053333,51.7108158 33.0770667,52.0214211 C33.2488,52.3335526 33.6888667,52.8433421 34.7208,52.78 L38.456,52.5495263 L39.3898,56.1554474 C39.6458667,57.1513684 40.2722333,57.4116053 40.6226,57.478 C40.6969667,57.4917368 40.7859,57.5024211 40.8863333,57.5024211 C41.2574,57.5024211 41.7779667,57.3574211 42.2487,56.7133158 L48.7439,48.0675 C49.2690667,48.5261579 49.9015667,48.7818158 50.5601333,48.7818158 C51.2187,48.7818158 51.8512,48.5261579 52.3756,48.0675 L58.8616,56.7003421 C59.3407667,57.3558947 59.8636333,57.5031842 60.2354667,57.5031842 C60.3351333,57.5031842 60.4240667,57.4917368 60.4976667,57.4787632 C60.8480333,57.4116053 61.4744,57.1513684 61.7304667,56.1577368 L62.6635,52.5502895 L66.3979333,52.7807632 C67.4337,52.8456316 67.8707,52.3327895 68.0432,52.0221842 C68.2157,51.7115789 68.4127333,51.0644211 67.7963333,50.2203684 L61.2858,41.5539474 Z M41.2397667,54.3116579 L40.4071667,51.0926579 C40.2722333,50.5729474 39.7907667,50.2180789 39.2464333,50.2531842 L35.9620333,50.4561842 L41.8799333,42.5788684 L41.8615333,43.8899737 C41.8500333,44.7500526 42.1390667,45.5208421 42.6749667,46.0611579 C43.4094333,46.8014211 44.5563667,47.0311316 45.6810667,46.6503158 L47.2473667,46.1206842 L47.3194333,46.2229474 L41.2397667,54.3116579 Z M52.5205,44.1425789 L51.0799333,46.1725789 C50.7495,46.6381053 50.3723,46.6381053 50.0411,46.1710526 L48.6013,44.1425789 C48.3858667,43.8388421 48.0401,43.6678947 47.6813,43.6678947 C47.5601667,43.6678947 47.4382667,43.6862105 47.3194333,43.7274211 L44.9542667,44.5279737 C44.8231667,44.5722368 44.7020333,44.5936053 44.5931667,44.5936053 C44.3854,44.5936053 44.3041333,44.5119474 44.2773,44.4852368 C44.1699667,44.3768684 44.1101667,44.1700526 44.114,43.9189737 L44.1485,41.4341316 C44.1554,40.9365526 43.8326333,40.4954474 43.3557667,40.3473947 L40.9699,39.6117105 C40.6969667,39.5277632 40.5106667,39.3881053 40.4593,39.2324211 C40.4087,39.0759737 40.4777,38.8554211 40.6486667,38.628 L42.1444333,36.6369211 C42.4434333,36.2393158 42.4434333,35.6928947 42.1444333,35.2937632 L40.6486667,33.3026842 C40.4777,33.0745 40.4087,32.8539474 40.4593,32.6982632 C40.5106667,32.5418158 40.6969667,32.4029211 40.9706667,32.3189737 L43.3557667,31.5840526 C43.8326333,31.4367632 44.1554,30.9948947 44.1485,30.4980789 L44.114,28.0117105 C44.1109333,27.7606316 44.1699667,27.5545789 44.2773,27.4454474 C44.3033667,27.4195 44.3854,27.3370789 44.5931667,27.3370789 C44.7020333,27.3370789 44.8231667,27.3584474 44.9550333,27.4042368 L47.3186667,28.2040263 C47.7924667,28.3665789 48.3145667,28.1956316 48.6020667,27.7881053 L50.0418667,25.7573421 C50.3715333,25.2933421 50.7502667,25.2918158 51.0807,25.7573421 L52.5205,27.7896316 C52.808,28.1956316 53.3301,28.3635263 53.8031333,28.2040263 L56.1675333,27.4042368 C56.2986333,27.3584474 56.4197667,27.3370789 56.5286333,27.3370789 C56.7364,27.3370789 56.8176667,27.4187368 56.8445,27.4469737 C56.9518333,27.5553421 57.0116333,27.7606316 57.0078,28.0117105 L56.9733,30.4980789 C56.9664,30.9941316 57.2899333,31.436 57.7675667,31.5840526 L60.1519,32.3189737 C60.4256,32.4029211 60.6111333,32.5418158 60.6625,32.6982632 C60.7138667,32.8539474 60.6448667,33.0745 60.4723667,33.3026842 L58.9773667,35.2937632 C58.6783667,35.6921316 58.6783667,36.2393158 58.9773667,36.6369211 L60.4723667,38.628 C60.6441,38.8554211 60.7131,39.0759737 60.6617333,39.2324211 C60.6111333,39.3881053 60.4248333,39.5277632 60.1511333,39.6117105 L57.7660333,40.3473947 C57.2884,40.4931579 56.9664,40.9357895 56.9725333,41.4341316 L57.0070333,43.9189737 C57.0108667,44.1700526 56.9510667,44.3776316 56.8437333,44.4852368 C56.8169,44.5111842 56.7356333,44.5936053 56.5271,44.5936053 C56.4182333,44.5936053 56.2971,44.5722368 56.1652333,44.5279737 L53.8016,43.7274211 C53.3301,43.5656316 52.8087667,43.7365789 52.5205,44.1425789 Z M61.8761333,50.2539474 C61.3364,50.2188421 60.8503333,50.5737105 60.7154,51.0934211 L59.8812667,54.3124211 L53.8031333,46.2229474 L53.8752,46.1206842 L55.4415,46.6503158 C56.5669667,47.0311316 57.7139,46.8021842 58.4483667,46.0596316 C58.9835,45.5193158 59.2725333,44.7485263 59.2610333,43.8884474 L59.2426333,42.5803947 L65.1582333,50.4577105 L61.8761333,50.2539474 Z" id="Shape" fill="#222568" fill-rule="nonzero"></path>
    </g>
</svg>