<?xml version="1.0" encoding="UTF-8"?>
<svg width="71px" height="72px" viewBox="0 0 71 72" version="1.1" xmlns="http://www.w3.org/2000/svg" xmlns:xlink="http://www.w3.org/1999/xlink">
    <!-- Generator: Sketch 50 (54983) - http://www.bohemiancoding.com/sketch -->
    <title>Group 15</title>
    <desc>Created with Sketch.</desc>
    <defs></defs>
    <g id="Page-1" stroke="none" stroke-width="1" fill="none" fill-rule="evenodd">
        <g id="Group-15" fill="#222568" fill-rule="nonzero">
            <path d="M32.4838033,9.29891803 L37.7704918,12.182459 L37.7704918,18.885541 C37.7704918,19.386 38.0868197,19.8321639 38.5589508,19.9985902 C40.5737705,20.7079672 42.6688525,21.1269836 44.7863607,21.2438361 C45.2030164,21.2674426 45.6173115,21.2780656 46.0316066,21.2780656 C48.5657705,21.2780656 51.0727869,20.8496066 53.5042623,19.9985902 C53.9775738,19.8333443 54.295082,19.386 54.295082,18.8843607 L54.295082,12.1812787 L57.8360656,10.2502623 L57.8360656,15.5617377 C56.4657049,16.0503934 55.4754098,17.3487541 55.4754098,18.885541 L55.4754098,22.4265246 C55.4754098,23.0780656 56.0030164,23.6068525 56.6557377,23.6068525 L61.3770492,23.6068525 C62.0297705,23.6068525 62.557377,23.0780656 62.557377,22.4265246 L62.557377,18.885541 C62.557377,17.3487541 61.567082,16.0503934 60.1967213,15.5617377 L60.1967213,8.26259016 C60.1967213,7.83059016 59.9606557,7.43281967 59.5817705,7.2262623 L46.5981639,0.144295082 C46.2476066,-0.0480983607 45.8191475,-0.0480983607 45.4685902,0.144295082 L32.4849836,7.2262623 C32.104918,7.43281967 31.8688525,7.83059016 31.8688525,8.26259016 C31.8688525,8.69459016 32.104918,9.09236066 32.4838033,9.29891803 Z M51.9344262,13.4701967 L51.9344262,18.0298033 C49.6457705,18.7297377 47.2886557,19.018918 44.9185574,18.8867213 C43.2967869,18.7970164 41.691541,18.5101967 40.1311475,18.0309836 L40.1311475,13.4690164 L45.4674098,16.3797049 C45.8179672,16.5720984 46.2464262,16.5720984 46.5969836,16.3797049 L51.9344262,13.4701967 Z M60.1967213,21.2461967 L57.8360656,21.2461967 L57.8360656,18.885541 C57.8360656,18.2351803 58.3648525,17.7052131 59.0163934,17.7052131 C59.6679344,17.7052131 60.1967213,18.2351803 60.1967213,18.885541 L60.1967213,21.2461967 Z M46.0327869,2.52501639 L56.5518689,8.26259016 L46.0327869,14.0001639 L35.5137049,8.26259016 L46.0327869,2.52501639 Z" id="Shape"></path>
            <path d="M0.949650025,69.6157377 L6.85128937,70.7960656 C6.92919101,70.8114098 7.00709265,70.8196721 7.08381396,70.8196721 C7.56656806,70.8196721 8.01273199,70.5210492 8.18860084,70.0536393 L11.7295845,60.6110164 C11.7791582,60.4788197 11.8039451,60.3383607 11.8039451,60.1967213 L11.8039451,57.2187541 L15.6695189,58.7649836 L19.0098467,65.4456393 C19.2588959,65.9401967 19.8183713,66.1975082 20.3518795,66.0629508 L25.073191,64.882623 C25.4119451,64.7976393 25.6952238,64.5674754 25.8474861,64.2546885 C26.0009287,63.9407213 26.0080107,63.576 25.8663713,63.2573115 L21.1450599,52.6343607 C21.0199451,52.3534426 20.7897812,52.1327213 20.5041418,52.0182295 L15.8902402,50.173377 L17.9392894,46.7563279 L19.2317484,48.0476066 C19.3604041,48.1774426 19.5185681,48.2742295 19.6932566,48.3332459 L26.7752238,50.6939016 C27.2792238,50.8615082 27.8339779,50.6702951 28.1302402,50.2288525 L30.1403385,47.2131148 L43.6727976,47.2131148 L69.6400107,47.2131148 C70.0908959,47.2131148 70.50165,46.9558033 70.6999451,46.5509508 C70.8982402,46.1460984 70.8474861,45.6633443 70.5712894,45.3080656 L62.3089943,34.6851148 C62.002109,34.2897049 61.4827648,34.1303607 61.004732,34.2897049 L58.196732,35.2257049 L48.0907648,23.9972459 C47.8629615,23.7434754 47.5548959,23.6112787 47.1913549,23.6065574 C46.8478795,23.6136393 46.5268304,23.7682623 46.306109,24.0314754 L36.5294533,35.7639344 L31.5897812,29.9260328 C31.1400763,29.3960656 30.2371254,29.3960656 29.7874205,29.9260328 L20.8783058,40.4545574 L17.955814,37.5332459 C19.2352894,36.4497049 20.0662402,34.8527213 20.0662402,33.0491803 C20.0662402,29.7950164 17.4187648,27.147541 14.1646008,27.147541 C10.9104369,27.147541 8.2629615,29.7950164 8.2629615,33.0491803 C8.2629615,34.7158033 8.96289593,36.216 10.0783058,37.2900984 L3.68683035,49.0083934 C3.5912238,49.1819016 3.54165003,49.3766557 3.54165003,49.5737705 L3.54165003,58.8027541 L0.0750270745,68.0447213 C-0.046546696,68.3681311 -0.019399155,68.7304918 0.14938773,69.0326557 C0.318174615,69.3348197 0.610895927,69.548459 0.949650025,69.6157377 Z M47.2480107,26.5892459 L56.9597484,37.3798033 C57.2737156,37.7291803 57.7659123,37.8601967 58.2108959,37.7102951 L60.9586992,36.7943607 L67.2262402,44.852459 L44.2204697,44.852459 L38.0780435,37.5934426 L47.2480107,26.5892459 Z M30.689191,32.5156721 L35.6347648,38.3618361 C35.6347648,38.3618361 35.6359451,38.3618361 35.6359451,38.3630164 L41.1280107,44.852459 L29.7508304,44.852459 L24.5066336,42.6051148 L22.7786336,41.8638689 L30.689191,32.5156721 Z M14.1646008,29.5081967 C16.1168631,29.5081967 17.7055845,31.096918 17.7055845,33.0491803 C17.7055845,34.4820984 16.8463058,35.7131803 15.6187648,36.2691148 C15.6175845,36.2691148 15.6164041,36.2691148 15.6152238,36.2702951 C15.3425681,36.3930492 15.06165,36.4768525 14.7783713,36.5276066 C14.7406008,36.5346885 14.7004697,36.5335082 14.6615189,36.5394098 C14.4325353,36.572459 14.2035517,36.5819016 13.9757484,36.5700984 C13.8966664,36.565377 13.8187648,36.5559344 13.7408631,36.5464918 C13.5402074,36.5217049 13.3419123,36.4815738 13.1483385,36.4225574 C13.0822402,36.4024918 13.0149615,36.3847869 12.9500435,36.3611803 C12.7045353,36.2702951 12.4637484,36.1593443 12.2394861,36.0129836 C11.2692566,35.3815082 10.6236172,34.2908852 10.6236172,33.0491803 C10.6236172,31.096918 12.2123385,29.5081967 14.1646008,29.5081967 Z M5.82794511,59.4306885 C5.87751888,59.2984918 5.90230576,59.1580328 5.90230576,59.0163934 L5.90230576,49.8747541 L12.0718795,38.5648525 C12.32565,38.6616393 12.5876828,38.7312787 12.8532566,38.7926557 C12.9264369,38.8091803 12.9972566,38.8268852 13.0716172,38.8410492 C13.3938467,38.9024262 13.7207976,38.9331148 14.0489287,38.9401967 C14.0878795,38.9401967 14.1244697,38.9508197 14.1646008,38.9508197 C14.2554861,38.9508197 14.3392894,38.9283934 14.4289943,38.9236721 C14.6626992,38.9130492 14.8940435,38.8918033 15.1253877,38.8528525 C15.2800107,38.8268852 15.4299123,38.7961967 15.5809943,38.7596066 C15.6541746,38.7407213 15.7285353,38.736 15.8017156,38.7147541 L19.9068959,42.8199344 C19.9800763,42.9462295 20.0697812,43.0619016 20.1854533,43.1539672 L20.5100435,43.4136393 C20.5926664,43.480918 20.684732,43.5352131 20.7826992,43.5765246 L27.740732,46.5592131 L26.667814,48.1691803 L20.7047976,46.1815082 L18.5412566,44.0179672 C18.2839451,43.7606557 17.9180435,43.635541 17.5627648,43.6803934 C17.2015845,43.7252459 16.8817156,43.9329836 16.6952238,44.2445902 L13.1542402,50.1462295 C12.977191,50.4424918 12.9370599,50.8024918 13.0480107,51.130623 C13.1577812,51.4587541 13.4068304,51.7207869 13.7278795,51.8494426 L19.1833549,54.0318689 L23.139814,62.9327213 L20.7012566,63.5429508 L17.5828304,57.3072787 C17.4541746,57.0487869 17.2334533,56.8469508 16.9655189,56.739541 L11.0638795,54.3788852 C10.7026992,54.2337049 10.2895845,54.2785574 9.96381396,54.4980984 C9.63804347,54.7176393 9.44328937,55.083541 9.44328937,55.4754098 L9.44328937,59.983082 L6.32958445,68.2855082 L2.77325658,67.5737705 L5.82794511,59.4306885 Z" id="Shape"></path>
            <path d="M25.275541,71.6545983 L42.7361311,54.1940081 L42.1613115,57.6429262 L44.4900984,58.031254 L45.6704262,50.9492868 C45.7329836,50.5727622 45.6102295,50.190336 45.3411148,49.9200409 C45.0708197,49.6497458 44.6860328,49.5258114 44.3130492,49.5907294 L37.231082,50.7710573 L37.6182295,53.0998442 L41.0683279,52.5250245 L23.6065574,69.986795 L25.275541,71.6545983 Z" id="Shape"></path>
            <path d="M24.9981639,20.4149508 L22.6622951,20.0655738 C22.5407213,20.872918 22.4616393,21.7050492 22.4262295,22.5383607 L24.7845246,22.6410492 C24.8163934,21.8903607 24.8895738,21.1408525 24.9981639,20.4149508 Z" id="Shape"></path>
            <path d="M30.0794754,8.69547541 L28.357377,7.08196721 C27.9371803,7.5304918 27.5335082,7.99554098 27.147541,8.47711475 L28.9900328,9.95370492 C29.3370492,9.51934426 29.7005902,9.10032787 30.0794754,8.69547541 Z" id="Shape"></path>
            <path d="M28.004459,11.8988852 L26.0167869,10.6229508 C25.5694426,11.3205246 25.1551475,12.0476066 24.7868852,12.7817705 L26.8961311,13.8393443 C27.2289836,13.179541 27.6007869,12.5256393 28.004459,11.8988852 Z" id="Shape"></path>
            <path d="M25.412459,30.4477377 C25.1409836,29.7607869 24.9001967,29.0478689 24.699541,28.3278689 L22.4262295,28.9640656 C22.6493115,29.7619672 22.9160656,30.5539672 23.2182295,31.316459 L25.412459,30.4477377 Z" id="Shape"></path>
            <path d="M25.3853115,16.1752131 L23.176918,15.3442623 C22.885377,16.1185574 22.6327869,16.916459 22.4262295,17.7131803 L24.7113443,18.3045246 C24.8966557,17.5880656 25.1232787,16.8716066 25.3853115,16.1752131 Z" id="Shape"></path>
            <path d="M22.4262295,24.9308852 C22.4769836,25.7582951 22.5702295,26.5880656 22.7047869,27.3965902 L25.0335738,27.0094426 C24.912,26.2811803 24.8281967,25.5340328 24.7821639,24.7868852 L22.4262295,24.9308852 Z" id="Shape"></path>
            <path d="M67.7779672,16.9896393 L70.1043934,16.5847869 C69.9627541,15.771541 69.7762623,14.9571148 69.5496393,14.1639344 L67.2786885,14.8119344 C67.4828852,15.5260328 67.6516721,16.2590164 67.7779672,16.9896393 Z" id="Shape"></path>
            <path d="M68.4590164,20.221377 C68.4908852,20.6982295 68.5074098,21.1809836 68.5074098,21.6660984 C68.5074098,21.9316721 68.5026885,22.1960656 68.4932459,22.4592787 L70.851541,22.546623 C70.8633443,22.2539016 70.8680656,21.9611803 70.8680656,21.6660984 C70.8680656,21.1278689 70.8491803,20.5943607 70.8149508,20.0655738 L68.4590164,20.221377 Z" id="Shape"></path>
            <path d="M65.0856393,9.20537705 L67.0402623,7.88222951 C66.5775738,7.19881967 66.0747541,6.53193443 65.5424262,5.90163934 L63.7377049,7.42190164 C64.2157377,7.98963934 64.6689836,8.5892459 65.0856393,9.20537705 Z" id="Shape"></path>
            <path d="M67.0438033,13.7567213 L69.2333115,12.8750164 C68.9240656,12.1089836 68.5711475,11.3512131 68.1828197,10.6229508 L66.0983607,11.7336393 C66.448918,12.387541 66.7676066,13.0685902 67.0438033,13.7567213 Z" id="Shape"></path>
            <path d="M69.1967213,29.1434754 L66.9812459,28.3278689 C66.7239344,29.026623 66.4264918,29.7171148 66.0983607,30.3792787 L68.2146885,31.4274098 C68.5794098,30.6885246 68.9087213,29.9213115 69.1967213,29.1434754 Z" id="Shape"></path>
            <path d="M63.5240656,3.98596721 C62.9291803,3.4135082 62.2977049,2.86583607 61.6473443,2.36065574 L60.1967213,4.22203279 C60.7809836,4.67763934 61.3499016,5.17101639 61.8869508,5.688 L63.5240656,3.98596721 Z" id="Shape"></path>
            <path d="M63.7377049,34.7394098 L65.5979016,36.1900328 C66.0653115,35.5916066 66.5091148,34.9601311 66.9198689,34.3109508 L64.9262951,33.0491803 C64.5556721,33.6334426 64.1567213,34.2011803 63.7377049,34.7394098 Z" id="Shape"></path>
            <path d="M70.0465574,25.1197377 L67.7095082,24.7868852 C67.604459,25.5257705 67.4592787,26.2646557 67.2786885,26.9799344 L69.5673443,27.5582951 C69.7668197,26.7615738 69.9285246,25.9412459 70.0465574,25.1197377 Z" id="Shape"></path>
        </g>
    </g>
</svg>