<?xml version="1.0" encoding="UTF-8"?>
<svg width="30px" height="42px" viewBox="0 0 30 42" version="1.1" xmlns="http://www.w3.org/2000/svg" xmlns:xlink="http://www.w3.org/1999/xlink">
    <!-- Generator: Sketch 50 (54983) - http://www.bohemiancoding.com/sketch -->
    <title>Shape</title>
    <desc>Created with Sketch.</desc>
    <defs></defs>
    <g id="Page-1" stroke="none" stroke-width="1" fill="none" fill-rule="evenodd">
        <g id="Cambridge_LP" transform="translate(-298.000000, -511.000000)" fill="#E2AF5F" fill-rule="nonzero">
            <g id="noun_licensing_957491" transform="translate(298.000000, 511.000000)">
                <g id="Group" transform="translate(0.000000, 0.308623)">
                    <path d="M0,0.175243548 L0,40.8204194 L30,40.8204194 L30,0.175243548 L0,0.175243548 Z M4.35483871,4.04621129 L25.6451613,4.04621129 C26.1796452,4.04621129 26.6129032,4.47946935 26.6129032,5.01395323 C26.6129032,5.5484371 26.1796452,5.98169516 25.6451613,5.98169516 L4.35483871,5.98169516 C3.82040323,5.98169516 3.38709677,5.5484371 3.38709677,5.01395323 C3.38709677,4.47946935 3.82040323,4.04621129 4.35483871,4.04621129 Z M4.35483871,8.40105 L25.6451613,8.40105 C26.1796452,8.40105 26.6129032,8.83430806 26.6129032,9.36879194 C26.6129032,9.90327581 26.1796452,10.3365339 25.6451613,10.3365339 L4.35483871,10.3365339 C3.82040323,10.3365339 3.38709677,9.90327581 3.38709677,9.36879194 C3.38709677,8.83430806 3.82040323,8.40105 4.35483871,8.40105 Z M4.35483871,12.7558887 L25.6451613,12.7558887 C26.1796452,12.7558887 26.6129032,13.1891468 26.6129032,13.7236306 C26.6129032,14.2581145 26.1796452,14.6913726 25.6451613,14.6913726 L4.35483871,14.6913726 C3.82040323,14.6913726 3.38709677,14.2581145 3.38709677,13.7236306 C3.38709677,13.1891468 3.82040323,12.7558887 4.35483871,12.7558887 Z M15,18.078479 C17.9395645,18.078479 20.3225806,20.4615 20.3225806,23.4010645 C20.3225806,26.340629 17.9395645,28.7236452 15,28.7236452 C12.0604355,28.7236452 9.67741935,26.340629 9.67741935,23.4010645 C9.67741935,20.4615 12.0604355,18.078479 15,18.078479 Z M11.6129032,28.6934032 C12.5929839,29.3248065 13.752629,29.6913871 15,29.6913871 C16.247371,29.6913871 17.4070161,29.3248065 18.3870968,28.6934032 L18.3870968,35.4978387 L15,32.5946129 L11.6129032,35.4978387 L11.6129032,28.6934032 Z" id="Shape"></path>
                </g>
            </g>
        </g>
    </g>
</svg>