<?xml version="1.0" encoding="UTF-8"?>
<svg width="70px" height="70px" viewBox="0 0 70 70" version="1.1" xmlns="http://www.w3.org/2000/svg" xmlns:xlink="http://www.w3.org/1999/xlink">
    <!-- Generator: Sketch 50 (54983) - http://www.bohemiancoding.com/sketch -->
    <title>sprite-reason1</title>
    <desc>Created with Sketch.</desc>
    <defs></defs>
    <g id="sprite-reason1" stroke="none" stroke-width="1" fill="none" fill-rule="evenodd">
        <path d="M19.1181667,22.9985 C17.6563333,23.7953333 16.6938333,24.8208333 16.6483333,24.8698333 C14.4445,27.2276667 14.4316667,29.7535 14.4165,32.4275 C14.4141667,32.9268333 14.4083333,33.432 14.3931667,33.943 L8.67883333,35.2485 C4.984,35.8925 2.21083333,38.9526667 1.93433333,42.6906667 L0.0035,68.747 C-0.021,69.0701667 0.091,69.3898333 0.312666667,69.6278333 C0.532,69.8646667 0.842333333,70 1.16666667,70 L68.8333333,70 C69.1576667,70 69.468,69.8646667 69.6873333,69.6278333 C69.9078333,69.3898333 70.0198333,69.0701667 69.9965,68.747 L68.0668333,42.6906667 C67.7903333,38.9526667 65.0171667,35.8925 61.3818333,35.2613333 L49.8831667,32.6363333 C49.8808333,32.6351667 49.8785,32.634 49.8761667,32.634 L46.5336667,31.8721667 C47.1205,31.2036667 47.649,30.471 48.1413333,29.708 C48.1903333,29.631 48.2428333,29.5575 48.2906667,29.4793333 C48.51,29.1281667 48.7141667,28.7665 48.9125,28.399 C48.9696667,28.2928333 49.0268333,28.1878333 49.0816667,28.0805 C49.2695,27.7141667 49.4456667,27.3396667 49.6125,26.9581667 C49.6615,26.8461667 49.7081667,26.7341667 49.7548333,26.621 C49.9181667,26.2255 50.0721667,25.8265 50.2121667,25.417 C50.2436667,25.3248333 50.2716667,25.2303333 50.302,25.1381667 C50.4455,24.696 50.5796667,24.2491667 50.694,23.7918333 C50.6998333,23.7673333 50.7045,23.7416667 50.7103333,23.7171667 C50.8363333,23.2085 50.9483333,22.694 51.0358333,22.1678333 L52.5,22.1678333 C54.4296667,22.1678333 56,20.5975 56,18.6678333 C56,16.7381667 54.4296667,15.1678333 52.5,15.1678333 L51.0358333,15.1678333 C50.9996667,14.952 50.9565,14.7385 50.9145,14.525 C50.9145,14.5238333 50.9133333,14.5215 50.9133333,14.5203333 C50.8526667,14.217 50.7838333,13.9171667 50.7103333,13.6185 C50.7045,13.594 50.6998333,13.5683333 50.694,13.5438333 C50.6403333,13.3315 50.5901667,13.118 50.5306667,12.908 C50.5306667,12.9068333 50.5306667,12.9056667 50.5295,12.9056667 C50.4606667,12.6653333 50.379,12.4331667 50.302,12.1975 C50.2716667,12.1041667 50.2436667,12.0108333 50.2121667,11.9186667 C50.1363333,11.6981667 50.0675,11.4741667 49.9846667,11.2571667 C49.9041667,11.0425 49.8096667,10.836 49.7221667,10.626 C49.7,10.5735 49.679,10.521 49.6568333,10.4696667 C49.56,10.2433333 49.4701667,10.0135 49.3663333,9.793 C49.35,9.758 49.3301667,9.72533333 49.3138333,9.69033333 C49.0793333,9.19916667 48.825,8.72433333 48.5543333,8.26233333 C48.5345,8.2285 48.5123333,8.19583333 48.4913333,8.162 C48.2218333,7.70816667 47.9348333,7.27066667 47.6315,6.84833333 C47.5965,6.79933333 47.5591667,6.75383333 47.5241667,6.70483333 C47.236,6.3105 46.9338333,5.93016667 46.6176667,5.56616667 C46.5546667,5.49383333 46.4905,5.42266667 46.4263333,5.3515 C46.1405,5.03183333 45.8453333,4.72383333 45.5385,4.42866667 C45.4311667,4.32483333 45.3226667,4.22216667 45.2118333,4.12183333 C44.9551667,3.88733333 44.6915,3.66333333 44.422,3.44633333 C44.2505,3.30633333 44.0778333,3.16866667 43.9005,3.03683333 C43.7068333,2.89333333 43.5085,2.75916667 43.309,2.62616667 C43.3055,2.62383333 43.3008333,2.62033333 43.2973333,2.618 C43.2261667,2.569 43.1573333,2.51766667 43.085,2.471 C42.8971667,2.3485 42.7081667,2.22833333 42.5156667,2.11283333 C42.4421667,2.06966667 42.3663333,2.03116667 42.2916667,1.98916667 C42.2415,1.96116667 42.1913333,1.93433333 42.1411667,1.90633333 C42.0116667,1.834 41.8833333,1.7605 41.7515,1.69166667 C41.4586667,1.53883333 41.1623333,1.39883333 40.8601667,1.26583333 C40.6851667,1.18883333 40.509,1.11533333 40.3316667,1.04416667 C40.0551667,0.9345 39.7775,0.830666667 39.494,0.737333333 C39.2711667,0.663833333 39.046,0.600833333 38.8196667,0.539 C38.5665,0.469 38.3145,0.397833333 38.0578333,0.341833333 C37.765,0.277666667 37.4686667,0.232166667 37.1711667,0.186666667 C36.967,0.155166667 36.7651667,0.114333333 36.5586667,0.0921666667 C36.0441667,0.0338333333 35.525,0 35,0 C34.475,0 33.9558333,0.0338333333 33.4413333,0.0898333333 C33.2348333,0.112 33.033,0.152833333 32.8288333,0.184333333 C32.5313333,0.229833333 32.2338333,0.275333333 31.9421667,0.3395 C31.6843333,0.3955 31.4323333,0.466666667 31.1803333,0.536666667 C30.954,0.599666667 30.7288333,0.6615 30.506,0.735 C30.2225,0.828333333 29.9448333,0.932166667 29.6683333,1.04183333 C29.491,1.11183333 29.316,1.18533333 29.141,1.26233333 C28.84,1.39533333 28.5425,1.5365 28.2496667,1.68933333 C28.1178333,1.75816667 27.9895,1.83166667 27.86,1.904 C27.5403333,2.0825 27.2241667,2.26683333 26.9161667,2.46866667 C26.887,2.48733333 26.8578333,2.506 26.8286667,2.52583333 C26.8088333,2.5375 26.789,2.54683333 26.7691667,2.5585 C26.6618333,2.62966667 26.5626667,2.71366667 26.4576667,2.78833333 C26.1893333,2.97616667 25.9233333,3.16516667 25.6666667,3.3705 C25.5173333,3.4895 25.3761667,3.619 25.2303333,3.74383333 C24.9795,3.9585 24.7275,4.17083333 24.4883333,4.40183333 C24.3845,4.50216667 24.29,4.61066667 24.1885,4.71333333 C23.3251667,5.58833333 22.5458333,6.56366667 21.8598333,7.6265 C21.8108333,7.7035 21.7583333,7.777 21.7105,7.85516667 C21.7093333,7.8575 21.707,7.85983333 21.7058333,7.86216667 C21.6731667,7.9135 21.6381667,7.9625 21.6066667,8.01383333 C21.4235,8.31366667 21.2555,8.62516667 21.0875,8.93783333 C21.0361667,9.0335 20.9836667,9.12683333 20.9335,9.2225 C20.8996667,9.289 20.8635,9.35433333 20.8296667,9.422 C20.6733333,9.73466667 20.5286667,10.0543333 20.3875,10.3775 C20.3466667,10.472 20.3046667,10.5665 20.265,10.6621667 C20.2323333,10.7415 20.1996667,10.8196667 20.167,10.899 C20.0316667,11.2338333 19.9056667,11.5733333 19.789,11.9186667 C19.761,11.9991667 19.7365,12.0808333 19.7096667,12.1625 C19.6956667,12.2068333 19.677,12.2476667 19.663,12.292 C19.6583333,12.3071667 19.6583333,12.3223333 19.6548333,12.3386667 C19.5288333,12.7353333 19.4098333,13.1355 19.3083333,13.545 C19.3025,13.5695 19.2978333,13.5951667 19.292,13.6196667 C19.166,14.1283333 19.054,14.6428333 18.9665,15.169 L17.5,15.169 C15.5703333,15.169 14,16.7393333 14,18.669 C14,20.5986667 15.5703333,22.169 17.5,22.169 L18.9641667,22.169 C18.9653333,22.1725 18.9653333,22.1771667 18.9665,22.1806667 C18.998,22.3673333 19.033,22.5505 19.0691667,22.7348333 C19.0855,22.8211667 19.0995,22.911 19.1181667,22.9985 Z M16.7486667,32.4403333 C16.7626667,29.9518333 16.7731667,28.154 18.3528333,26.4623333 C18.3598333,26.4541667 18.9163333,25.8766667 19.761,25.3318333 C21.112,29.351 23.6366667,32.6993333 26.8636667,34.8296667 C26.8298333,34.9696667 26.8053333,35.1108333 26.7668333,35.2508333 C26.6898333,35.5273333 26.5988333,35.805 26.502,36.0826667 C26.4716667,36.1701667 26.446,36.2576667 26.4145,36.3451667 C26.145,37.0766667 25.8101667,37.8116667 25.4088333,38.5466667 C25.4018333,38.5606667 25.4006667,38.5758333 25.3936667,38.5898333 C24.3938333,40.4086667 23.0405,42.0921667 21.4211667,43.4361667 C17.374,46.795 12.2138333,47.6466667 10.6493333,47.3176667 C10.8348333,47.0971667 11.0903333,46.8241667 11.3131667,46.5861667 C12.3165,45.5151667 13.8331667,43.897 15.0535,41.335 C15.2413333,40.9395 15.4011667,40.5568333 15.547,40.1788333 C15.5948333,40.0575 15.6368333,39.9373333 15.68,39.8171667 C15.778,39.5453333 15.8678333,39.2805 15.9471667,39.0203333 C15.981,38.9083333 16.0183333,38.7963333 16.0486667,38.6866667 C16.149,38.3331667 16.2353333,37.9913333 16.3053333,37.6635 C16.3193333,37.597 16.331,37.5316667 16.3438333,37.4651667 C16.4045,37.1676667 16.4546667,36.8841667 16.4955,36.6111667 C16.5083333,36.5295 16.5211667,36.4478333 16.5316667,36.3673333 C16.5748333,36.0511667 16.6086667,35.7525 16.6343333,35.476 C16.6436667,35.3803333 16.6495,35.287 16.6565,35.1913333 C16.6623333,35.1155 16.6705,35.0338333 16.6751667,34.9626667 C16.6751667,34.9568333 16.6728333,34.9521667 16.6728333,34.9475 C16.7346667,34.0538333 16.7451667,33.2138333 16.7486667,32.4403333 Z M47.3468333,34.4493333 L35.0443333,47.2698333 L27.8366667,38.9468333 C27.8985,38.8208333 27.9696667,38.6971667 28.028,38.5711667 C28.4165,37.7335 28.7373333,36.876 28.9823333,36.0126667 C29.043,36.0406667 29.1071667,36.0593333 29.1678333,36.0861667 C29.183,36.0931667 29.1993333,36.1001667 29.2145,36.1071667 L29.3731667,36.1783333 C29.4735,36.2203333 29.5738333,36.2553333 29.6741667,36.295 C29.897,36.3836667 30.1186667,36.4746667 30.345,36.5516667 C30.4675,36.5936667 30.59,36.6263333 30.7136667,36.6648333 C30.8291667,36.701 30.9481667,36.7441667 31.0613333,36.7756667 C31.0636667,36.7768333 31.0671667,36.7768333 31.0695,36.778 C31.073,36.7791667 31.0776667,36.7803333 31.0811667,36.7815 L31.2083333,36.813 C31.2293333,36.8188333 31.2526667,36.8235 31.2736667,36.8281667 C31.2736667,36.8281667 31.2736667,36.8281667 31.2748333,36.8281667 C31.2748333,36.8281667 31.2748333,36.8281667 31.2748333,36.8281667 C31.3005,36.8351667 31.3273333,36.8398333 31.353,36.8468333 C31.514,36.8888333 31.6738333,36.9378333 31.8371667,36.974 C32.0635,37.0253333 32.2945,37.0568333 32.5231667,37.0965 C32.6141667,37.1128333 32.6993333,37.1315 32.7938333,37.1466667 C32.7996667,37.1478333 32.8043333,37.149 32.809,37.1501667 L32.9945,37.177 C33.1275,37.1956667 33.2581667,37.2248333 33.3923333,37.24 C33.5265,37.2551667 33.6641667,37.2575 33.7995,37.268 C33.8356667,37.2715 33.8753333,37.2761667 33.9115,37.2796667 C33.9138333,37.2796667 33.9161667,37.2796667 33.9185,37.2808333 C33.9185,37.2808333 33.9196667,37.2808333 33.9196667,37.2808333 C34.2941667,37.3135 34.65,37.3321667 34.9918333,37.3321667 C34.9953333,37.3321667 34.9976667,37.3321667 35.0011667,37.3321667 C35.0105,37.3321667 35.0198333,37.331 35.0291667,37.331 C35.0781667,37.331 35.1283333,37.3275 35.1773333,37.3275 C35.1843333,37.3275 35.1913333,37.3275 35.1983333,37.3275 C35.5331667,37.3228333 35.875,37.303 36.2308333,37.2703333 C36.3405,37.261 36.4513333,37.2551667 36.5598333,37.2435 C36.6916667,37.2295 36.82,37.2061667 36.9506667,37.1875 L37.1151667,37.163 C37.1863333,37.1525 37.2563333,37.1373333 37.3275,37.1256667 C37.5655,37.086 37.8046667,37.051 38.0391667,36.9996667 C38.0403333,36.9996667 38.0415,36.9996667 38.0426667,36.9985 C38.0508333,36.9961667 38.059,36.9938333 38.0671667,36.9926667 C38.2573333,36.9506667 38.4451667,36.9016667 38.633,36.8526667 C38.668,36.8433333 38.703,36.8363333 38.738,36.827 C38.8091667,36.8083333 38.8803333,36.7838333 38.9503333,36.764 C39.1148333,36.7173333 39.2793333,36.6718333 39.4415,36.6181667 C39.4438333,36.617 39.4473333,36.617 39.4496667,36.6158333 C39.473,36.6088333 39.4951667,36.5995 39.5185,36.5913333 C39.7285,36.5225 39.935,36.4501667 40.1415,36.372 C40.1741667,36.3603333 40.208,36.3498333 40.2395,36.337 C40.3165,36.3078333 40.4016667,36.2716667 40.502,36.2296667 C40.6233333,36.1795 40.7423333,36.1223333 40.8625,36.0698333 C41.1378333,35.9485 41.4096667,35.8225 41.678,35.6848333 C41.7153333,35.6661667 41.7526667,35.6451667 41.79,35.6265 C41.909,35.5635 42.0256667,35.4946667 42.1435,35.4293333 C42.4631667,35.2508333 42.7793333,35.0665 43.0873333,34.8658333 C43.155,34.8215 43.2203333,34.7725 43.288,34.727 C43.463,34.6091667 43.6368333,34.4913333 43.8071667,34.3665 C43.9915,34.2311667 44.1735,34.0958333 44.352,33.9523333 C44.4126667,33.9045 44.4756667,33.8578333 44.5351667,33.8088333 L47.3468333,34.4493333 Z M36.1666667,60.6666667 C36.1666667,61.3106667 35.644,61.8333333 35,61.8333333 C34.356,61.8333333 33.8333333,61.3106667 33.8333333,60.6666667 C33.8333333,60.0226667 34.356,59.5 35,59.5 C35.644,59.5 36.1666667,60.0226667 36.1666667,60.6666667 Z M48.8576667,20.8658333 C48.3373333,25.3551667 46.256,29.225 43.3113333,31.7765 C43.2028333,31.871 43.0885,31.9585 42.9765,32.0495 C42.7793333,32.2105 42.5786667,32.368 42.3745,32.5173333 C42.2368333,32.6165 42.098,32.7133333 41.958,32.8066667 L41.9568333,32.8078333 C41.7806667,32.9268333 41.601,33.04 41.419,33.1508333 C41.3151667,33.2138333 41.2101667,33.2745 41.104,33.334 C41.0293333,33.376 40.957,33.4215 40.8823333,33.4635 C40.754,33.5335 40.6221667,33.5965 40.4915,33.6618333 C40.2663333,33.7738333 40.0423333,33.887 39.8101667,33.9861667 C39.7985,33.9908333 39.7856667,33.9966667 39.774,34.0013333 C39.5301667,34.1051667 39.2828333,34.2008333 39.0331667,34.2895 C38.9923333,34.3035 38.9515,34.3186667 38.9106667,34.3326667 C38.7146667,34.4003333 38.5175,34.4586667 38.3191667,34.5146667 C38.1721667,34.5566667 38.024,34.5998333 37.8746667,34.636 C37.772,34.6616667 37.6716667,34.6896667 37.5678333,34.7118333 C37.366,34.7561667 37.1606667,34.7876667 36.9553333,34.8215 C36.8223333,34.8436667 36.6893333,34.8693333 36.5551667,34.8868333 C36.4758333,34.8985 36.3976667,34.9113333 36.3171667,34.9206667 C36.295,34.923 36.2763333,34.9241667 36.2541667,34.9265 C35.8726667,34.9661667 35.4888333,34.9918333 35.0991667,34.9941667 C35.0186667,34.9941667 34.9393333,34.9918333 34.8611667,34.9906667 C34.4948333,34.986 34.1308333,34.9545 33.7691667,34.9171667 C33.6,34.8985 33.4296667,34.8833333 33.2605,34.8588333 L33.2161667,34.8518333 C33.1695,34.8448333 33.1228333,34.8343333 33.0761667,34.8273333 C32.6725,34.7608333 32.2735,34.6815 31.8815,34.5753333 C31.8815,34.5753333 31.8663333,34.5718333 31.8628333,34.5706667 C31.8546667,34.5683333 31.8476667,34.5671667 31.8395,34.5648333 C31.7508333,34.5403333 31.6633333,34.5111667 31.5758333,34.4855 C31.4813333,34.4575 31.3891667,34.4178333 31.2958333,34.3875 C31.0298333,34.3011667 30.7638333,34.2125 30.4943333,34.104 C30.3706667,34.0538333 30.2551667,34.013 30.1245,33.9558333 C29.8095,33.817 29.5003333,33.6525 29.1911667,33.4868333 C29.106,33.4401667 29.0138333,33.4028333 28.9298333,33.355 C28.8913333,33.334 28.8528333,33.3153333 28.8155,33.2966667 C25.3703333,31.3063333 22.7208333,27.7223333 21.5961667,23.3625 C21.5961667,23.3601667 21.5961667,23.359 21.5961667,23.3566667 C21.4176667,22.6625 21.2846667,21.9333333 21.1855,21.1925 C21.0746667,20.3688333 21,19.5288333 21,18.6666667 C21,17.92 21.0583333,17.1896667 21.1423333,16.4698333 C21.1423333,16.4686667 21.1423333,16.4686667 21.1423333,16.4675 C21.2543333,15.4968333 21.4433333,14.5576667 21.6941667,13.6511667 C23.7253333,13.2626667 25.655,12.5545 27.4283333,11.5033333 C29.0266667,10.5548333 30.4546667,9.3695 31.6855,7.97183333 C33.8811667,10.2503333 36.3591667,12.2196667 39.0681667,13.8355 C41.7013333,15.4058333 44.5421667,16.6296667 47.5125,17.4731667 C47.6175,17.5023333 47.7248333,17.5175 47.831,17.5175 C47.901,17.5175 47.9686667,17.5116667 48.0363333,17.4988333 L48.9475,17.4988333 C48.9731667,17.8873333 49,18.2723333 49,18.6666667 C49,19.4133333 48.9416667,20.1436667 48.8576667,20.8635 C48.8576667,20.8646667 48.8576667,20.8646667 48.8576667,20.8658333 Z M22.6858333,10.9433333 C22.7336667,10.8395 22.7873333,10.7391667 22.8375,10.6353333 C22.981,10.3401667 23.1303333,10.0496667 23.289,9.76616667 C23.345,9.66466667 23.4033333,9.5655 23.4616667,9.46516667 C23.6448333,9.15366667 23.835,8.848 24.0368333,8.55283333 C24.0683333,8.50616667 24.0986667,8.45833333 24.1313333,8.41166667 C24.8931667,7.315 25.7728333,6.33616667 26.747,5.502 C26.761,5.49033333 26.7738333,5.47866667 26.7866667,5.467 C27.0923333,5.20683333 27.4096667,4.963 27.7328333,4.732 C27.7748333,4.70166667 27.818,4.67133333 27.86,4.641 C27.944,4.58266667 28.0315,4.53366667 28.1166667,4.47766667 C30.3601667,3.19783333 32.9128333,2.4605 35.4293333,2.359 C36.6321667,2.40216667 37.7965,2.6215 38.9048333,2.99366667 C39.1906667,3.09166667 39.4706667,3.20366667 39.7495,3.3215 C39.8603333,3.36816667 39.9711667,3.4125 40.0796667,3.46266667 C40.3865,3.60383333 40.6886667,3.75783333 40.985,3.9235 C41.0585,3.96433333 41.132,4.00516667 41.2043333,4.04716667 C41.5216667,4.23266667 41.8331667,4.42983333 42.1365,4.641 C42.1796667,4.67133333 42.2216667,4.70166667 42.2636667,4.732 C42.5868333,4.963 42.9041667,5.20683333 43.2098333,5.467 C43.2238333,5.47866667 43.2366667,5.49033333 43.2495,5.502 C45.2235,7.1925 46.8125,9.47566667 47.8123333,12.1391667 C47.8181667,12.1555 47.8251667,12.1718333 47.831,12.1881667 C47.9756667,12.579 48.104,12.9791667 48.223,13.3851667 C48.2451667,13.4598333 48.2696667,13.5321667 48.2906667,13.608 C48.3886667,13.9603333 48.4715,14.3208333 48.5496667,14.6836667 C48.5765,14.8061667 48.608,14.9263333 48.6313333,15.05 C48.6383333,15.0873333 48.6418333,15.127 48.65,15.1655 L47.9313333,15.1655 C45.2351667,14.3791667 42.6568333,13.258 40.2616667,11.8311667 C37.3683333,10.1056667 34.755,7.9485 32.4986667,5.41916667 C32.2665,5.159 31.9375,5.0155 31.5805,5.03066667 C31.2316667,5.04466667 30.9073333,5.21383333 30.6973333,5.49266667 C29.4676667,7.12133333 27.9661667,8.46766667 26.2348333,9.4955 C25.1031667,10.1686667 23.8991667,10.6878333 22.6391667,11.0483333 C22.6578333,11.0145 22.6706667,10.9783333 22.6858333,10.9433333 Z M65.7405,42.8633333 L67.5768333,67.6666667 L2.42316667,67.6666667 L4.2595,42.8633333 C4.45783333,40.1928333 6.43883333,38.0065 9.1385,37.5351667 L14.1738333,36.386 C14.1225,36.7138333 14.0583333,37.0335 13.9871667,37.3473333 C13.9661667,37.4406667 13.9393333,37.5351667 13.916,37.6285 C13.86,37.8548333 13.8005,38.0788333 13.734,38.3005 C13.678,38.4825 13.6115,38.6703333 13.5461667,38.857 C13.4948333,39.0028333 13.4481667,39.1486667 13.3921667,39.2933333 C13.2603333,39.6328333 13.1145,39.9781667 12.9465,40.3328333 C11.8836667,42.567 10.57,43.967 9.611,44.9901667 C8.58083333,46.0891667 7.60783333,47.1286667 8.31483333,48.4003333 C8.65783333,49.0186667 9.31233333,49.4223333 10.262,49.5996667 C10.5991667,49.6638333 10.9783333,49.693 11.3831667,49.7011667 C11.4275,49.7023333 11.4683333,49.7058333 11.5138333,49.7058333 C11.5278333,49.7058333 11.5395,49.707 11.5535,49.707 C11.949,49.707 12.3736667,49.6801667 12.8181667,49.63 C12.9908333,49.6101667 13.1763333,49.5716667 13.3536667,49.5448333 C13.6581667,49.4993333 13.9615,49.4526667 14.28,49.385 C14.5016667,49.3383333 14.728,49.2753333 14.9543333,49.2181667 C15.2495,49.1435 15.5435,49.0665 15.8456667,48.9743333 C16.0836667,48.902 16.3205,48.8203333 16.562,48.7375 C16.8676667,48.6325 17.1721667,48.5193333 17.4813333,48.3968333 C17.7205,48.3023333 17.9561667,48.2043333 18.1953333,48.0993333 C18.5173333,47.9581667 18.8358333,47.803 19.1555,47.6431667 C19.3795,47.5311667 19.6011667,47.4226667 19.8228333,47.3013333 C20.1751667,47.1088333 20.5193333,46.8976667 20.8635,46.683 C21.0455,46.5698333 21.2298333,46.4648333 21.4095,46.3446667 C21.9263333,45.9981667 22.4315,45.6295 22.9133333,45.2305 C24.3366667,44.0498333 25.5873333,42.6346667 26.6116667,41.0935 L33.8333333,49.434 L33.8333333,57.3813333 C32.4788333,57.8643333 31.5,59.1476667 31.5,60.6666667 C31.5,62.5963333 33.0703333,64.1666667 35,64.1666667 C36.9296667,64.1666667 38.5,62.5963333 38.5,60.6666667 C38.5,59.1476667 37.5211667,57.8643333 36.1666667,57.3813333 L36.1666667,49.469 L49.9998333,35.0548333 L60.921,37.5468333 C63.56,38.0065 65.5421667,40.1928333 65.7405,42.8633333 Z M53.6666667,18.6666667 C53.6666667,19.3106667 53.144,19.8333333 52.5,19.8333333 L51.282,19.8333333 C51.303,19.446 51.3333333,19.061 51.3333333,18.6666667 C51.3333333,18.2723333 51.303,17.8873333 51.282,17.5 L52.5,17.5 C53.144,17.5 53.6666667,18.0226667 53.6666667,18.6666667 Z M17.5,19.8333333 C16.856,19.8333333 16.3333333,19.3106667 16.3333333,18.6666667 C16.3333333,18.0226667 16.856,17.5 17.5,17.5 L18.718,17.5 C18.697,17.8873333 18.6666667,18.2723333 18.6666667,18.6666667 C18.6666667,19.061 18.697,19.446 18.718,19.8333333 L17.5,19.8333333 Z" id="Shape" fill="#222568" fill-rule="nonzero"></path>
        <path d="M32.2,18.9 C30.576,17.682 28.8715,17.5 28,17.5 C25.9665,17.5 24.4953333,18.3773333 23.7988333,18.9 L25.2,20.7666667 C25.6643333,20.4178333 26.6443333,19.8333333 28,19.8333333 C28.581,19.8333333 29.7173333,19.9546667 30.8,20.7666667 L32.2,18.9 Z" id="Shape" fill="#222568" fill-rule="nonzero"></path>
        <path d="M37.7988333,18.9 L39.2,20.7666667 C39.6643333,20.4178333 40.6443333,19.8333333 42,19.8333333 C42.581,19.8333333 43.7173333,19.9546667 44.8,20.7666667 L46.1988333,18.9 C44.576,17.682 42.8715,17.5 42,17.5 C39.9665,17.5 38.4953333,18.3773333 37.7988333,18.9 Z" id="Shape" fill="#222568" fill-rule="nonzero"></path>
        <path d="M35,28 C33.6443333,28 32.6643333,27.4155 32.2011667,27.0666667 L30.8,28.9333333 C31.4953333,29.456 32.9665,30.3333333 35,30.3333333 C35.8715,30.3333333 37.576,30.1513333 39.2,28.9333333 L37.8,27.0666667 C36.7173333,27.8786667 35.581,28 35,28 Z" id="Shape" fill="#222568" fill-rule="nonzero"></path>
        <path d="M43.8363333,52.535 C42.1411667,52.7765 40.8333333,54.2383333 40.8333333,56 C40.8333333,57.7616667 42.1411667,59.2235 43.8363333,59.465 C45.2375,62.9591667 48.6873333,65.3333333 52.5,65.3333333 C56.3126667,65.3333333 59.7625,62.9591667 61.1636667,59.465 C62.8588333,59.2235 64.1666667,57.7616667 64.1666667,56 C64.1666667,54.2383333 62.8588333,52.7765 61.1636667,52.535 C59.7625,49.0408333 56.3126667,46.6666667 52.5,46.6666667 C48.6873333,46.6666667 45.2375,49.0408333 43.8363333,52.535 Z M59.206,53.9991667 C59.353,54.4938333 59.808,54.8333333 60.3236667,54.8333333 L60.6666667,54.8333333 C61.3106667,54.8333333 61.8333333,55.356 61.8333333,56 C61.8333333,56.644 61.3106667,57.1666667 60.6666667,57.1666667 L60.3236667,57.1666667 C59.808,57.1666667 59.353,57.5061667 59.206,58.0008333 C58.3298333,60.9443333 55.5718333,63 52.5,63 C49.4281667,63 46.6701667,60.9443333 45.794,58.0008333 C45.647,57.5061667 45.192,57.1666667 44.6763333,57.1666667 L44.3333333,57.1666667 C43.6893333,57.1666667 43.1666667,56.644 43.1666667,56 C43.1666667,55.356 43.6893333,54.8333333 44.3333333,54.8333333 L44.6763333,54.8333333 C45.192,54.8333333 45.647,54.4938333 45.794,53.9991667 C46.4181667,51.9026667 48.0036667,50.274 49.9695,49.5005 C49.8236667,50.3008333 49.9228333,51.1198333 50.2903333,51.8548333 C50.7395,52.7531667 51.5153333,53.424 52.4743333,53.7436667 C52.8698333,53.8743333 53.277,53.9408333 53.6795,53.9408333 C54.2558333,53.9408333 54.8263333,53.8078333 55.356,53.543 L54.3118333,51.4558333 C53.9711667,51.6261667 53.5803333,51.6541667 53.2128333,51.5293333 C52.8453333,51.4068333 52.5478333,51.1513333 52.3775,50.8106667 C52.2071667,50.47 52.1803333,50.0791667 52.304,49.7116667 C52.3996667,49.4246667 52.5945,49.2006667 52.8301667,49.0268333 C55.7655,49.1691667 58.3613333,51.1618333 59.206,53.9991667 Z" id="Shape" fill="#222568" fill-rule="nonzero"></path>
        <rect id="Rectangle-path" fill="#222568" fill-rule="nonzero" x="47.8333333" y="54.8333333" width="2.33333333" height="2.33333333"></rect>
        <rect id="Rectangle-path" fill="#222568" fill-rule="nonzero" x="54.8333333" y="54.8333333" width="2.33333333" height="2.33333333"></rect>
        <rect id="Rectangle-path" fill="#222568" fill-rule="nonzero" x="51.3333333" y="58.3333333" width="2.33333333" height="2.33333333"></rect>
    </g>
</svg>