<?xml version="1.0" encoding="UTF-8"?>
<svg width="71px" height="71px" viewBox="0 0 71 71" version="1.1" xmlns="http://www.w3.org/2000/svg" xmlns:xlink="http://www.w3.org/1999/xlink">
    <!-- Generator: Sketch 50 (54983) - http://www.bohemiancoding.com/sketch -->
    <title>Group 25</title>
    <desc>Created with Sketch.</desc>
    <defs></defs>
    <g id="Page-1" stroke="none" stroke-width="1" fill="none" fill-rule="evenodd">
        <g id="Group-25" fill="#222568" fill-rule="nonzero">
            <path d="M49.0834833,7.2446625 L36.0668167,0.1446625 C35.7153667,-0.0482208333 35.2858167,-0.0482208333 34.9343667,0.1446625 L21.9177,7.2446625 C21.5366667,7.45174583 21.3,7.85052917 21.3,8.28362917 C21.3,8.71672917 21.5366667,9.1155125 21.9165167,9.32259583 L27.2166667,12.2134792 L27.2166667,18.9336292 C27.2166667,19.4353625 27.5338,19.8826625 28.0071333,20.0495125 C30.0270833,20.7606958 32.1275,21.1807792 34.2504,21.2979292 C34.6681167,21.3215958 35.0834667,21.3322458 35.4988167,21.3322458 C38.0394333,21.3322458 40.5528333,20.9026958 42.9905,20.0495125 C43.4650167,19.8838458 43.7833333,19.4353625 43.7833333,18.9324458 L43.7833333,12.2122958 L47.3333333,10.2763625 L47.3333333,15.6013625 C45.9594833,16.0912625 44.9666667,17.3929292 44.9666667,18.9336292 L44.9666667,22.4836292 C44.9666667,23.1368292 45.4956167,23.6669625 46.15,23.6669625 L50.8833333,23.6669625 C51.5377167,23.6669625 52.0666667,23.1368292 52.0666667,22.4836292 L52.0666667,18.9336292 C52.0666667,17.3929292 51.07385,16.0912625 49.7,15.6013625 L49.7,8.28362917 C49.7,7.85052917 49.4633333,7.45174583 49.0834833,7.2446625 Z M41.4166667,13.5044958 L41.4166667,18.0757125 C39.1221833,18.7774292 36.76025,19.0685292 34.3829333,18.9348125 C32.7570333,18.8448792 31.1477,18.5573292 29.5833333,18.0768958 L29.5833333,13.5033125 L34.9331833,16.4214125 C35.2846333,16.6142958 35.7141833,16.6142958 36.0656333,16.4214125 L41.4166667,13.5044958 Z M35.5,14.0358125 L24.9541333,8.28362917 L35.5,2.53144583 L46.0458667,8.28362917 L35.5,14.0358125 Z M49.7,21.3002958 L47.3333333,21.3002958 L47.3333333,18.9336292 C47.3333333,18.2816125 47.8634667,17.7502958 48.5166667,17.7502958 C49.1698667,17.7502958 49.7,18.2816125 49.7,18.9336292 L49.7,21.3002958 Z" id="Shape"></path>
            <path d="M0.203792003,44.4457042 C0.425075336,44.7711208 0.790725336,44.9651875 1.183592,44.9651875 L3.55025867,44.9651875 L3.55025867,55.6151875 L3.55025867,69.8151875 C3.55025867,70.4683875 4.07920867,70.9985208 4.733592,70.9985208 L23.6669253,70.9985208 L29.583592,70.9985208 L41.4169253,70.9985208 L47.333592,70.9985208 L66.2669253,70.9985208 C66.9213087,70.9985208 67.4502587,70.4683875 67.4502587,69.8151875 L67.4502587,55.6151875 L67.4502587,44.9651875 L69.8169253,44.9651875 C70.209792,44.9651875 70.5766253,44.7699375 70.7967253,44.4457042 C71.0168253,44.1202875 71.061792,43.7073042 70.916242,43.3428375 L66.1829087,31.5095042 C66.003042,31.0610208 65.5675753,30.7663708 65.083592,30.7663708 L44.2214253,30.7663708 L36.2706087,23.9515542 C35.8292253,23.5717042 35.1724753,23.5717042 34.731092,23.9515542 L26.779092,30.7651875 L5.91692534,30.7651875 C5.432942,30.7651875 4.99865867,31.0598375 4.81760867,31.5083208 L0.0842753363,43.3416542 C-0.0612746637,43.7073042 -0.016307997,44.1202875 0.203792003,44.4457042 Z M22.483592,54.4318542 L5.91692534,54.4318542 L5.91692534,44.9651875 L22.483592,44.9651875 L22.483592,54.4318542 Z M5.91692534,56.7985208 L22.483592,56.7985208 L22.483592,68.6318542 L5.91692534,68.6318542 L5.91692534,56.7985208 Z M24.8502587,55.6151875 L24.8502587,43.7818542 L24.8502587,40.2318542 L46.1502587,40.2318542 L46.1502587,43.7818542 L46.1502587,55.6151875 L46.1502587,68.6318542 L42.6002587,68.6318542 L42.6002587,60.3485208 C42.6002587,57.0860708 39.946042,54.4318542 36.683592,54.4318542 L34.3169253,54.4318542 C31.0544753,54.4318542 28.4002587,57.0860708 28.4002587,60.3485208 L28.4002587,68.6318542 L24.8502587,68.6318542 L24.8502587,55.6151875 Z M34.3169253,61.5318542 L30.7669253,61.5318542 L30.7669253,60.3485208 C30.7669253,58.3912875 32.359692,56.7985208 34.3169253,56.7985208 L34.3169253,61.5318542 Z M36.683592,56.7985208 C38.6408253,56.7985208 40.233592,58.3912875 40.233592,60.3485208 L40.233592,61.5318542 L36.683592,61.5318542 L36.683592,56.7985208 Z M30.7669253,63.8985208 L34.3169253,63.8985208 L34.3169253,68.6318542 L30.7669253,68.6318542 L30.7669253,63.8985208 Z M36.683592,68.6318542 L36.683592,63.8985208 L40.233592,63.8985208 L40.233592,68.6318542 L36.683592,68.6318542 Z M65.083592,68.6318542 L48.5169253,68.6318542 L48.5169253,56.7985208 L65.083592,56.7985208 L65.083592,68.6318542 Z M65.083592,54.4318542 L48.5169253,54.4318542 L48.5169253,44.9651875 L65.083592,44.9651875 L65.083592,54.4318542 Z M46.982142,33.1318542 L64.2824753,33.1318542 L68.069142,42.5985208 L66.2669253,42.5985208 L48.5169253,42.5985208 L48.5169253,40.2318542 L52.0669253,40.2318542 C52.562742,40.2318542 53.0053087,39.9230042 53.176892,39.4591375 C53.3496587,38.9940875 53.2135753,38.4722375 52.8372753,38.1503708 L46.982142,33.1318542 Z M35.5002587,26.4069708 L48.8683753,37.8651875 L47.333592,37.8651875 L23.6669253,37.8651875 L22.132142,37.8651875 L35.5002587,26.4069708 Z M6.718042,33.1318542 L24.0183753,33.1318542 L18.1644253,38.1503708 C17.7881253,38.4722375 17.652042,38.9952708 17.8248087,39.4591375 C17.996392,39.9230042 18.4389587,40.2318542 18.9347753,40.2318542 L22.4847753,40.2318542 L22.4847753,42.5985208 L4.73477534,42.5985208 L2.93255867,42.5985208 L6.718042,33.1318542 Z" id="Shape"></path>
            <rect id="Rectangle-path" x="8.28333333" y="47.3333333" width="2.36666667" height="4.73333333"></rect>
            <rect id="Rectangle-path" x="13.0166667" y="47.3333333" width="2.36666667" height="4.73333333"></rect>
            <rect id="Rectangle-path" x="17.75" y="47.3333333" width="2.36666667" height="4.73333333"></rect>
            <rect id="Rectangle-path" x="8.28333333" y="59.1666667" width="2.36666667" height="7.1"></rect>
            <rect id="Rectangle-path" x="13.0166667" y="59.1666667" width="2.36666667" height="7.1"></rect>
            <rect id="Rectangle-path" x="17.75" y="59.1666667" width="2.36666667" height="7.1"></rect>
            <rect id="Rectangle-path" x="50.8833333" y="47.3333333" width="2.36666667" height="4.73333333"></rect>
            <rect id="Rectangle-path" x="55.6166667" y="47.3333333" width="2.36666667" height="4.73333333"></rect>
            <rect id="Rectangle-path" x="60.35" y="47.3333333" width="2.36666667" height="4.73333333"></rect>
            <rect id="Rectangle-path" x="50.8833333" y="59.1666667" width="2.36666667" height="7.1"></rect>
            <rect id="Rectangle-path" x="55.6166667" y="59.1666667" width="2.36666667" height="7.1"></rect>
            <rect id="Rectangle-path" x="60.35" y="59.1666667" width="2.36666667" height="7.1"></rect>
            <path d="M28.4,52.0666667 L33.1333333,52.0666667 C33.7877167,52.0666667 34.3166667,51.5365333 34.3166667,50.8833333 L34.3166667,46.15 C34.3166667,45.4968 33.7877167,44.9666667 33.1333333,44.9666667 L28.4,44.9666667 C27.7456167,44.9666667 27.2166667,45.4968 27.2166667,46.15 L27.2166667,50.8833333 C27.2166667,51.5365333 27.7456167,52.0666667 28.4,52.0666667 Z M29.5833333,47.3333333 L31.95,47.3333333 L31.95,49.7 L29.5833333,49.7 L29.5833333,47.3333333 Z" id="Shape"></path>
            <path d="M37.8666667,52.0666667 L42.6,52.0666667 C43.2543833,52.0666667 43.7833333,51.5365333 43.7833333,50.8833333 L43.7833333,46.15 C43.7833333,45.4968 43.2543833,44.9666667 42.6,44.9666667 L37.8666667,44.9666667 C37.2122833,44.9666667 36.6833333,45.4968 36.6833333,46.15 L36.6833333,50.8833333 C36.6833333,51.5365333 37.2122833,52.0666667 37.8666667,52.0666667 Z M39.05,47.3333333 L41.4166667,47.3333333 L41.4166667,49.7 L39.05,49.7 L39.05,47.3333333 Z" id="Shape"></path>
            <path d="M12.8131333,15.9454167 L11.2132667,14.2 C10.6168667,14.7467 10.02875,15.3229833 9.46666667,15.91465 L11.1813167,17.5452833 C11.7067167,16.9950333 12.2557833,16.4566167 12.8131333,15.9454167 Z" id="Shape"></path>
            <path d="M5.91666667,19.6871167 L7.83721667,21.0680667 C8.28215,20.4503667 8.75193333,19.84095 9.23473333,19.25875 L7.41121667,17.75 C6.8941,18.3736167 6.39118333,19.0256333 5.91666667,19.6871167 Z" id="Shape"></path>
            <path d="M3.55,23.4252667 L5.6445,24.5293167 C6.00068333,23.8536333 6.38171667,23.1862333 6.77813333,22.5472333 L4.76765,21.3 C4.34165,21.98515 3.93221667,22.7010667 3.55,23.4252667 Z" id="Shape"></path>
            <path d="M0,31.9618333 L2.31578333,32.4481833 C2.47198333,31.7074167 2.6554,30.9607333 2.86366667,30.2306167 L0.586933333,29.5833333 C0.363283333,30.3667 0.165666667,31.1678167 0,31.9618333 Z" id="Shape"></path>
            <path d="M14.981,10.65 C14.3147833,11.1103167 13.6544833,11.6014 13.0166667,12.10905 L14.4934667,13.9586 C15.0875,13.4840833 15.7040167,13.02495 16.32645,12.5965833 L14.981,10.65 Z" id="Shape"></path>
            <path d="M19.8953833,8.28333333 C19.1711833,8.64898333 18.4481667,9.04421667 17.75,9.45956667 L18.9581833,11.4949 C19.6113833,11.1067667 20.2847,10.7375667 20.9603833,10.3967667 L19.8953833,8.28333333 Z" id="Shape"></path>
            <path d="M2.36666667,28.3065167 L4.59251667,29.1111833 C4.85285,28.3940833 5.13803333,27.6805333 5.44333333,26.99065 L3.27783333,26.0333333 C2.95241667,26.7741 2.64593333,27.5385333 2.36666667,28.3065167 Z" id="Shape"></path>
            <path d="M52.90565,9.44536667 C52.2003833,9.03356667 51.4761833,8.64306667 50.7519833,8.28333333 L49.7,10.4038667 C50.3768667,10.7399333 51.0549167,11.1044 51.7104833,11.4889833 L52.90565,9.44536667 Z" id="Shape"></path>
            <path d="M55.76695,10.65 L54.4333333,12.6048667 C55.0616833,13.0332333 55.68175,13.4876333 56.2757833,13.9562333 L57.74075,12.0972167 C57.1029333,11.5954833 56.4390833,11.1091333 55.76695,10.65 Z" id="Shape"></path>
            <path d="M63.9,22.5567 C64.3023333,23.1980667 64.6881,23.8631 65.0478333,24.5328667 L67.1328667,23.4146167 C66.7494667,22.6987 66.3353,21.9863333 65.9045667,21.3 L63.9,22.5567 Z" id="Shape"></path>
            <path d="M70.3255,31.95355 C70.1503667,31.15125 69.9468333,30.3536833 69.722,29.5833333 L67.45,30.246 C67.65945,30.9642833 67.8487833,31.7097833 68.01445,32.4612 L70.3255,31.95355 Z" id="Shape"></path>
            <path d="M60.35,18.08725 C60.8399,18.6706333 61.31205,19.2765 61.7569833,19.8871 L63.6704333,18.4931333 C63.1947333,17.8399333 62.6870833,17.1902833 62.16405,16.5666667 L60.35,18.08725 Z" id="Shape"></path>
            <path d="M57.9833333,14.77155 C58.5395,15.27565 59.0921167,15.8105167 59.6246167,16.36195 L61.3274333,14.7183 C60.75825,14.1278167 60.1677667,13.5562667 59.5713667,13.0166667 L57.9833333,14.77155 Z" id="Shape"></path>
            <path d="M65.0833333,25.8203333 C65.3921833,26.5066667 65.6832833,27.21785 65.9459833,27.9337667 L68.1671,27.1149 C67.8842833,26.3481 67.5718833,25.5860333 67.2417333,24.85 L65.0833333,25.8203333 Z" id="Shape"></path>
        </g>
    </g>
</svg>