<?xml version="1.0" encoding="UTF-8"?>
<svg width="69px" height="70px" viewBox="0 0 69 70" version="1.1" xmlns="http://www.w3.org/2000/svg" xmlns:xlink="http://www.w3.org/1999/xlink">
    <!-- Generator: Sketch 50 (54983) - http://www.bohemiancoding.com/sketch -->
    <title>Group 16</title>
    <desc>Created with Sketch.</desc>
    <defs></defs>
    <g id="Page-1" stroke="none" stroke-width="1" fill="none" fill-rule="evenodd">
        <g id="Group-16" fill="#222568" fill-rule="nonzero">
            <path d="M59.952375,46.6666667 L36.6190417,46.6666667 L29.6190417,46.6666667 L6.28570833,46.6666667 C5.87504167,46.6666667 5.495875,46.8825 5.285875,47.2325 C2.90470833,51.2003333 2.90470833,56.1318333 5.285875,60.0996667 C5.49704167,60.4508333 5.87620833,60.6655 6.28570833,60.6655 L21.452375,60.6655 L21.452375,61.8321667 C21.452375,62.1973333 21.623875,62.5426667 21.9155417,62.7643333 C22.120875,62.9183333 22.3682083,62.9988333 22.6190417,62.9988333 C22.726375,62.9988333 22.834875,62.9836667 22.9387083,62.9545 L25.3945417,62.2521667 L23.8195417,68.5486667 C23.7017083,69.0153333 23.884875,69.5065 24.2792083,69.7853333 C24.672375,70.063 25.197375,70.07 25.5987083,69.8028333 L28.3030417,68.0003333 L29.9597083,69.657 C30.181375,69.8786667 30.478875,69.9988333 30.7845417,69.9988333 C30.888375,69.9988333 30.993375,69.9848333 31.0960417,69.9568333 C31.5020417,69.8436667 31.8147083,69.5228333 31.9162083,69.1145 L33.117875,64.3066667 L34.3195417,69.1145 C34.4210417,69.5228333 34.7337083,69.8436667 35.1397083,69.9568333 C35.242375,69.9848333 35.347375,69.9988333 35.4512083,69.9988333 C35.756875,69.9988333 36.054375,69.8786667 36.2760417,69.657 L37.9327083,68.0003333 L40.6370417,69.8028333 C41.0372083,70.07 41.5622083,70.0641667 41.9565417,69.7853333 C42.350875,69.5065 42.532875,69.0165 42.4162083,68.5486667 L40.8412083,62.2521667 L43.2970417,62.9545 C43.4020417,62.9836667 43.5105417,62.9988333 43.6167083,62.9988333 C43.8675417,62.9988333 44.114875,62.9183333 44.3202083,62.7643333 C44.611875,62.5438333 44.783375,62.1985 44.783375,61.8321667 L44.783375,60.6655 L59.9500417,60.6655 C60.3607083,60.6655 60.739875,60.4496667 60.949875,60.0996667 C63.3310417,56.1318333 63.3310417,51.2003333 60.949875,47.2325 C60.7422083,46.8825 60.3630417,46.6666667 59.952375,46.6666667 Z M35.452375,49 L35.452375,53.62 L35.4512083,53.62 L30.9502083,53.6666667 L30.7857083,53.62 L30.7857083,49 L35.452375,49 Z M33.1190417,58.3333333 L31.952375,58.3333333 L31.952375,56 L34.2857083,56 L34.2857083,58.3333333 L33.1190417,58.3333333 Z M6.97054167,58.3333333 C5.453875,55.4026667 5.453875,51.9306667 6.97054167,49 L28.452375,49 L28.452375,52.9526667 L22.9387083,51.3776667 C22.5887083,51.2796667 22.208375,51.3485 21.9155417,51.5678333 C21.623875,51.7883333 21.452375,52.1336667 21.452375,52.5 L21.452375,58.3333333 L6.97054167,58.3333333 Z M23.7857083,59.5 L23.7857083,54.047 L29.6190417,55.713 L29.6190417,58.6191667 L26.6965417,59.4545 C26.695375,59.4545 26.6942083,59.4556667 26.6930417,59.4556667 L23.7857083,60.2863333 L23.7857083,59.5 Z M30.153375,66.5513333 L29.2772083,65.6751667 C29.0520417,65.45 28.753375,65.3333333 28.452375,65.3333333 C28.228375,65.3333333 28.0020417,65.3975 27.804875,65.5293333 L26.8155417,66.1885 L27.9845417,61.5136667 L30.9502083,60.6666667 L31.6245417,60.6666667 L30.153375,66.5513333 Z M39.421375,66.1885 L38.4320417,65.5293333 C37.9700417,65.2201667 37.3540417,65.2808333 36.9597083,65.6751667 L36.0835417,66.5513333 L34.6135417,60.6666667 L35.287875,60.6666667 L38.2535417,61.5136667 L39.421375,66.1885 Z M42.452375,60.2863333 L39.5450417,59.4556667 C39.543875,59.4556667 39.5427083,59.4545 39.5415417,59.4545 L36.6190417,58.6191667 L36.6190417,55.713 L42.452375,54.047 L42.452375,59.5 L42.452375,60.2863333 Z M59.2675417,58.3333333 L44.7857083,58.3333333 L44.7857083,52.5 C44.7857083,52.1348333 44.6142083,51.7895 44.3225417,51.5678333 C44.0297083,51.3485 43.649375,51.2796667 43.299375,51.3776667 L37.7857083,52.9526667 L37.7857083,49 L59.2675417,49 C60.7842083,51.9306667 60.7842083,55.4026667 59.2675417,58.3333333 Z" id="Shape"></path>
            <path d="M65.3333333,28.1647917 L65.3333333,16.3324583 C65.3333333,15.8844583 65.0766667,15.476125 64.673,15.2812917 L33.173,0.114625 C32.8545,-0.0382083333 32.48,-0.0382083333 32.1615,0.114625 L0.6615,15.2812917 C0.256666667,15.476125 0,15.8844583 0,16.3324583 C0,16.7804583 0.256666667,17.1887917 0.660333333,17.383625 L11.6666667,22.682625 L11.6666667,38.499125 C11.6666667,38.9412917 11.9175,39.346125 12.313,39.5444583 C16.7731667,41.7657917 23.8571667,44.3487917 32.676,44.347625 C33.068,44.347625 33.4646667,44.3429583 33.8648333,44.3324583 C40.46,44.1597917 47.0843333,42.503125 53.0215,39.5432917 C53.417,39.346125 53.6678333,38.9412917 53.6678333,38.499125 L53.6678333,22.682625 L63.0011667,18.188625 L63.0011667,28.163625 C60.9933333,28.685125 59.5011667,30.4957917 59.5011667,32.664625 L59.5011667,40.8312917 C59.5011667,41.4764583 60.0226667,41.9979583 60.6678333,41.9979583 L67.6678333,41.9979583 C68.313,41.9979583 68.8345,41.4764583 68.8345,40.8312917 L68.8345,32.664625 C68.8333333,30.4969583 67.3411667,28.6862917 65.3333333,28.1647917 Z M51.3333333,37.7699583 C45.8663333,40.3809583 39.8218333,41.841625 33.803,41.999125 C25.3306667,42.237125 18.4555,39.895625 14,37.7699583 L14,23.806125 L32.1603333,32.5502917 C32.3201667,32.626125 32.4928333,32.6657917 32.6666667,32.6657917 C32.8405,32.6657917 33.0131667,32.6272917 33.173,32.5502917 L51.3333333,23.806125 L51.3333333,37.7699583 Z M51.9983333,20.8964583 C51.9971667,20.897625 51.9948333,20.897625 51.9936667,20.897625 L32.6666667,30.204125 L13.3396667,20.897625 C13.3385,20.8964583 13.3361667,20.8964583 13.335,20.8964583 L3.85583333,16.3324583 L32.6666667,2.46079167 L61.4775,16.3324583 L51.9983333,20.8964583 Z M66.5,39.6657917 L61.8333333,39.6657917 L61.8333333,32.6657917 C61.8333333,31.401125 62.902,30.3324583 64.1666667,30.3324583 C65.4313333,30.3324583 66.5,31.401125 66.5,32.6657917 L66.5,39.6657917 Z" id="Shape"></path>
        </g>
    </g>
</svg>