<?xml version="1.0" encoding="UTF-8"?>
<svg width="67px" height="67px" viewBox="0 0 67 67" version="1.1" xmlns="http://www.w3.org/2000/svg" xmlns:xlink="http://www.w3.org/1999/xlink">
    <!-- Generator: Sketch 50 (54983) - http://www.bohemiancoding.com/sketch -->
    <title>Group 17 Copy 2</title>
    <desc>Created with Sketch.</desc>
    <defs></defs>
    <g id="Page-1" stroke="none" stroke-width="1" fill="none" fill-rule="evenodd">
        <g id="Group-17-Copy-2" fill="#222568" fill-rule="nonzero">
            <path d="M5.58333333,46.9 L32.3833333,46.9 L32.3833333,50.2455333 C32.3833333,50.7167667 32.67925,51.13775 33.1225667,51.2963167 C37.1961667,52.75915 41.4506667,53.5318833 45.7665833,53.5955333 C45.9608833,53.5977667 46.1551833,53.6 46.3494833,53.6 C47.2807833,53.6 48.2087333,53.5586833 49.1333333,53.4928 L49.1333333,57.1554667 C47.8368833,57.6177667 46.9,58.8461 46.9,60.3 L46.9,65.8833333 C46.9,66.4997333 47.4002667,67 48.0166667,67 L52.4833333,67 C53.0997333,67 53.6,66.4997333 53.6,65.8833333 L53.6,60.3 C53.6,58.8461 52.6631167,57.6177667 51.3666667,57.1554667 L51.3666667,53.2761667 C54.1505167,52.9154833 56.8908167,52.2544167 59.5607667,51.2963167 C60.0040833,51.1366333 60.3,50.71565 60.3,50.2455333 L60.3,37.2028667 L66.3367,34.5195167 C66.7610333,34.3319167 67.0245667,33.8997667 66.9977667,33.43635 C66.9709667,32.9729333 66.66165,32.5742833 66.21945,32.4347 L58.0666667,29.8607833 L58.0666667,5.58333333 C58.0666667,2.50468333 55.5619833,0 52.4833333,0 L10.05,0 C6.97135,0 4.46666667,2.50468333 4.46666667,5.58333333 L4.46666667,37.9666667 L1.11666667,37.9666667 C0.500266667,37.9666667 0,38.4669333 0,39.0833333 L0,41.3166667 C0,44.3953167 2.50468333,46.9 5.58333333,46.9 Z M51.3666667,64.7666667 L49.1333333,64.7666667 L49.1333333,60.3 C49.1333333,59.6847167 49.6347167,59.1833333 50.25,59.1833333 C50.8652833,59.1833333 51.3666667,59.6847167 51.3666667,60.3 L51.3666667,64.7666667 Z M51.3666667,27.7447 L45.0027833,25.7347 C44.7615833,25.6598833 44.4991667,25.6665833 44.2613167,25.75815 L24.3567333,33.5 L11.1666667,33.5 L11.1666667,6.7 L51.3666667,6.7 L51.3666667,27.7447 Z M45.8000833,51.3622 C41.9911333,51.3063667 38.2324333,50.6642833 34.6166667,49.4515833 L34.6166667,45.7833333 L34.6166667,39.5099 L36.30395,40.1318833 C36.30395,40.1318833 36.30395,40.1318833 36.30395,40.1318833 L45.3969667,43.4818833 C45.5220333,43.52655 45.6526833,43.55 45.7833333,43.55 C45.7889167,43.55 45.7945,43.54665 45.8012,43.54665 C45.9508333,43.5444167 46.0982333,43.5153833 46.2378167,43.4539667 L49.1333333,42.16645 L49.1333333,51.2605833 C48.02895,51.3432167 46.9178667,51.3800667 45.8000833,51.3622 Z M58.0666667,49.4515833 C55.8735333,50.1874667 53.63685,50.7056 51.3666667,51.0182667 L51.3666667,41.1737333 L58.0666667,38.1955833 L58.0666667,49.4515833 Z M58.7310833,35.4575167 C58.7299667,35.4575167 58.7299667,35.4575167 58.7310833,35.4575167 L50.6162667,39.0632333 L45.3634667,34.8612167 L43.96875,36.60545 L48.3181667,40.0849833 L45.74425,41.2295667 L33.8863667,36.86005 C33.8830167,36.8589333 33.8796667,36.8578167 33.8774333,36.8567 L27.72125,34.58875 L44.70575,27.9836667 L62.73545,33.67755 L58.7310833,35.4575167 Z M6.7,5.58333333 C6.7,3.73636667 8.20303333,2.23333333 10.05,2.23333333 L52.4833333,2.23333333 C54.3303,2.23333333 55.8333333,3.73636667 55.8333333,5.58333333 L55.8333333,29.15505 L53.6,28.4493167 L53.6,5.58333333 C53.6,4.96693333 53.0997333,4.46666667 52.4833333,4.46666667 L10.05,4.46666667 C9.4336,4.46666667 8.93333333,4.96693333 8.93333333,5.58333333 L8.93333333,34.6166667 C8.93333333,35.2330667 9.4336,35.7333333 10.05,35.7333333 L24.3667833,35.7333333 L30.4291667,37.9666667 L6.7,37.9666667 L6.7,5.58333333 Z M2.23333333,40.2 L5.58333333,40.2 L32.3833333,40.2 L32.3833333,44.6666667 L5.58333333,44.6666667 C3.73636667,44.6666667 2.23333333,43.1636333 2.23333333,41.3166667 L2.23333333,40.2 Z" id="Shape"></path>
            <path d="M31.2354,14.5166667 C28.4939833,14.5166667 26.0004667,15.9192 24.5666667,18.2686667 L26.4728167,19.4322333 C27.4979167,17.7527667 29.279,16.75 31.2354,16.75 C33.1918,16.75 34.9728833,17.7527667 35.9979833,19.4322333 L37.9041333,18.2686667 C36.4703333,15.9192 33.9768167,14.5166667 31.2354,14.5166667 Z" id="Shape"></path>
            <path d="M31.0344,12.2833333 C34.2157833,12.2833333 37.1436833,13.75175 39.0654667,16.3122667 L40.8521333,14.97115 C38.5026667,11.8433667 34.9248667,10.05 31.0344,10.05 C27.1439333,10.05 23.5661333,11.8433667 21.2166667,14.97115 L23.0033333,16.3122667 C24.9251167,13.75175 27.8530167,12.2833333 31.0344,12.2833333 Z" id="Shape"></path>
            <path d="M31.2666667,18.9833333 C29.4197,18.9833333 27.9166667,20.4863667 27.9166667,22.3333333 L30.15,22.3333333 C30.15,21.71805 30.6513833,21.2166667 31.2666667,21.2166667 C31.88195,21.2166667 32.3833333,21.71805 32.3833333,22.3333333 L34.6166667,22.3333333 C34.6166667,20.4863667 33.1136333,18.9833333 31.2666667,18.9833333 Z" id="Shape"></path>
            <rect id="Rectangle-path" x="30.15" y="24.5666667" width="2.23333333" height="2.23333333"></rect>
            <rect id="Rectangle-path" x="14.5166667" y="49.1333333" width="2.23333333" height="2.23333333"></rect>
            <rect id="Rectangle-path" x="14.5166667" y="53.6" width="2.23333333" height="2.23333333"></rect>
            <rect id="Rectangle-path" x="14.5166667" y="58.0666667" width="2.23333333" height="2.23333333"></rect>
            <rect id="Rectangle-path" x="14.5166667" y="62.5333333" width="2.23333333" height="2.23333333"></rect>
            <rect id="Rectangle-path" x="20.1" y="62.5333333" width="2.23333333" height="2.23333333"></rect>
            <rect id="Rectangle-path" x="24.5666667" y="62.5333333" width="2.23333333" height="2.23333333"></rect>
            <rect id="Rectangle-path" x="29.0333333" y="62.5333333" width="2.23333333" height="2.23333333"></rect>
            <rect id="Rectangle-path" x="33.5" y="62.5333333" width="2.23333333" height="2.23333333"></rect>
            <rect id="Rectangle-path" x="37.9666667" y="62.5333333" width="2.23333333" height="2.23333333"></rect>
            <rect id="Rectangle-path" x="42.4333333" y="62.5333333" width="2.23333333" height="2.23333333"></rect>
            <rect id="Rectangle-path" x="64.7666667" y="40.2" width="2.23333333" height="2.23333333"></rect>
            <rect id="Rectangle-path" x="64.7666667" y="44.6666667" width="2.23333333" height="2.23333333"></rect>
            <rect id="Rectangle-path" x="64.7666667" y="49.1333333" width="2.23333333" height="2.23333333"></rect>
            <rect id="Rectangle-path" x="64.7666667" y="53.6" width="2.23333333" height="2.23333333"></rect>
            <rect id="Rectangle-path" x="64.7666667" y="58.0666667" width="2.23333333" height="2.23333333"></rect>
            <rect id="Rectangle-path" x="64.7666667" y="62.5333333" width="2.23333333" height="2.23333333"></rect>
            <rect id="Rectangle-path" x="60.3" y="62.5333333" width="2.23333333" height="2.23333333"></rect>
            <rect id="Rectangle-path" x="55.8333333" y="62.5333333" width="2.23333333" height="2.23333333"></rect>
        </g>
    </g>
</svg>