<?xml version="1.0" encoding="UTF-8"?>
<svg width="49px" height="47px" viewBox="0 0 49 47" version="1.1" xmlns="http://www.w3.org/2000/svg" xmlns:xlink="http://www.w3.org/1999/xlink">
    <!-- Generator: Sketch 50 (54983) - http://www.bohemiancoding.com/sketch -->
    <title>Group 2</title>
    <desc>Created with Sketch.</desc>
    <defs></defs>
    <g id="Page-1" stroke="none" stroke-width="1" fill="none" fill-rule="evenodd">
        <g id="Cambridge_LP" transform="translate(-681.000000, -720.000000)">
            <g id="Group-2" transform="translate(681.000000, 720.000000)">
                <rect id="Rectangle-9" fill="#F0F0F0" x="0" y="0" width="47" height="47" rx="2"></rect>
                <g id="noun_tick_848505" transform="translate(11.000000, 10.000000)" fill="#E2AF5F" fill-rule="nonzero">
                    <path d="M34.3228119,3.66963274e-07 C33.3482056,-0.000435719798 32.4135575,0.387817329 31.7254725,1.07893583 L14.7121572,18.1122951 L6.2811934,9.66955079 C5.35307901,8.73649978 3.99788496,8.37096302 2.72728958,8.71095561 C1.45669421,9.05094819 0.464268171,10.0446735 0.124720106,11.3169323 C-0.21482796,12.5891911 0.150230879,13.9461593 1.08206197,14.8754887 L12.1125914,25.921202 C12.8018469,26.6119149 13.7370107,27 14.7121572,27 C15.6873036,27 16.6224674,26.6119149 17.3117229,25.921202 L36.9223776,6.28487376 C37.9743324,5.23213895 38.2892008,3.6484643 37.7201063,2.27258576 C37.1510119,0.896707223 35.8100789,-0.000296150736 34.3228119,3.66963274e-07 Z" id="Shape"></path>
                </g>
            </g>
        </g>
    </g>
</svg>