<?xml version="1.0" encoding="UTF-8"?>
<svg width="43px" height="42px" viewBox="0 0 43 42" version="1.1" xmlns="http://www.w3.org/2000/svg" xmlns:xlink="http://www.w3.org/1999/xlink">
    <!-- Generator: Sketch 50 (54983) - http://www.bohemiancoding.com/sketch -->
    <title>Group 15</title>
    <desc>Created with Sketch.</desc>
    <defs></defs>
    <g id="Page-1" stroke="none" stroke-width="1" fill="none" fill-rule="evenodd">
        <g id="Cambridge_LP" transform="translate(-946.000000, -10115.000000)">
            <g id="Group-23" transform="translate(292.000000, 10087.000000)">
                <g id="Group-20" transform="translate(592.000000, 28.000000)">
                    <g id="Group-15" transform="translate(62.000000, 0.000000)">
                        <ellipse id="Oval-7" fill="#E2AF5F" cx="21.0589888" cy="21" rx="21.0589888" ry="21"></ellipse>
                        <path d="M28.4118131,17.7157039 L25.6097248,17.7157039 C25.3766986,17.7157024 25.1625426,17.8443657 25.0523523,18.0505692 C25.0523523,18.0505692 23.9347717,20.1175477 23.5757905,20.8137471 C22.6100541,22.6866018 21.984675,22.0986462 21.984675,21.2294382 L21.984675,18.232395 C21.984675,17.7108752 21.563696,17.2880997 21.0443921,17.2880997 L18.9375972,17.2880997 C18.3542387,17.2445412 17.7900231,17.5074661 17.4464905,17.9829565 C17.4464905,17.9829565 18.5162893,17.8092466 18.5162893,19.2568576 C18.5162893,19.6158227 18.5347003,20.6484781 18.5514763,21.5146073 C18.5579547,21.7760357 18.4013785,22.0137728 18.1592856,22.1100893 C17.9171926,22.2064058 17.6409767,22.1408547 17.4674222,21.9458974 C16.6050785,20.7414108 15.8907703,19.4367222 15.3400192,18.0601818 C15.2434326,17.8499066 15.0337634,17.7153669 14.8031782,17.7157039 C14.1954947,17.7157039 12.9794636,17.7157039 12.257303,17.7157039 C12.115151,17.7147324 11.9815959,17.7839595 11.9000383,17.9008887 C11.8184807,18.0178179 11.7993307,18.1675244 11.8488113,18.301359 C12.621862,20.4308789 15.9519179,27.1229947 19.7528434,27.1229947 L21.3526535,27.1229947 C21.7017107,27.1229899 21.984675,26.8388143 21.984675,26.4882676 L21.984675,25.5181279 C21.9846768,25.2693965 22.1318375,25.0444448 22.3591553,24.9456925 C22.586473,24.8469402 22.850485,24.8932687 23.0309873,25.0635848 L24.9458459,26.8703832 C25.1178158,27.0326487 25.3449064,27.1229845 25.5808734,27.1229947 L28.0954107,27.1229947 C29.3081803,27.1229947 29.3081803,26.2778436 28.6469583,25.6238659 C28.1816155,25.1636185 26.5024216,23.3861023 26.5024216,23.3861023 C26.2053027,23.0769805 26.1769691,22.5964714 26.4356837,22.2542941 C26.9784517,21.5369796 27.8662265,20.3627872 28.2427245,19.8597708 C28.7573564,19.1722347 29.6887659,17.7157039 28.4118131,17.7157039 Z" id="Shape" fill="#FFFFFF" fill-rule="nonzero"></path>
                    </g>
                </g>
            </g>
        </g>
    </g>
</svg>