<?xml version="1.0" encoding="UTF-8"?>
<svg width="64px" height="83px" viewBox="0 0 64 83" version="1.1" xmlns="http://www.w3.org/2000/svg" xmlns:xlink="http://www.w3.org/1999/xlink">
    <!-- Generator: Sketch 50 (54983) - http://www.bohemiancoding.com/sketch -->
    <title>Shape</title>
    <desc>Created with Sketch.</desc>
    <defs></defs>
    <g id="Page-1" stroke="none" stroke-width="1" fill="none" fill-rule="evenodd">
        <g id="Cambridge_LP" transform="translate(-921.000000, -5322.000000)" fill="#E2AF5F" fill-rule="nonzero">
            <g id="noun_play_2218422" transform="translate(921.000000, 5322.000000)">
                <path d="M11.3589474,82.8126316 C5.08557396,82.8126316 6.17050271e-15,77.7270576 0,71.4536842 L0,11.9147368 C0.00547385305,7.65525602 2.39350499,3.75682521 6.18557212,1.81686808 C9.97763925,-0.123089041 14.5363347,0.221514485 17.9936842,2.70947368 L59.0526316,32.4789474 C62.020736,34.6055775 63.7813229,38.032882 63.7813229,41.6842105 C63.7813229,45.335539 62.020736,48.7628435 59.0526316,50.8894737 L17.9936842,80.6589474 C16.0627301,82.0549469 13.7416728,82.8083791 11.3589474,82.8126316 Z M11.3589474,7.50315789 C10.6593544,7.5117871 9.97070613,7.67801255 9.34421053,7.98947368 C7.87247918,8.74499394 6.94713786,10.260408 6.94736842,11.9147368 L6.94736842,71.4536842 C6.94713786,73.1080131 7.87247918,74.6234271 9.34421053,75.3789474 C10.8093131,76.1322746 12.5757773,75.9839455 13.8947368,74.9968421 L55.1273684,45.1578947 C56.2769877,44.3286431 56.9581145,42.9974917 56.9581145,41.58 C56.9581145,40.1625083 56.2769877,38.8313569 55.1273684,38.0021053 L13.8947368,8.37157895 C13.165688,7.81538445 12.2759033,7.51066366 11.3589474,7.50315789 Z" id="Shape"></path>
            </g>
        </g>
    </g>
</svg>