<?xml version="1.0" encoding="UTF-8"?>
<svg width="62px" height="61px" viewBox="0 0 62 61" version="1.1" xmlns="http://www.w3.org/2000/svg" xmlns:xlink="http://www.w3.org/1999/xlink">
    <!-- Generator: Sketch 50 (54983) - http://www.bohemiancoding.com/sketch -->
    <title>Shape</title>
    <desc>Created with Sketch.</desc>
    <defs></defs>
    <g id="Page-1" stroke="none" stroke-width="1" fill="none" fill-rule="evenodd">
        <g id="Cambridge_LP" transform="translate(-737.000000, -6894.000000)" fill="#222568" fill-rule="nonzero">
            <g id="Group-14" transform="translate(683.000000, 6720.000000)">
                <g id="Group-5">
                    <path d="M113.454737,234.825263 C111.953684,234.825263 109.930526,234.368421 108.951579,233.389474 C107.842105,232.28 107.32,230.583158 107.581053,229.016842 C107.711579,228.429474 107.907368,227.842105 108.103158,227.32 C108.364211,226.667368 108.56,226.014737 108.429474,225.753684 C108.364211,225.557895 108.037895,225.362105 107.776842,225.101053 C107.646316,224.970526 107.515789,224.84 107.385263,224.774737 C106.341053,223.795789 105.884211,222.621053 106.210526,221.576842 C106.341053,221.054737 106.732632,220.336842 107.711579,219.814737 C106.341053,218.901053 105.623158,217.269474 106.014737,215.833684 C106.275789,214.985263 106.797895,214.397895 107.254737,213.875789 C107.450526,213.68 107.711579,213.353684 107.776842,213.223158 C107.711579,213.157895 107.450526,212.962105 106.667368,212.635789 C104.317895,211.722105 103.795789,210.416842 103.795789,209.437895 C103.795789,207.545263 105.492632,206.696842 106.536842,206.174737 C107.515789,205.717895 108.364211,205 109.016842,204.151579 C110.322105,202.454737 110.452632,200.888421 110.517895,199.126316 C110.648421,197.233684 110.778947,195.145263 112.736842,193.448421 C113.454737,192.795789 114.76,193.056842 115.086316,194.101053 C115.282105,194.688421 115.021053,195.275789 114.629474,195.667368 C113.650526,196.581053 113.52,197.56 113.454737,199.387368 C113.324211,201.410526 113.128421,203.890526 110.844211,206.501053 C110.061053,207.414737 109.016842,208.197895 107.907368,208.72 L107.842105,208.785263 C107.515789,208.915789 106.928421,209.242105 106.732632,209.437895 C106.863158,209.568421 107.124211,209.698947 107.646316,209.96 C108.429474,210.221053 110.387368,211.004211 110.583158,212.962105 C110.713684,214.267368 109.930526,215.181053 109.343158,215.833684 C109.082105,216.094737 108.821053,216.421053 108.755789,216.616842 C108.690526,216.812632 108.951579,217.204211 109.343158,217.4 C109.995789,217.726316 110.844211,217.726316 111.757895,217.726316 C112.28,217.726316 112.736842,217.987368 112.997895,218.444211 C113.324211,218.966316 113.324211,219.423158 113.063158,219.945263 C112.606316,220.858947 111.170526,221.772632 109.669474,222.294737 C109.408421,222.36 109.212632,222.36 109.082105,222.425263 C109.147368,222.490526 109.212632,222.555789 109.277895,222.621053 C109.408421,222.686316 109.473684,222.816842 109.604211,222.882105 C110.061053,223.273684 110.648421,223.730526 110.974737,224.513684 C111.627368,225.949474 111.170526,227.254737 110.778947,228.364211 C110.648421,228.821053 110.452632,229.212632 110.387368,229.538947 C110.256842,230.191579 110.517895,230.909474 110.974737,231.366316 C111.301053,231.692632 112.997895,232.084211 113.846316,231.953684 C114.629474,231.823158 115.412632,232.345263 115.543158,233.128421 C115.673684,233.911579 115.151579,234.694737 114.368421,234.825263 C114.107368,234.825263 113.781053,234.825263 113.454737,234.825263 Z M57.9810526,223.208421 C57.1326316,223.208421 56.3494737,223.012632 55.5663158,222.621053 C55.0442105,222.36 54.7178947,221.772632 54.7831579,221.12 C54.9789474,220.010526 56.0884211,219.553684 56.9368421,220.010526 C57.5242105,220.336842 58.2421053,220.336842 58.7642105,220.075789 C59.1557895,219.88 59.3515789,219.553684 59.4168421,219.096842 C59.4821053,218.574737 59.2210526,217.856842 58.8947368,217.138947 C58.5031579,216.16 58.0463158,215.115789 58.1115789,213.875789 C58.1768421,212.766316 58.6989474,211.852632 59.1557895,211.069474 C59.5473684,210.416842 59.8736842,209.829474 59.8084211,209.437895 C59.7431579,208.915789 59.1557895,208.458947 58.2421053,207.871579 C57.5894737,207.48 56.9368421,207.023158 56.4147368,206.435789 C56.0884211,206.109474 55.9578947,205.652632 56.0231579,205.195789 C56.1536842,204.347368 57.0021053,203.825263 57.7852632,204.021053 C58.8947368,204.282105 60.7221053,204.216842 61.1136842,203.303158 C61.2442105,203.042105 61.1136842,202.650526 60.7221053,201.932632 C60.3957895,201.28 60.0694737,200.627368 60.0042105,199.713684 C59.8084211,197.429474 61.3747368,196.515789 62.3536842,195.993684 C63.2021053,195.471579 63.3326316,195.341053 63.3326316,194.949474 C63.3978947,193.905263 62.0273684,192.730526 60.7873684,191.621053 C59.8736842,190.837895 58.8947368,189.989474 58.3073684,189.010526 C57.2631579,187.248421 57.2631579,185.094737 57.2631579,183.071579 C57.2631579,180.461053 57.2631579,178.242105 55.24,176.610526 C54.7178947,176.218947 54.4568421,175.501053 54.7178947,174.913684 C55.1094737,174 56.2189474,173.738947 57.0021053,174.326316 C60.1347368,176.871579 60.1347368,180.330526 60.1347368,183.071579 C60.1347368,184.768421 60.1347368,186.4 60.8526316,187.444211 C61.2442105,188.031579 62.0273684,188.684211 62.7452632,189.402105 C64.3768421,190.837895 66.4,192.6 66.2694737,195.08 C66.2042105,197.103158 64.7031579,197.951579 63.8547368,198.473684 C62.9410526,198.995789 62.9410526,199.126316 62.9410526,199.452632 C62.9410526,199.778947 63.1368421,200.170526 63.3978947,200.627368 C63.8547368,201.541053 64.4421053,202.846316 63.8547368,204.347368 C63.3978947,205.456842 62.5494737,206.24 61.44,206.631579 C62.0926316,207.218947 62.6147368,208.067368 62.7452632,209.111579 C62.9410526,210.547368 62.2231579,211.656842 61.7010526,212.570526 C61.3747368,213.157895 61.0484211,213.68 61.0484211,214.071579 C60.9831579,214.593684 61.3094737,215.311579 61.5705263,216.029474 C61.9621053,217.008421 62.4189474,218.117895 62.2884211,219.423158 C62.1578947,220.858947 61.3094737,222.033684 60.0694737,222.686316 C59.5473684,223.077895 58.7642105,223.208421 57.9810526,223.208421 Z M71.4252632,211.787368 C72.5347368,210.873684 73.2526316,209.568421 73.4484211,208.067368 C73.7747368,205.065263 71.5557895,202.389474 68.5536842,202.063158 C67.7052632,201.997895 66.9221053,202.650526 66.9221053,203.564211 C66.9221053,204.282105 67.5094737,204.934737 68.2273684,205 C69.5978947,205.130526 70.6421053,206.435789 70.5115789,207.806316 C70.4463158,208.458947 70.12,209.111579 69.5978947,209.503158 C69.0757895,209.96 68.4231579,210.155789 67.7052632,210.090526 C66.7263158,209.96 65.8778947,210.873684 66.1389474,211.983158 C66.2694737,212.570526 66.7915789,212.962105 67.3789474,213.027368 C67.5747368,213.027368 67.7705263,213.027368 67.9663158,213.027368 C69.2063158,213.027368 70.4463158,212.570526 71.4252632,211.787368 Z M78.2778947,208.589474 C78.8,203.368421 75.0147368,198.669474 69.7284211,198.082105 C68.8147368,198.016842 67.9663158,198.8 68.1621053,199.778947 C68.2926316,200.431579 68.88,200.953684 69.5326316,201.018947 C73.1221053,201.410526 75.7326316,204.673684 75.4063158,208.263158 C75.0147368,211.917895 71.7515789,214.528421 68.1621053,214.202105 C67.2484211,214.071579 66.4652632,214.854737 66.5957895,215.833684 C66.6610526,216.551579 67.3136842,217.008421 67.9663158,217.073684 C68.2926316,217.073684 68.5536842,217.138947 68.88,217.138947 C73.6442105,217.138947 77.8210526,213.484211 78.2778947,208.589474 Z M83.1073684,206.762105 C82.9768421,204.804211 82.3894737,202.846316 81.4105263,201.084211 C79.1915789,197.233684 75.4715789,194.818947 71.1642105,194.296842 C70.4463158,194.231579 69.7936842,194.557895 69.5326316,195.275789 C69.2063158,196.189474 69.8589474,197.103158 70.7726316,197.233684 C77.4947368,197.951579 82.0631579,204.738947 79.5178947,211.591579 C79.1915789,212.505263 78.6694737,213.353684 78.0821053,214.136842 C75.7326316,217.138947 72.2084211,218.64 68.5536842,218.248421 C67.64,218.183158 66.8568421,218.901053 66.9873684,219.88 C67.0526316,220.597895 67.7052632,221.054737 68.4231579,221.12 C68.88,221.185263 69.2715789,221.185263 69.7284211,221.185263 C77.2336842,221.185263 83.6294737,214.789474 83.1073684,206.762105 Z M101.054737,225.949474 C101.250526,225.949474 101.446316,225.949474 101.642105,225.949474 C102.229474,225.884211 102.751579,225.492632 102.882105,224.905263 C103.143158,223.861053 102.294737,222.947368 101.315789,223.012632 C100.663158,223.077895 99.9452632,222.882105 99.4231579,222.425263 C98.64,221.772632 98.2484211,220.728421 98.5747368,219.618947 C98.8357895,218.64 99.7494737,217.987368 100.793684,217.856842 C101.576842,217.791579 102.164211,217.073684 102.033684,216.290526 C101.968421,215.507368 101.250526,214.92 100.402105,214.985263 C97.4,215.311579 95.1810526,217.987368 95.5073684,220.989474 C95.6378947,222.425263 96.3557895,223.730526 97.5305263,224.709474 C98.64,225.557895 99.8147368,225.949474 101.054737,225.949474 Z M100.206316,230.126316 C100.532632,230.126316 100.793684,230.126316 101.12,230.061053 C101.837895,229.995789 102.425263,229.473684 102.490526,228.821053 C102.621053,227.842105 101.772632,227.058947 100.924211,227.189474 C97.2694737,227.515789 94.0063158,224.905263 93.6147368,221.250526 C93.2231579,217.661053 95.8336842,214.397895 99.4884211,214.006316 C100.141053,213.941053 100.728421,213.418947 100.858947,212.766316 C100.989474,211.787368 100.206316,211.004211 99.2926316,211.069474 C94.0715789,211.591579 90.2210526,216.290526 90.7431579,221.576842 C91.2652632,226.471579 95.3768421,230.126316 100.206316,230.126316 Z M99.3578947,234.107368 C99.8147368,234.107368 100.206316,234.107368 100.663158,234.042105 C101.381053,233.976842 101.968421,233.454737 102.098947,232.802105 C102.229474,231.823158 101.446316,231.04 100.532632,231.170526 C96.8778947,231.562105 93.3536842,230.061053 91.0042105,226.993684 C90.4168421,226.275789 89.96,225.427368 89.6336842,224.578947 C87.0231579,217.791579 91.5915789,210.873684 98.3136842,210.155789 C99.0315789,210.090526 99.6189474,209.437895 99.6842105,208.72 C99.6842105,207.806316 98.9010526,207.153684 98.0526316,207.218947 C93.6147368,207.675789 89.6989474,210.286316 87.48,214.397895 C86.6968421,215.833684 86.24,217.4 86.0442105,218.966316 C85.0652632,227.385263 91.5915789,234.107368 99.3578947,234.107368 Z" id="Shape"></path>
                </g>
            </g>
        </g>
    </g>
</svg>