<?xml version="1.0" encoding="UTF-8"?>
<svg width="94px" height="97px" viewBox="0 0 94 97" version="1.1" xmlns="http://www.w3.org/2000/svg" xmlns:xlink="http://www.w3.org/1999/xlink">
    <!-- Generator: Sketch 50 (54983) - http://www.bohemiancoding.com/sketch -->
    <title>Group</title>
    <desc>Created with Sketch.</desc>
    <defs></defs>
    <g id="Page-1" stroke="none" stroke-width="1" fill="none" fill-rule="evenodd">
        <g id="Cambridge_LP" transform="translate(-1428.000000, -4581.000000)" fill="#E2AF5F" fill-rule="nonzero">
            <g id="noun_winner_1870894" transform="translate(1428.000000, 4581.000000)">
                <g id="Group">
                    <path d="M47.8952381,39.0920635 C47.8952381,39.0920635 47.8952381,39.0920635 47.8952381,39.0920635 C47.5968254,38.9428571 47.2984127,38.9428571 47,38.9428571 C46.7015873,38.9428571 46.4031746,39.0920635 46.1047619,39.0920635 C46.1047619,39.0920635 46.1047619,39.0920635 46.1047619,39.0920635 C46.1047619,39.0920635 46.1047619,39.0920635 46.1047619,39.0920635 C45.0603175,39.5396825 44.3142857,40.4349206 44.3142857,41.6285714 C44.3142857,43.1206349 45.5079365,44.3142857 47,44.3142857 C48.4920635,44.3142857 49.6857143,43.1206349 49.6857143,41.6285714 C49.6857143,40.4349206 49.0888889,39.3904762 47.8952381,39.0920635 C48.0444444,39.0920635 47.8952381,39.0920635 47.8952381,39.0920635 Z" id="Shape"></path>
                    <path d="M42.6730159,25.6634921 L46.552381,35.9587302 C46.7015873,35.9587302 46.8507937,35.9587302 47.1492063,35.9587302 C47.447619,35.9587302 47.447619,35.9587302 47.7460317,35.9587302 L51.6253968,25.6634921 L42.6730159,25.6634921 Z" id="Shape"></path>
                    <path d="M24.0222222,21.4857143 C24.3206349,22.3809524 24.768254,23.1269841 25.3650794,23.7238095 L34.615873,32.2285714 L34.615873,78.3333333 C34.615873,81.0190476 36.8539683,83.4063492 39.6888889,83.4063492 C42.5238095,83.4063492 44.7619048,81.168254 44.7619048,78.3333333 L44.7619048,60.4285714 C44.7619048,59.0857143 45.8063492,58.1904762 47,58.1904762 C48.3428571,58.1904762 49.2380952,59.2349206 49.2380952,60.4285714 L49.2380952,78.3333333 C49.2380952,81.0190476 51.4761905,83.4063492 54.3111111,83.4063492 C57.1460317,83.4063492 59.384127,81.168254 59.384127,78.3333333 L59.384127,32.2285714 L68.6349206,23.7238095 C69.231746,23.1269841 69.8285714,22.3809524 69.9777778,21.4857143 L74.0063492,6.56507937 C74.752381,3.58095238 72.5142857,0.596825397 69.5301587,0.596825397 C67.4412698,0.596825397 65.5015873,2.08888889 65.0539683,4.02857143 L61.3238095,17.6063492 L54.4603175,23.8730159 C54.7587302,24.3206349 54.9079365,24.768254 54.6095238,25.3650794 L50.2825397,36.8539683 C51.7746032,37.8984127 52.6698413,39.5396825 52.6698413,41.4793651 C52.6698413,44.6126984 50.1333333,47.1492063 47,47.1492063 C43.8666667,47.1492063 41.3301587,44.6126984 41.3301587,41.4793651 C41.3301587,39.5396825 42.2253968,37.8984127 43.7174603,36.8539683 L39.3904762,25.3650794 C39.2412698,24.9174603 39.2412698,24.3206349 39.5396825,24.0222222 L32.6761905,17.7555556 L28.9460317,4.17777778 C28.3492063,1.79047619 25.6634921,0.298412698 23.2761905,0.895238095 C20.8888889,1.49206349 19.247619,4.02857143 19.9936508,6.71428571 L24.0222222,21.4857143 Z" id="Shape"></path>
                    <path d="M47,22.3809524 C52.0730159,22.3809524 56.2507937,18.2031746 56.2507937,13.1301587 C56.2507937,8.05714286 52.0730159,3.87936508 47,3.87936508 C41.9269841,3.87936508 37.7492063,8.05714286 37.7492063,13.1301587 C37.7492063,18.2031746 41.9269841,22.3809524 47,22.3809524 Z" id="Shape"></path>
                    <path d="M92.2095238,93.2539683 L66.5460317,93.4031746 L66.5460317,89.2253968 C66.5460317,87.584127 65.2031746,86.3904762 63.7111111,86.3904762 L29.6920635,86.3904762 C28.0507937,86.3904762 26.8571429,87.7333333 26.8571429,89.2253968 L27.0063492,93.4031746 L1.79047619,93.4031746 C0.895238095,93.4031746 0.298412698,94 0.298412698,94.8952381 C0.298412698,95.7904762 0.895238095,96.3873016 1.79047619,96.3873016 L26.8571429,96.3873016 C28.4984127,96.3873016 29.6920635,95.0444444 29.6920635,93.552381 L29.5428571,89.3746032 L63.4126984,89.2253968 L63.4126984,93.4031746 C63.4126984,95.0444444 64.7555556,96.2380952 66.247619,96.2380952 L92.0603175,96.2380952 C92.9555556,96.2380952 93.552381,95.6412698 93.552381,94.7460317 C93.552381,93.8507937 93.1047619,93.2539683 92.2095238,93.2539683 Z" id="Shape"></path>
                </g>
            </g>
        </g>
    </g>
</svg>