<?xml version="1.0" encoding="UTF-8"?>
<svg width="71px" height="71px" viewBox="0 0 71 71" version="1.1" xmlns="http://www.w3.org/2000/svg" xmlns:xlink="http://www.w3.org/1999/xlink">
    <!-- Generator: Sketch 50 (54983) - http://www.bohemiancoding.com/sketch -->
    <title>Group 21</title>
    <desc>Created with Sketch.</desc>
    <defs></defs>
    <g id="Page-1" stroke="none" stroke-width="1" fill="none" fill-rule="evenodd">
        <g id="Group-21" fill="#222568" fill-rule="nonzero">
            <path d="M43.7833333,35.5 L27.2166667,35.5 C26.5634667,35.5 26.0333333,36.0301333 26.0333333,36.6833333 L26.0333333,52.0666667 L18.9333333,52.0666667 C18.2801333,52.0666667 17.75,52.5968 17.75,53.25 L17.75,69.8166667 C17.75,70.4698667 18.2801333,71 18.9333333,71 L35.5,71 L52.0666667,71 C52.7198667,71 53.25,70.4698667 53.25,69.8166667 L53.25,53.25 C53.25,52.5968 52.7198667,52.0666667 52.0666667,52.0666667 L44.9666667,52.0666667 L44.9666667,36.6833333 C44.9666667,36.0301333 44.4365333,35.5 43.7833333,35.5 Z M28.4,37.8666667 L42.6,37.8666667 L42.6,52.0666667 L35.5,52.0666667 L28.4,52.0666667 L28.4,37.8666667 Z M20.1166667,54.4333333 L27.2166667,54.4333333 L34.3166667,54.4333333 L34.3166667,68.6333333 L20.1166667,68.6333333 L20.1166667,54.4333333 Z M50.8833333,68.6333333 L36.6833333,68.6333333 L36.6833333,54.4333333 L43.7833333,54.4333333 L50.8833333,54.4333333 L50.8833333,68.6333333 Z" id="Shape"></path>
            <path d="M40.0803279,47.8767792 C40.2909612,47.5063958 40.2850446,47.0508125 40.0649446,46.6851625 L36.5149446,40.7684958 C36.0877612,40.0549458 34.9127112,40.0549458 34.4855279,40.7684958 L30.9355279,46.6851625 C30.7154279,47.0508125 30.7106946,47.5063958 30.9201446,47.8767792 C31.1307779,48.2471625 31.5248279,48.4767292 31.9508279,48.4767292 L39.0508279,48.4767292 C39.4768279,48.4767292 39.8708779,48.2471625 40.0803279,47.8767792 Z M34.0405946,46.1100625 L35.5008279,43.6771292 L36.9610612,46.1100625 L34.0405946,46.1100625 Z" id="Shape"></path>
            <path d="M27.2166667,56.8 C24.6062333,56.8 22.4833333,58.9229 22.4833333,61.5333333 C22.4833333,64.1437667 24.6062333,66.2666667 27.2166667,66.2666667 C29.8271,66.2666667 31.95,64.1437667 31.95,61.5333333 C31.95,58.9229 29.8271,56.8 27.2166667,56.8 Z M27.2166667,63.9 C25.91145,63.9 24.85,62.83855 24.85,61.5333333 C24.85,60.2281167 25.91145,59.1666667 27.2166667,59.1666667 C28.5218833,59.1666667 29.5833333,60.2281167 29.5833333,61.5333333 C29.5833333,62.83855 28.5218833,63.9 27.2166667,63.9 Z" id="Shape"></path>
            <path d="M42.9470125,57.1470125 L39.3970125,60.6970125 C38.9343292,61.1596958 38.9343292,61.9075625 39.3970125,62.3702458 L42.9470125,65.9202458 C43.1777625,66.1509958 43.4806958,66.2669625 43.7836292,66.2669625 C44.0865625,66.2669625 44.3894958,66.1509958 44.6202458,65.9202458 L48.1702458,62.3702458 C48.6329292,61.9075625 48.6329292,61.1596958 48.1702458,60.6970125 L44.6202458,57.1470125 C44.1575625,56.6843292 43.4096958,56.6843292 42.9470125,57.1470125 Z M45.6603958,61.5336292 L43.7836292,63.4103958 L41.9068625,61.5336292 L43.7836292,59.6568625 L45.6603958,61.5336292 Z" id="Shape"></path>
            <path d="M68.2494879,16.8920833 L70.1972546,10.0772667 C70.5901212,8.70105 70.0540712,7.24436667 68.8648212,6.45271667 C68.0080879,5.88235 66.9584712,5.74508333 65.9845879,6.07996667 C65.0107046,6.41485 64.2652046,7.16626667 63.9397879,8.14251667 L62.5943379,12.1788667 L59.7638046,13.5941333 L59.5200379,12.7823667 C61.2512546,11.48425 62.3789712,9.42406667 62.3789712,7.1 C62.3789712,3.18435 59.1946212,0 55.2789712,0 C51.3633212,0 48.1789712,3.18435 48.1789712,7.1 C48.1789712,9.42406667 49.3066879,11.48425 51.0379046,12.78 L50.7941379,13.5917667 L47.9636046,12.1765 L46.6181546,8.14015 C46.2927379,7.1639 45.5472379,6.41248333 44.5733546,6.0776 C43.5982879,5.74271667 42.5498546,5.87998333 41.6931212,6.45035 C40.5038712,7.24318333 39.9678212,8.69986667 40.3606879,10.0760833 L42.3084546,16.8909 C42.3995712,17.2104 42.6208546,17.4754667 42.9166879,17.6245667 L48.7150212,20.5237333 L44.6798546,33.97705 C44.5721712,34.3356 44.6408046,34.72255 44.8644546,35.0231167 C45.0857379,35.3236833 45.4383712,35.5 45.8123046,35.5 L46.9956379,35.5 L46.9956379,44.9666667 C46.9956379,46.9239 48.5884046,48.5166667 50.5456379,48.5166667 C52.5028712,48.5166667 54.0956379,46.9239 54.0956379,44.9666667 L54.0956379,35.5 L56.4623046,35.5 L56.4623046,44.9666667 C56.4623046,46.9239 58.0550712,48.5166667 60.0123046,48.5166667 C61.9695379,48.5166667 63.5623046,46.9239 63.5623046,44.9666667 L63.5623046,35.5 L64.7456379,35.5 C65.1195712,35.5 65.4722046,35.3236833 65.6946712,35.0231167 C65.9183212,34.72255 65.9869546,34.3344167 65.8792712,33.97705 L61.8441046,20.5237333 L67.6424379,17.6245667 C67.9382712,17.47665 68.1583712,17.2104 68.2494879,16.8920833 Z M55.2789712,2.36666667 C57.8894046,2.36666667 60.0123046,4.48956667 60.0123046,7.1 C60.0123046,8.87381667 59.0194879,10.40505 57.5710879,11.2156333 C57.5663546,11.218 57.5592546,11.218 57.5545212,11.2203667 C57.2196379,11.4049667 56.8776546,11.5434167 56.5321212,11.644 C56.4895212,11.6558333 56.4492879,11.6724 56.4066879,11.68305 C56.2824379,11.715 56.1570046,11.7363 56.0327546,11.7576 C55.8126546,11.7931 55.5901879,11.8215 55.3618046,11.82505 C55.3073712,11.8262333 55.2517546,11.8262333 55.1973212,11.82505 C54.9689379,11.8215 54.7464712,11.7931 54.5263712,11.7576 C54.4009379,11.7363 54.2766879,11.715 54.1524379,11.68305 C54.1098379,11.6724 54.0696046,11.6558333 54.0270046,11.644 C53.6814712,11.5434167 53.3394879,11.40615 53.0046046,11.2203667 C52.9998712,11.218 52.9927712,11.218 52.9880379,11.2156333 C51.5384546,10.40505 50.5456379,8.87381667 50.5456379,7.1 C50.5456379,4.48956667 52.6685379,2.36666667 55.2789712,2.36666667 Z M44.4408212,15.7407 L42.6374212,9.42761667 C42.5285546,9.0454 42.6764712,8.6407 43.0066212,8.4206 C43.2444712,8.26321667 43.5355712,8.22535 43.8053712,8.31765 C44.0763546,8.40995 44.2822546,8.61821667 44.3721879,8.89038333 L45.8726546,13.3917833 C45.9720546,13.6888 46.1850546,13.9349333 46.4655046,14.07575 L50.1030712,15.8945333 L49.4037212,18.2245167 L44.4408212,15.7407 Z M51.7289712,44.9666667 C51.7289712,45.6186833 51.1976546,46.15 50.5456379,46.15 C49.8936212,46.15 49.3623046,45.6186833 49.3623046,44.9666667 L49.3623046,35.5 L51.7289712,35.5 L51.7289712,44.9666667 Z M61.1956379,44.9666667 C61.1956379,45.6186833 60.6643212,46.15 60.0123046,46.15 C59.3602879,46.15 58.8289712,45.6186833 58.8289712,44.9666667 L58.8289712,35.5 L61.1956379,35.5 L61.1956379,44.9666667 Z M62.3789712,33.1333333 L57.6456379,33.1333333 L52.9123046,33.1333333 L48.1789712,33.1333333 L47.4027046,33.1333333 L51.2674712,20.2515667 C51.2674712,20.2515667 51.2674712,20.2503833 51.2686546,20.2503833 L52.6578879,15.62 C52.6578879,15.62 52.6578879,15.6188167 52.6578879,15.6188167 L53.1785546,13.8828667 C53.5004212,13.9822667 53.8341212,14.0520833 54.1737379,14.1053333 C54.2092379,14.11125 54.2435546,14.1159833 54.2790546,14.1219 C54.6056546,14.16805 54.9381712,14.2 55.2789712,14.2 C55.6197712,14.2 55.9522879,14.16805 56.2800712,14.1207167 C56.3155712,14.1159833 56.3498879,14.1100667 56.3853879,14.10415 C56.7250046,14.0509 57.0587046,13.9810833 57.3805712,13.8816833 L57.9012379,15.6176333 C57.9012379,15.6176333 57.9012379,15.6188167 57.9012379,15.6188167 L59.2904712,20.2492 C59.2904712,20.2492 59.2904712,20.2503833 59.2916546,20.2503833 L63.1552379,33.1333333 L62.3789712,33.1333333 Z M61.1530379,18.2233333 L60.4536879,15.89335 L64.0912546,14.0745667 C64.3717046,13.93375 64.5847046,13.6876167 64.6841046,13.3906 L66.1845712,8.8892 C66.2745046,8.61821667 66.4815879,8.40876667 66.7513879,8.31646667 C67.0211879,8.22416667 67.3134712,8.26203333 67.5501379,8.41941667 C67.8802879,8.63951667 68.0282046,9.04421667 67.9205212,9.42525 L66.1159379,15.7395167 L61.1530379,18.2233333 Z" id="Shape"></path>
            <path d="M0.12688088,10.0772667 L2.07464755,16.8920833 C2.16576421,17.2115833 2.38704755,17.47665 2.68288088,17.62575 L7.92978088,20.2492 L6.83401421,23.26315 C6.80088088,23.35545 6.77958088,23.4501167 6.77011421,23.5459667 C6.77011421,23.54715 6.76893088,23.5483333 6.76893088,23.5495167 L5.58559755,35.38285 C5.55246421,35.7153667 5.66133088,36.0467 5.88616421,36.2952 C6.10863088,36.5413333 6.42694755,36.6833333 6.76183088,36.6833333 L6.76183088,43.7833333 C6.76183088,45.7405667 8.35459755,47.3333333 10.3118309,47.3333333 C12.2690642,47.3333333 13.8618309,45.7405667 13.8618309,43.7833333 L13.8618309,36.6833333 L16.2284975,36.6833333 L16.2284975,43.7833333 C16.2284975,45.7405667 17.8212642,47.3333333 19.7784975,47.3333333 C21.7357309,47.3333333 23.3284975,45.7405667 23.3284975,43.7833333 L23.3284975,36.6833333 C23.6633809,36.6833333 23.9816975,36.5413333 24.2053475,36.2940167 C24.4301809,36.0467 24.5390475,35.7153667 24.5059142,35.3816667 L23.3225809,23.5483333 C23.3225809,23.54715 23.3213975,23.5459667 23.3213975,23.5447833 C23.3119309,23.4489333 23.2906309,23.3542667 23.2574975,23.2607833 L22.1617309,20.2468333 L27.4086309,17.6233833 C27.7044642,17.4754667 27.9257475,17.2092167 28.0168642,16.8897167 L29.9646309,10.0749 C30.3574975,8.69868333 29.8214475,7.242 28.6321975,6.45035 C27.7754642,5.87998333 26.7258475,5.74271667 25.7519642,6.0776 C24.7780809,6.41248333 24.0325809,7.1639 23.7071642,8.14015 L22.3617142,12.1765 L19.7098642,13.5018333 L19.4128475,12.6853333 C21.0718809,11.3860333 22.1451642,9.36845 22.1451642,7.1 C22.1451642,3.18435 18.9608142,0 15.0451642,0 C11.1295142,0 7.94516421,3.18435 7.94516421,7.1 C7.94516421,9.36845 9.01844755,11.3860333 10.6786642,12.6865167 L10.3816475,13.5030167 L7.72979755,12.1776833 L6.38434755,8.14133333 C6.05893088,7.16508333 5.31343088,6.41366667 4.33954755,6.07878333 C3.36448088,5.7439 2.31604755,5.88116667 1.45931421,6.45153333 C0.270064213,7.24436667 -0.264802454,8.70105 0.12688088,10.0772667 Z M22.0209142,34.3166667 L17.4118309,34.3166667 L16.2284975,34.3166667 L16.2284975,30.7666667 L13.8618309,30.7666667 L13.8618309,34.3166667 L12.6784975,34.3166667 L8.06941421,34.3166667 L9.01608088,24.85 L21.0742475,24.85 L22.0209142,34.3166667 Z M11.4951642,43.7833333 C11.4951642,44.43535 10.9638475,44.9666667 10.3118309,44.9666667 C9.65981421,44.9666667 9.12849755,44.43535 9.12849755,43.7833333 L9.12849755,36.6833333 L11.4951642,36.6833333 L11.4951642,43.7833333 Z M20.9618309,43.7833333 C20.9618309,44.43535 20.4305142,44.9666667 19.7784975,44.9666667 C19.1264809,44.9666667 18.5951642,44.43535 18.5951642,43.7833333 L18.5951642,36.6833333 L20.9618309,36.6833333 L20.9618309,43.7833333 Z M23.8574475,14.07575 C24.1378975,13.9349333 24.3508975,13.6888 24.4502975,13.3917833 L25.9507642,8.89038333 C26.0406975,8.6194 26.2477809,8.40995 26.5175809,8.31765 C26.7873809,8.22535 27.0784809,8.26321667 27.3163309,8.4206 C27.6464809,8.6407 27.7943975,9.0454 27.6867142,9.42643333 L25.8821309,15.7407 L21.3464142,18.00915 L21.2860642,17.8434833 L20.5216309,15.7418833 L23.8574475,14.07575 Z M15.0451642,2.36666667 C17.6555975,2.36666667 19.7784975,4.48956667 19.7784975,7.1 C19.7784975,8.8466 18.8164475,10.3589 17.4047309,11.17895 C17.3999975,11.1813167 17.3940809,11.1813167 17.3893475,11.1836833 C17.0651142,11.37065 16.7314142,11.5079167 16.3929809,11.6144167 C16.3231642,11.6357167 16.2557142,11.66175 16.1835309,11.6795 C16.0592809,11.7126333 15.9338475,11.7339333 15.8072309,11.7564167 C15.5859475,11.7931 15.3622975,11.8203167 15.1315475,11.82505 C15.0735642,11.8262333 15.0167642,11.8262333 14.9587809,11.82505 C14.7280309,11.8203167 14.5043809,11.7931 14.2830975,11.7564167 C14.1576642,11.7351167 14.0322309,11.7126333 13.9067975,11.6795 C13.8357975,11.66175 13.7683475,11.6357167 13.6985309,11.6144167 C13.3600975,11.5091 13.0252142,11.37065 12.7009809,11.1836833 C12.6962475,11.1813167 12.6903309,11.1813167 12.6855975,11.17895 C11.2738809,10.3589 10.3118309,8.8466 10.3118309,7.1 C10.3118309,4.48956667 12.4347309,2.36666667 15.0451642,2.36666667 Z M13.8701142,14.0946833 C13.8973309,14.0994167 13.9257309,14.1029667 13.9529475,14.1077 C14.3103142,14.1621333 14.6735975,14.2 15.0451642,14.2 C15.4167309,14.2 15.7800142,14.1621333 16.1361975,14.1077 C16.1634142,14.1029667 16.1918142,14.0994167 16.2190309,14.0946833 C16.5917809,14.0319667 16.9550642,13.9432167 17.3053309,13.8248833 L18.7892309,17.9050167 L19.5749642,20.0669667 C19.5749642,20.0669667 19.5749642,20.0669667 19.5749642,20.06815 L20.4553642,22.4833333 L9.63496421,22.4833333 L10.5141809,20.0669667 C10.5141809,20.0669667 10.5141809,20.0669667 10.5141809,20.0657833 L11.2999142,17.9038333 L12.7838142,13.8237 C13.1340809,13.9432167 13.4973642,14.0319667 13.8701142,14.0946833 Z M2.77163088,8.4206 C3.00948088,8.26321667 3.30058088,8.22535 3.57038088,8.31765 C3.84136421,8.40995 4.04726421,8.61821667 4.13719755,8.89038333 L5.63766421,13.3917833 C5.73706421,13.6888 5.95006421,13.9349333 6.23051421,14.07575 L9.56514755,15.7430667 L8.80071421,17.8446667 L8.74036421,18.0103333 L4.20464755,15.7418833 L2.40124755,9.4288 C2.29356421,9.0454 2.44266421,8.6407 2.77163088,8.4206 Z" id="Shape"></path>
        </g>
    </g>
</svg>