<svg width="404" height="313" xmlns="http://www.w3.org/2000/svg" xmlns:xlink="http://www.w3.org/1999/xlink"><svg width="43" height="42" id="L1VzZXJzL2t1a2tvbWFoL3Byb2plY3RzL2NhbWJyaWRnZS9zcmMvaW1hZ2VzL3Nwcml0ZS12ay5zdmc=" x="337" y="222" xmlns="http://www.w3.org/2000/svg"><g fill="none" fill-rule="evenodd"><ellipse fill="#E2AF5F" cx="21.059" cy="21" rx="21.059" ry="21"/><path d="M28.412 17.716H25.61a.632.632 0 0 0-.558.335s-1.117 2.067-1.476 2.763c-.966 1.873-1.591 1.285-1.591.415v-2.997a.942.942 0 0 0-.94-.944h-2.107a1.685 1.685 0 0 0-1.492.695s1.07-.174 1.07 1.274c0 .359.019 1.391.035 2.258a.62.62 0 1 1-1.084.431 18.445 18.445 0 0 1-2.127-3.886.59.59 0 0 0-.537-.344h-2.546a.432.432 0 0 0-.408.585c.773 2.13 4.103 8.822 7.904 8.822h1.6a.633.633 0 0 0 .632-.635v-.97a.62.62 0 1 1 1.046-.455l1.915 1.807a.922.922 0 0 0 .635.253h2.514c1.213 0 1.213-.845.552-1.5-.465-.46-2.145-2.237-2.145-2.237a.874.874 0 0 1-.066-1.132 822.38 822.38 0 0 0 1.807-2.394c.514-.688 1.446-2.144.169-2.144z" fill="#FFF" fill-rule="nonzero"/></g></svg><svg width="25" height="31" id="L1VzZXJzL2t1a2tvbWFoL3Byb2plY3RzL2NhbWJyaWRnZS9zcmMvaW1hZ2VzL3Nwcml0ZS1hZHZhbnRhZ2VzLXNsaWRlLnN2Zw==" x="206" y="172" xmlns="http://www.w3.org/2000/svg"><path d="M1 0h23a1 1 0 0 1 1 1v29a1 1 0 0 1-1.617.787l-7.334-5.745H1a1 1 0 0 1-1-1V1a1 1 0 0 1 1-1z" fill="#E2AF5F" fill-rule="evenodd"/></svg><svg width="15" height="10" id="L1VzZXJzL2t1a2tvbWFoL3Byb2plY3RzL2NhbWJyaWRnZS9zcmMvaW1hZ2VzL3Nwcml0ZS1hcnJvdy10b3Auc3Zn" x="386" y="137" xmlns="http://www.w3.org/2000/svg"><path d="M7.5 0L0 7.765l1.65 1.709L7.5 3.417l5.85 6.057L15 7.765z" fill="#E7A53C"/></svg><svg width="15" height="9" id="L1VzZXJzL2t1a2tvbWFoL3Byb2plY3RzL2NhbWJyaWRnZS9zcmMvaW1hZ2VzL3Nwcml0ZS1hcnJvdy1kb3duLWJsYWNrLnN2Zw==" x="386" y="128" xmlns="http://www.w3.org/2000/svg"><path d="M7.5 9L0 1.623 1.65 0 7.5 5.754 13.35 0 15 1.623z" fill="#2E2E2E"/></svg><svg width="9" height="6" id="L1VzZXJzL2t1a2tvbWFoL3Byb2plY3RzL2NhbWJyaWRnZS9zcmMvaW1hZ2VzL3Nwcml0ZS1hcnJvdy1kb3duLXNtYWxsLnN2Zw==" x="386" y="147" xmlns="http://www.w3.org/2000/svg"><path d="M4.5 5.726L0 1.09.99.07 4.5 3.686 8.01.07 9 1.09z" fill="#E2AF5F"/></svg><svg width="40" height="13" id="L1VzZXJzL2t1a2tvbWFoL3Byb2plY3RzL2NhbWJyaWRnZS9zcmMvaW1hZ2VzL3Nwcml0ZS1hcnJvdy1kb3duLXdoaXRlLnN2Zw==" x="296" y="211" xmlns="http://www.w3.org/2000/svg"><path d="M3 3l17.197 7L37 3" stroke="#FFF" stroke-width="5" fill="none" fill-rule="evenodd" stroke-linecap="round"/></svg><svg width="19" height="12" id="L1VzZXJzL2t1a2tvbWFoL3Byb2plY3RzL2NhbWJyaWRnZS9zcmMvaW1hZ2VzL3Nwcml0ZS1hcnJvdy1kb3duLnN2Zw==" x="384" y="175" xmlns="http://www.w3.org/2000/svg"><path d="M9.5 12L0 2.164 2.09 0 9.5 7.672 16.91 0 19 2.164z" fill="#E7A53C"/></svg><svg width="47" height="47" id="L1VzZXJzL2t1a2tvbWFoL3Byb2plY3RzL2NhbWJyaWRnZS9zcmMvaW1hZ2VzL3Nwcml0ZS1hcnJvdy5zdmc=" x="337" y="175" xmlns="http://www.w3.org/2000/svg"><g fill="none" fill-rule="evenodd"><circle fill="#EDA430" cx="23.5" cy="23.5" r="23.5"/><path d="M29.346 23.846l-9.584-9.5-2.108 2.09 7.475 7.41-7.475 7.41 2.108 2.09z" fill="#FFF" fill-rule="nonzero"/></g></svg><svg width="49" height="47" id="L1VzZXJzL2t1a2tvbWFoL3Byb2plY3RzL2NhbWJyaWRnZS9zcmMvaW1hZ2VzL3Nwcml0ZS1idWxsZXQuc3Zn" x="337" y="128" xmlns="http://www.w3.org/2000/svg"><g fill="none" fill-rule="evenodd"><rect fill="#F0F0F0" width="47" height="47" rx="2"/><path d="M45.323 10c-.975 0-1.91.388-2.598 1.079L25.712 28.112l-8.43-8.442a3.673 3.673 0 0 0-6.157 1.647 3.684 3.684 0 0 0 .957 3.558l11.03 11.046a3.672 3.672 0 0 0 5.2 0l19.61-19.636a3.685 3.685 0 0 0 .798-4.012A3.676 3.676 0 0 0 45.323 10z" fill="#E2AF5F" fill-rule="nonzero"/></g></svg><svg width="43" height="42" id="L1VzZXJzL2t1a2tvbWFoL3Byb2plY3RzL2NhbWJyaWRnZS9zcmMvaW1hZ2VzL3Nwcml0ZS1mYi5zdmc=" x="337" y="264" xmlns="http://www.w3.org/2000/svg"><g fill="none" fill-rule="evenodd"><ellipse fill="#E2AF5F" cx="21.059" cy="21" rx="21.059" ry="21"/><path d="M24.893 18.096h-2.748v-1.64c0-.453.378-.82.845-.82h1.692v-2.46h-2.115c-1.868 0-3.383 1.469-3.383 3.28v1.64h-1.691v2.46h1.691v7.38h2.96v-7.38h2.115l.634-2.46z" fill="#FFF" fill-rule="nonzero"/></g></svg><svg width="30" height="42" id="L1VzZXJzL2t1a2tvbWFoL3Byb2plY3RzL2NhbWJyaWRnZS9zcmMvaW1hZ2VzL3Nwcml0ZS1saWNlbnNlLnN2Zw==" x="266" y="211" xmlns="http://www.w3.org/2000/svg"><path d="M0 .484v40.645h30V.484H0zm4.355 3.87h21.29a.968.968 0 1 1 0 1.936H4.355a.968.968 0 0 1 0-1.935zm0 4.356h21.29a.968.968 0 1 1 0 1.935H4.355a.968.968 0 0 1 0-1.935zm0 4.355h21.29a.968.968 0 1 1 0 1.935H4.355a.968.968 0 0 1 0-1.935zM15 18.387a5.323 5.323 0 1 1 0 10.645 5.323 5.323 0 0 1 0-10.645zm-3.387 10.615c.98.631 2.14.998 3.387.998a6.227 6.227 0 0 0 3.387-.998v6.804L15 32.903l-3.387 2.903v-6.804z" fill="#E2AF5F"/></svg><svg width="31" height="31" id="L1VzZXJzL2t1a2tvbWFoL3Byb2plY3RzL2NhbWJyaWRnZS9zcmMvaW1hZ2VzL3Nwcml0ZS1tZW51LWNsb3NlLnN2Zw==" x="231" y="172" xmlns="http://www.w3.org/2000/svg"><path d="M15.5 13.379L28.228.65l2.121 2.121L17.621 15.5 30.35 28.228l-2.121 2.121L15.5 17.621 2.772 30.35.651 28.228 13.379 15.5.65 2.772 2.772.651 15.5 13.379z" fill="#FFF" fill-rule="evenodd"/></svg><svg width="39" height="26" id="L1VzZXJzL2t1a2tvbWFoL3Byb2plY3RzL2NhbWJyaWRnZS9zcmMvaW1hZ2VzL3Nwcml0ZS1tZW51LnN2Zw==" x="296" y="224" xmlns="http://www.w3.org/2000/svg"><path d="M0 0h31.2v3H0zm0 11h39v3H0zm0 12h31.2v3H0z" fill="#FFF" fill-rule="evenodd"/></svg><svg width="19" height="19" id="L1VzZXJzL2t1a2tvbWFoL3Byb2plY3RzL2NhbWJyaWRnZS9zcmMvaW1hZ2VzL3Nwcml0ZS1ub3RlLnN2Zw==" x="384" y="187" xmlns="http://www.w3.org/2000/svg"><path d="M9.5 0C4.275 0 0 4.275 0 9.5S4.275 19 9.5 19 19 14.725 19 9.5 14.725 0 9.5 0zm1.096 14.25H8.404v-1.827h2.192v1.827zm0-4.02H8.404V4.386h2.192v5.846z" fill="#E2AF5F"/></svg><svg width="64" height="83" id="L1VzZXJzL2t1a2tvbWFoL3Byb2plY3RzL2NhbWJyaWRnZS9zcmMvaW1hZ2VzL3Nwcml0ZS1wbGF5LnN2Zw==" y="172" xmlns="http://www.w3.org/2000/svg"><path d="M11.359 82.813C5.086 82.813 0 77.727 0 71.453V11.916A11.359 11.359 0 0 1 17.994 2.71l41.059 29.77a11.324 11.324 0 0 1 0 18.41l-41.06 29.77a11.359 11.359 0 0 1-6.634 2.154zm0-75.31c-.7.009-1.388.175-2.015.486a4.412 4.412 0 0 0-2.397 3.926v59.539c0 1.654.925 3.17 2.397 3.925a4.307 4.307 0 0 0 4.55-.382l41.233-29.84a4.412 4.412 0 0 0 0-7.155L13.895 8.372a4.238 4.238 0 0 0-2.536-.869z" fill="#E2AF5F"/></svg><svg width="94" height="97" id="L1VzZXJzL2t1a2tvbWFoL3Byb2plY3RzL2NhbWJyaWRnZS9zcmMvaW1hZ2VzL3Nwcml0ZS1wcml6ZS5zdmc=" x="172" xmlns="http://www.w3.org/2000/svg"><g fill="#E2AF5F"><path d="M47.895 39.092c-.298-.15-.597-.15-.895-.15-.298 0-.597.15-.895.15-1.045.448-1.79 1.343-1.79 2.537A2.675 2.675 0 0 0 47 44.314a2.675 2.675 0 0 0 2.686-2.685c0-1.194-.597-2.239-1.79-2.537.148 0 0 0 0 0zm-5.222-13.429l3.88 10.296h1.193l3.88-10.296h-8.953z"/><path d="M24.022 21.486c.299.895.746 1.641 1.343 2.238l9.25 8.505v46.104c0 2.686 2.239 5.073 5.074 5.073a5.031 5.031 0 0 0 5.073-5.073V60.43c0-1.343 1.044-2.239 2.238-2.239 1.343 0 2.238 1.045 2.238 2.239v17.904c0 2.686 2.238 5.073 5.073 5.073a5.031 5.031 0 0 0 5.073-5.073V32.23l9.25-8.505c.598-.597 1.195-1.343 1.344-2.238l4.028-14.92c.746-2.985-1.492-5.97-4.476-5.97-2.089 0-4.028 1.493-4.476 3.433l-3.73 13.577-6.864 6.267c.299.448.448.895.15 1.492l-4.327 11.489c1.492 1.044 2.387 2.686 2.387 4.625A5.667 5.667 0 0 1 47 47.15a5.667 5.667 0 0 1-5.67-5.67c0-1.94.895-3.58 2.387-4.625l-4.327-11.49c-.149-.448-.149-1.044.15-1.343l-6.864-6.266-3.73-13.578c-.597-2.388-3.283-3.88-5.67-3.283s-4.028 3.134-3.282 5.82l4.028 14.77z"/><path d="M47 22.381c5.073 0 9.25-4.178 9.25-9.25 0-5.074-4.177-9.252-9.25-9.252s-9.25 4.178-9.25 9.251c0 5.073 4.177 9.251 9.25 9.251zm45.21 70.873l-25.664.15v-4.179c0-1.64-1.343-2.835-2.835-2.835H29.692c-1.641 0-2.835 1.343-2.835 2.835l.15 4.178H1.79c-.895 0-1.492.597-1.492 1.492s.597 1.492 1.492 1.492h25.067c1.641 0 2.835-1.343 2.835-2.835l-.15-4.177 33.87-.15v4.178c0 1.641 1.344 2.835 2.836 2.835H92.06c.896 0 1.492-.597 1.492-1.492s-.447-1.492-1.342-1.492z"/></g></svg><svg width="71" height="71" id="L1VzZXJzL2t1a2tvbWFoL3Byb2plY3RzL2NhbWJyaWRnZS9zcmMvaW1hZ2VzL3Nwcml0ZS1yZWFzb240LnN2Zw==" x="266" xmlns="http://www.w3.org/2000/svg"><g fill="#222568"><path d="M1.183 49.7H7.1v5.127c0 5.656 4.6 10.256 10.256 10.256h1.577V71H21.3v-5.917h2.367v-2.366h-6.311c-4.35 0-7.89-3.54-7.89-7.89v-6.31c0-.654-.528-1.184-1.183-1.184H3.032L9.358 33.63c.072-.155.109-.324.109-.496v-5.916c0-9.136 7.431-16.567 16.566-16.567V8.283C15.594 8.283 7.1 16.777 7.1 27.217v5.656L.11 48.021A1.18 1.18 0 0 0 1.184 49.7zm43.867 1.183L42.685 56.8a1.189 1.189 0 0 0-.065.65l2.367 13.017 2.327-.422-2.305-12.682 2.242-5.6-2.2-.88zM61.533 14.2v3.55h-3.55v2.367h3.55v3.55H63.9v-3.55h3.55V17.75H63.9V14.2zm-7.1-13.017h7.1V3.55h-7.1zm-14.2 2.367h7.1v2.367h-7.1zM42.6 0h2.367v2.367H42.6zm0 7.1h2.367v2.367H42.6zm-1.877 26.523l2.714-2.713 2.713 2.713 1.673-1.673-2.713-2.713 2.713-2.714-1.673-1.673-2.713 2.713-2.714-2.713-1.673 1.673 2.713 2.714-2.713 2.713z"/><path d="M27.217 18.933a2.369 2.369 0 0 1 2.366-2.366 2.369 2.369 0 0 1 2.367 2.366 2.369 2.369 0 0 1-2.367 2.367c-.654 0-1.183.53-1.183 1.183v2.367h2.367v-1.332a4.74 4.74 0 0 0 3.55-4.585 4.738 4.738 0 0 0-4.734-4.733 4.738 4.738 0 0 0-4.733 4.733h2.367zm1.183 8.284h2.367v2.367H28.4zM52.067 35.5v18.933c0 .654.529 1.184 1.183 1.184h16.567c.654 0 1.183-.53 1.183-1.184V35.5c0-.653-.529-1.183-1.183-1.183H53.25c-.654 0-1.183.53-1.183 1.183zm2.366 1.183h14.2V53.25h-14.2V36.683z"/><path d="M56.8 39.05h9.467v2.367H56.8zm0 4.733h9.467v2.367H56.8zm0 4.734h9.467v2.367H56.8zM27.216 37.422c-3.459-2.136-6.712-2.583-8.42-.877-1.707 1.707-1.261 4.96.876 8.42-2.103 3.435-2.533 6.657-.836 8.355.71.711 1.688 1.05 2.836 1.05 1.602 0 3.538-.675 5.545-1.908 1.982 1.205 3.893 1.866 5.477 1.866 1.149 0 2.126-.34 2.836-1.05 1.69-1.69 1.27-4.894-.81-8.314 2.115-3.444 2.552-6.678.851-8.38-1.695-1.696-4.919-1.265-8.355.838zm-6.746.796c.242-.242.648-.363 1.166-.363.593 0 1.333.157 2.145.468.423.164.859.374 1.298.605a25.102 25.102 0 0 0-2.057 1.84 25.036 25.036 0 0 0-1.838 2.053c-1.16-2.209-1.34-3.978-.714-4.603zm6.733 2.071a21.422 21.422 0 0 1 4.662 4.672 21.49 21.49 0 0 1-2.151 2.503c-.841.84-1.68 1.549-2.495 2.145a21.522 21.522 0 0 1-4.688-4.648 21.3 21.3 0 0 1 2.163-2.518 21.344 21.344 0 0 1 2.509-2.154zM20.51 51.647c-.618-.618-.446-2.361.682-4.543.54.67 1.133 1.337 1.789 1.991a24.92 24.92 0 0 0 2.093 1.86c-2.191 1.138-3.943 1.312-4.564.692zm13.348-.04c-.52.519-1.79.477-3.311-.107-.39-.15-.79-.348-1.192-.555a24.987 24.987 0 0 0 2.032-1.808 24.791 24.791 0 0 0 1.813-2.024c1.106 2.157 1.27 3.88.658 4.493zm.04-13.349c.619.62.446 2.37-.689 4.557a24.912 24.912 0 0 0-3.854-3.874c1.356-.702 2.546-1.038 3.398-1.038.517 0 .91.121 1.145.355zM46.15 15.383a3.554 3.554 0 0 0 3.55 3.55 3.554 3.554 0 0 0 3.55-3.55 3.554 3.554 0 0 0-3.55-3.55 3.554 3.554 0 0 0-3.55 3.55zM49.7 14.2a1.185 1.185 0 0 1 0 2.367 1.185 1.185 0 0 1 0-2.367z"/></g></svg><svg width="71" height="71" id="L1VzZXJzL2t1a2tvbWFoL3Byb2plY3RzL2NhbWJyaWRnZS9zcmMvaW1hZ2VzL3Nwcml0ZS1yZWFzb241LnN2Zw==" x="135" y="172" xmlns="http://www.w3.org/2000/svg"><g fill="#222568"><path d="M43.783 35.5H27.217c-.654 0-1.184.53-1.184 1.183v15.384h-7.1c-.653 0-1.183.53-1.183 1.183v16.567c0 .653.53 1.183 1.183 1.183h33.134c.653 0 1.183-.53 1.183-1.183V53.25c0-.653-.53-1.183-1.183-1.183h-7.1V36.683c0-.653-.53-1.183-1.184-1.183zM28.4 37.867h14.2v14.2H28.4v-14.2zm-8.283 16.566h14.2v14.2h-14.2v-14.2zm30.766 14.2h-14.2v-14.2h14.2v14.2z"/><path d="M40.08 47.877a1.18 1.18 0 0 0-.015-1.192l-3.55-5.917c-.427-.713-1.602-.713-2.03 0l-3.55 5.917a1.183 1.183 0 0 0 1.016 1.792h7.1c.426 0 .82-.23 1.03-.6zm-6.04-1.767l1.46-2.433 1.461 2.433h-2.92zM27.217 56.8a4.738 4.738 0 0 0-4.734 4.733 4.738 4.738 0 0 0 4.734 4.734 4.738 4.738 0 0 0 4.733-4.734 4.738 4.738 0 0 0-4.733-4.733zm0 7.1a2.369 2.369 0 0 1-2.367-2.367 2.369 2.369 0 0 1 2.367-2.366 2.369 2.369 0 0 1 2.366 2.366 2.369 2.369 0 0 1-2.366 2.367zm15.73-6.753l-3.55 3.55a1.182 1.182 0 0 0 0 1.673l3.55 3.55a1.18 1.18 0 0 0 1.673 0l3.55-3.55a1.182 1.182 0 0 0 0-1.673l-3.55-3.55a1.182 1.182 0 0 0-1.673 0zm2.713 4.387l-1.876 1.876-1.877-1.876 1.877-1.877 1.876 1.877zm22.59-44.642l1.947-6.815a3.263 3.263 0 0 0-1.332-3.624 3.251 3.251 0 0 0-2.88-.373 3.254 3.254 0 0 0-2.045 2.063l-1.346 4.036-2.83 1.415-.244-.812c1.731-1.298 2.859-3.358 2.859-5.682 0-3.916-3.184-7.1-7.1-7.1a7.107 7.107 0 0 0-7.1 7.1 7.085 7.085 0 0 0 2.859 5.68l-.244.812-2.83-1.415-1.346-4.037a3.254 3.254 0 0 0-2.045-2.062 3.25 3.25 0 0 0-2.88.372 3.266 3.266 0 0 0-1.332 3.626l1.947 6.815c.092.32.313.584.609.734l5.798 2.899-4.035 13.453a1.181 1.181 0 0 0 1.132 1.523h1.184v9.467a3.554 3.554 0 0 0 3.55 3.55 3.554 3.554 0 0 0 3.55-3.55V35.5h2.366v9.467a3.554 3.554 0 0 0 3.55 3.55 3.554 3.554 0 0 0 3.55-3.55V35.5h1.184a1.182 1.182 0 0 0 1.134-1.523l-4.036-13.453 5.798-2.9a1.18 1.18 0 0 0 .607-.732zM55.278 2.367A4.738 4.738 0 0 1 60.012 7.1c0 1.774-.993 3.305-2.44 4.116-.006.002-.013.002-.017.004a5.012 5.012 0 0 1-1.023.424c-.042.012-.083.028-.125.039-.125.032-.25.053-.374.075a4.653 4.653 0 0 1-.836.067 4.653 4.653 0 0 1-.67-.067 4.541 4.541 0 0 1-.375-.075c-.042-.01-.082-.027-.125-.039a4.946 4.946 0 0 1-1.022-.424l-.017-.004c-1.45-.811-2.442-2.342-2.442-4.116a4.738 4.738 0 0 1 4.733-4.733zM44.441 15.74l-1.804-6.313a.907.907 0 0 1 1.168-1.11c.271.092.477.3.567.572l1.5 4.502c.1.297.313.543.594.684l3.637 1.819-.7 2.33-4.962-2.484zm7.288 29.226c0 .652-.531 1.183-1.183 1.183a1.185 1.185 0 0 1-1.184-1.183V35.5h2.367v9.467zm9.467 0c0 .652-.532 1.183-1.184 1.183a1.185 1.185 0 0 1-1.183-1.183V35.5h2.367v9.467zm1.183-11.834H47.403l3.864-12.881s0-.002.002-.002l1.389-4.63v-.001l.52-1.736c.322.1.656.17.996.222l.105.017c.327.046.66.078 1 .078.34 0 .673-.032 1.001-.08.036-.004.07-.01.105-.016a7.12 7.12 0 0 0 .996-.222l.52 1.736 1.39 4.631v.001l3.864 12.883h-.776zm-1.226-14.91l-.7-2.33 3.638-1.818c.28-.141.494-.387.593-.684l1.5-4.502a.906.906 0 0 1 1.366-.47c.33.22.478.625.37 1.006l-1.804 6.315-4.963 2.483zM.127 10.077l1.948 6.815c.09.32.312.585.608.734l5.247 2.623-1.096 3.014a1.179 1.179 0 0 0-.064.283l-.001.004-1.183 11.833a1.185 1.185 0 0 0 1.176 1.3v7.1a3.554 3.554 0 0 0 3.55 3.55 3.554 3.554 0 0 0 3.55-3.55v-7.1h2.366v7.1a3.554 3.554 0 0 0 3.55 3.55 3.554 3.554 0 0 0 3.55-3.55v-7.1a1.182 1.182 0 0 0 1.178-1.301l-1.183-11.834-.002-.003a1.2 1.2 0 0 0-.064-.284l-1.095-3.014 5.247-2.624c.295-.148.517-.414.608-.733l1.948-6.815a3.263 3.263 0 0 0-1.333-3.625 3.251 3.251 0 0 0-2.88-.372 3.254 3.254 0 0 0-2.045 2.062l-1.345 4.037-2.652 1.325-.297-.817A7.083 7.083 0 0 0 22.145 7.1c0-3.916-3.184-7.1-7.1-7.1a7.107 7.107 0 0 0-7.1 7.1 7.085 7.085 0 0 0 2.734 5.587l-.297.816-2.652-1.325L6.384 8.14A3.254 3.254 0 0 0 4.34 6.08a3.25 3.25 0 0 0-2.88.373 3.268 3.268 0 0 0-1.333 3.625zm21.894 24.24h-5.793v-3.55h-2.366v3.55H8.069l.947-9.467h12.058l.947 9.467zm-10.526 9.466c0 .652-.531 1.184-1.183 1.184a1.185 1.185 0 0 1-1.184-1.184v-7.1h2.367v7.1zm9.467 0c0 .652-.531 1.184-1.184 1.184a1.185 1.185 0 0 1-1.183-1.184v-7.1h2.367v7.1zm2.895-29.707c.28-.141.494-.387.593-.684l1.5-4.502a.906.906 0 0 1 1.366-.47c.33.22.478.625.37 1.006l-1.804 6.315-4.536 2.268-.06-.166-.764-2.101 3.335-1.666zm-8.812-11.71A4.738 4.738 0 0 1 19.778 7.1c0 1.747-.962 3.259-2.373 4.079-.005.002-.01.002-.016.005a4.955 4.955 0 0 1-.996.43c-.07.022-.137.048-.21.066-.124.033-.25.054-.376.076a4.702 4.702 0 0 1-.848.069 4.702 4.702 0 0 1-.676-.069 4.243 4.243 0 0 1-.376-.076c-.071-.018-.139-.044-.208-.066a4.898 4.898 0 0 1-.998-.43c-.005-.003-.01-.003-.015-.005-1.412-.82-2.374-2.332-2.374-4.079a4.738 4.738 0 0 1 4.733-4.733zm-1.175 11.73l.083.013c.357.054.72.092 1.092.092.372 0 .735-.038 1.091-.092l.083-.013a7.042 7.042 0 0 0 1.086-.27l1.484 4.08.786 2.162v.001l.88 2.415H9.635l.88-2.416v-.001l.785-2.162 1.484-4.08c.35.12.713.208 1.086.27zM2.772 8.42a.906.906 0 0 1 1.365.47l1.5 4.5c.1.298.313.544.594.685l3.334 1.667-.764 2.102-.06.165-4.536-2.268L2.4 9.429a.912.912 0 0 1 .37-1.008z"/></g></svg><svg width="69" height="70" id="L1VzZXJzL2t1a2tvbWFoL3Byb2plY3RzL2NhbWJyaWRnZS9zcmMvaW1hZ2VzL3Nwcml0ZS1yZWFzb242LnN2Zw==" x="266" y="141" xmlns="http://www.w3.org/2000/svg"><path d="M59.952 46.667H6.286c-.411 0-.79.215-1 .566a12.481 12.481 0 0 0 0 12.867c.211.35.59.566 1 .566h15.166v1.166c0 .365.172.71.464.932a1.172 1.172 0 0 0 1.023.19l2.456-.702-1.575 6.297a1.166 1.166 0 0 0 1.779 1.254L28.303 68l1.657 1.657a1.166 1.166 0 0 0 1.956-.542l1.202-4.808 1.202 4.808a1.166 1.166 0 0 0 1.956.542L37.933 68l2.704 1.803a1.165 1.165 0 0 0 1.78-1.254l-1.576-6.297 2.456.703a1.172 1.172 0 0 0 1.023-.19c.292-.221.463-.566.463-.933v-1.166H59.95c.41 0 .79-.216 1-.566a12.481 12.481 0 0 0 0-12.867 1.16 1.16 0 0 0-.998-.566zM35.452 49v4.62l-4.502.047-.164-.047V49h4.666zm-2.333 9.333h-1.167V56h2.334v2.333h-1.167zm-26.148 0a10.141 10.141 0 0 1 0-9.333h21.481v3.953l-5.513-1.575a1.18 1.18 0 0 0-1.023.19c-.292.22-.464.566-.464.932v5.833H6.971zM23.786 59.5v-5.453l5.833 1.666v2.906l-2.922.836h-.004l-2.907.831V59.5zm6.367 7.051l-.876-.876a1.165 1.165 0 0 0-1.472-.146l-.99.66 1.17-4.675 2.965-.847h.675l-1.472 5.884zm9.268-.362l-.989-.66a1.165 1.165 0 0 0-1.472.146l-.876.876-1.47-5.884h.674l2.966.847 1.167 4.675zm3.031-5.903l-2.907-.83-.003-.002-2.923-.835v-2.906l5.833-1.666v6.239zm16.816-1.953H44.786V52.5c0-.365-.172-.71-.463-.932a1.18 1.18 0 0 0-1.024-.19l-5.513 1.575V49h21.482a10.141 10.141 0 0 1 0 9.333zm6.065-30.168V16.332c0-.448-.256-.856-.66-1.05L33.173.114a1.173 1.173 0 0 0-1.012 0L.661 15.28a1.166 1.166 0 0 0 0 2.103l11.006 5.299v15.816c0 .442.25.847.646 1.045 4.46 2.222 11.544 4.805 20.363 4.804.392 0 .789-.005 1.189-.016 6.595-.172 13.22-1.829 19.157-4.789.395-.197.646-.602.646-1.044V22.683L63 18.189v9.975c-2.008.521-3.5 2.332-3.5 4.5v8.167c0 .645.522 1.167 1.167 1.167h7c.645 0 1.166-.522 1.166-1.167v-8.166c0-2.168-1.493-3.979-3.5-4.5zm-14 9.605c-5.467 2.611-11.511 4.072-17.53 4.23-8.472.237-15.347-2.104-19.803-4.23V23.806l18.16 8.744a1.165 1.165 0 0 0 1.013 0l18.16-8.744V37.77zm.665-16.874c0 .002-.003.002-.004.002l-19.327 9.306-19.327-9.306c-.002-.002-.004-.002-.005-.002l-9.48-4.564L32.668 2.461l28.81 13.871-9.479 4.564zM66.5 39.666h-4.667v-7c0-1.265 1.069-2.334 2.334-2.334 1.264 0 2.333 1.07 2.333 2.334v7z" fill="#222568"/></svg><svg width="71" height="72" id="L1VzZXJzL2t1a2tvbWFoL3Byb2plY3RzL2NhbWJyaWRnZS9zcmMvaW1hZ2VzL3Nwcml0ZS1yZWFzb243LnN2Zw==" x="172" y="97" xmlns="http://www.w3.org/2000/svg"><g fill="#222568"><path d="M32.484 9.299l5.286 2.883v6.704c0 .5.317.946.789 1.113a22.476 22.476 0 0 0 7.473 1.28c2.534 0 5.04-.43 7.472-1.28a1.18 1.18 0 0 0 .791-1.115v-6.703l3.541-1.93v5.31c-1.37.49-2.36 1.788-2.36 3.325v3.54c0 .652.527 1.18 1.18 1.18h4.721a1.18 1.18 0 0 0 1.18-1.18v-3.54c0-1.537-.99-2.836-2.36-3.324v-7.3c0-.431-.236-.83-.615-1.036L46.598.144a1.177 1.177 0 0 0-1.13 0L32.486 7.226a1.18 1.18 0 0 0-.001 2.073zm19.45 4.171v4.56a20.079 20.079 0 0 1-11.803.001v-4.562l5.336 2.91c.351.193.78.193 1.13 0l5.337-2.909zm8.263 7.776h-2.36v-2.36a1.182 1.182 0 0 1 2.36 0v2.36zM46.033 2.525l10.519 5.738L46.032 14 35.515 8.263l10.519-5.738zM.95 69.616l5.901 1.18a1.183 1.183 0 0 0 1.337-.742l3.542-9.443a1.18 1.18 0 0 0 .074-.414v-2.978l3.866 1.546 3.34 6.68c.249.495.808.753 1.342.618l4.721-1.18a1.18 1.18 0 0 0 .793-1.626l-4.72-10.623a1.183 1.183 0 0 0-.642-.616l-4.614-1.845 2.05-3.417 1.292 1.292c.128.13.287.226.461.285l7.082 2.36a1.184 1.184 0 0 0 1.355-.464l2.01-3.016h39.5a1.18 1.18 0 0 0 .931-1.905L62.31 34.685a1.175 1.175 0 0 0-1.304-.395l-2.808.936L48.09 23.997a1.187 1.187 0 0 0-.9-.39 1.185 1.185 0 0 0-.885.424L36.53 35.764l-4.94-5.838c-.449-.53-1.352-.53-1.802 0l-8.909 10.529-2.922-2.922c1.28-1.083 2.11-2.68 2.11-4.484a5.908 5.908 0 0 0-5.901-5.901 5.908 5.908 0 0 0-5.902 5.901c0 1.667.7 3.167 1.815 4.241L3.687 49.008a1.172 1.172 0 0 0-.145.566v9.229L.075 68.045a1.178 1.178 0 0 0 .875 1.57zm46.298-43.027l9.712 10.79c.314.35.806.481 1.25.331l2.749-.916 6.267 8.058H44.22l-6.142-7.259 9.17-11.004zm-16.559 5.927l4.946 5.846v.001l5.493 6.49H29.751l-5.244-2.248-1.728-.741 7.91-9.348zm-16.524-3.008a3.545 3.545 0 0 1 3.54 3.541 3.539 3.539 0 0 1-2.086 3.22l-.004.001a3.565 3.565 0 0 1-.837.258c-.037.007-.078.006-.116.011a3.518 3.518 0 0 1-.686.031 3.594 3.594 0 0 1-.235-.024 3.501 3.501 0 0 1-.593-.123c-.066-.02-.133-.038-.198-.062a3.539 3.539 0 0 1-.71-.348 3.534 3.534 0 0 1-1.616-2.964 3.545 3.545 0 0 1 3.54-3.54zM5.828 59.431a1.18 1.18 0 0 0 .074-.415v-9.141l6.17-11.31c.254.097.516.166.781.228.073.016.144.034.219.048a5.9 5.9 0 0 0 .977.1c.039 0 .075.01.116.01.09 0 .174-.023.264-.027a5.752 5.752 0 0 0 1.152-.164c.073-.02.148-.024.22-.045l4.106 4.105c.073.126.163.242.278.334l.325.26c.083.067.175.121.273.163l6.958 2.982-1.073 1.61-5.963-1.987-2.164-2.164a1.18 1.18 0 0 0-1.846.227l-3.54 5.901a1.182 1.182 0 0 0 .573 1.703l5.455 2.183 3.957 8.9-2.439.611-3.118-6.236a1.18 1.18 0 0 0-.617-.567l-5.902-2.361a1.183 1.183 0 0 0-1.62 1.096v4.508L6.33 68.286l-3.557-.712 3.055-8.143z"/><path d="M25.276 71.655l17.46-17.461-.575 3.449 2.33.388 1.18-7.082a1.183 1.183 0 0 0-.33-1.029 1.174 1.174 0 0 0-1.028-.33l-7.082 1.181.387 2.329 3.45-.575-17.461 17.462 1.669 1.668zm-.278-51.24l-2.336-.35c-.121.808-.2 1.64-.236 2.473l2.359.103c.031-.75.105-1.5.213-2.226zm5.082-11.72l-1.723-1.613c-.42.448-.823.914-1.21 1.395l1.843 1.477c.347-.435.71-.854 1.09-1.259zm-2.076 3.204l-1.987-1.276a23.716 23.716 0 0 0-1.23 2.159l2.11 1.057a21.33 21.33 0 0 1 1.107-1.94zm-2.592 18.549a21.44 21.44 0 0 1-.712-2.12l-2.274.636c.223.798.49 1.59.792 2.352l2.194-.868zm-.027-14.273l-2.208-.83a23.464 23.464 0 0 0-.75 2.368l2.284.592a21.21 21.21 0 0 1 .674-2.13zm-2.959 8.755c.051.828.144 1.658.279 2.467l2.329-.388a21.62 21.62 0 0 1-.252-2.222l-2.356.144zm45.352-7.94l2.326-.405a23.563 23.563 0 0 0-.554-2.421l-2.271.648c.204.714.373 1.447.499 2.178zm.681 3.231a21.686 21.686 0 0 1 .034 2.238l2.359.088a24.767 24.767 0 0 0-.037-2.481l-2.356.155zM65.086 9.205l1.954-1.323a23.485 23.485 0 0 0-1.498-1.98l-1.804 1.52c.478.568.931 1.167 1.348 1.783zm1.958 4.552l2.19-.882a23.505 23.505 0 0 0-1.051-2.252l-2.085 1.11c.35.655.67 1.336.946 2.024zm2.153 15.386l-2.216-.815a20.73 20.73 0 0 1-.883 2.051l2.117 1.048a24.01 24.01 0 0 0 .982-2.284zM63.524 3.986a23.585 23.585 0 0 0-1.877-1.625l-1.45 1.861a21.6 21.6 0 0 1 1.69 1.466l1.637-1.702zm.214 30.754l1.86 1.45c.467-.598.911-1.23 1.322-1.879l-1.994-1.262c-.37.584-.77 1.152-1.188 1.69zm6.309-9.62l-2.337-.333a21.3 21.3 0 0 1-.431 2.193l2.288.578c.2-.796.362-1.617.48-2.438z"/></g></svg><svg width="71" height="71" id="L1VzZXJzL2t1a2tvbWFoL3Byb2plY3RzL2NhbWJyaWRnZS9zcmMvaW1hZ2VzL3Nwcml0ZS1yZWFzb244LnN2Zw==" x="64" y="172" xmlns="http://www.w3.org/2000/svg"><g fill="#222568"><path d="M49.083 7.245L36.067.145a1.18 1.18 0 0 0-1.133 0l-13.016 7.1a1.182 1.182 0 0 0-.001 2.078l5.3 2.89v6.72c0 .502.317.95.79 1.117a22.533 22.533 0 0 0 7.492 1.282c2.54 0 5.054-.43 7.491-1.282.475-.166.793-.615.793-1.118v-6.72l3.55-1.936v5.325a3.545 3.545 0 0 0-2.366 3.333v3.55c0 .653.529 1.183 1.183 1.183h4.733c.655 0 1.184-.53 1.184-1.183v-3.55c0-1.541-.993-2.843-2.367-3.333V8.284c0-.433-.237-.832-.617-1.04zm-7.666 6.26v4.57a20.099 20.099 0 0 1-11.834.002v-4.574l5.35 2.918a1.18 1.18 0 0 0 1.133 0l5.35-2.917zm-5.917.53l-10.546-5.75L35.5 2.53l10.546 5.753L35.5 14.036zM49.7 21.3h-2.367v-2.366a1.185 1.185 0 0 1 2.367 0V21.3zM.204 44.446c.221.325.587.52.98.52H3.55v24.85c0 .652.53 1.183 1.184 1.183h61.533c.654 0 1.183-.53 1.183-1.184v-24.85h2.367a1.185 1.185 0 0 0 1.1-1.622L66.182 31.51a1.185 1.185 0 0 0-1.1-.744h-20.86l-7.95-6.814a1.182 1.182 0 0 0-1.54 0l-7.952 6.813H5.917c-.484 0-.918.295-1.1.743L.085 43.342c-.145.365-.1.778.12 1.104zm22.28 9.986H5.917v-9.467h16.567v9.467zM5.917 56.799h16.567v11.833H5.917V56.799zm18.933-1.184V40.232h21.3v28.4H42.6v-8.283a5.923 5.923 0 0 0-5.916-5.917h-2.367a5.923 5.923 0 0 0-5.917 5.917v8.283h-3.55V55.615zm9.467 5.917h-3.55v-1.183a3.554 3.554 0 0 1 3.55-3.55v4.733zm2.367-4.733a3.554 3.554 0 0 1 3.55 3.55v1.183h-3.55v-4.733zm-5.917 7.1h3.55v4.733h-3.55v-4.733zm5.917 4.733v-4.733h3.55v4.733h-3.55zm28.4 0H48.517V56.799h16.567v11.833zm0-14.2H48.517v-9.467h16.567v9.467zm-18.102-21.3h17.3l3.787 9.467H48.517v-2.367h3.55a1.183 1.183 0 0 0 .77-2.082l-5.855-5.018zM35.5 26.407l13.368 11.458H22.132L35.5 26.407zM6.718 33.132h17.3l-5.854 5.018a1.183 1.183 0 0 0 .77 2.081h3.55V42.6H2.934l3.785-9.467z"/><path d="M8.283 47.333h2.367v4.733H8.283zm4.734 0h2.367v4.733h-2.367zm4.733 0h2.367v4.733H17.75zM8.283 59.167h2.367v7.1H8.283zm4.734 0h2.367v7.1h-2.367zm4.733 0h2.367v7.1H17.75zm33.133-11.834h2.367v4.733h-2.367zm4.734 0h2.367v4.733h-2.367zm4.733 0h2.367v4.733H60.35zm-9.467 11.834h2.367v7.1h-2.367zm4.734 0h2.367v7.1h-2.367zm4.733 0h2.367v7.1H60.35zm-31.95-7.1h4.733c.655 0 1.184-.53 1.184-1.184V46.15c0-.653-.53-1.183-1.184-1.183H28.4c-.654 0-1.183.53-1.183 1.183v4.733c0 .654.529 1.184 1.183 1.184zm1.183-4.734h2.367V49.7h-2.367v-2.367zm8.284 4.734H42.6c.654 0 1.183-.53 1.183-1.184V46.15c0-.653-.529-1.183-1.183-1.183h-4.733c-.655 0-1.184.53-1.184 1.183v4.733c0 .654.53 1.184 1.184 1.184zm1.183-4.734h2.367V49.7H39.05v-2.367zM12.813 15.945l-1.6-1.745a35.587 35.587 0 0 0-1.746 1.715l1.714 1.63a34.65 34.65 0 0 1 1.632-1.6zm-6.896 3.742l1.92 1.381c.445-.618.915-1.227 1.398-1.81L7.41 17.75a35.104 35.104 0 0 0-1.494 1.937zM3.55 23.425l2.095 1.104c.356-.675.737-1.343 1.133-1.982L4.768 21.3a34.849 34.849 0 0 0-1.218 2.125zM0 31.962l2.316.486c.156-.74.34-1.487.548-2.217l-2.277-.648A34.008 34.008 0 0 0 0 31.962zM14.981 10.65c-.666.46-1.327.951-1.964 1.459l1.476 1.85a32.303 32.303 0 0 1 1.833-1.362l-1.345-1.947zm4.914-2.367c-.724.366-1.447.761-2.145 1.177l1.208 2.035a33.237 33.237 0 0 1 2.002-1.098l-1.065-2.114zM2.367 28.307l2.226.804c.26-.717.545-1.43.85-2.12l-2.165-.958a37.28 37.28 0 0 0-.911 2.274zM52.906 9.445a36.429 36.429 0 0 0-2.154-1.162l-1.052 2.12c.677.337 1.355.701 2.01 1.086l1.196-2.044zm2.861 1.205l-1.334 1.955a32.88 32.88 0 0 1 1.843 1.351l1.465-1.859a36.55 36.55 0 0 0-1.974-1.447zM63.9 22.557c.402.641.788 1.306 1.148 1.976l2.085-1.118a35.743 35.743 0 0 0-1.228-2.115L63.9 22.557zm6.426 9.397c-.176-.803-.38-1.6-.604-2.37l-2.272.662c.21.718.399 1.464.564 2.215l2.312-.507zM60.35 18.087c.49.584.962 1.19 1.407 1.8l1.913-1.394a35.922 35.922 0 0 0-1.506-1.926l-1.814 1.52zm-2.367-3.315a34.511 34.511 0 0 1 1.642 1.59l1.702-1.644a35.96 35.96 0 0 0-1.756-1.701l-1.588 1.755zm7.1 11.048c.31.687.6 1.398.863 2.114l2.221-.82a35.992 35.992 0 0 0-.925-2.264l-2.159.97z"/></g></svg><svg width="67" height="67" id="L1VzZXJzL2t1a2tvbWFoL3Byb2plY3RzL2NhbWJyaWRnZS9zcmMvaW1hZ2VzL3Nwcml0ZS1yZWFzb245LnN2Zw==" x="337" xmlns="http://www.w3.org/2000/svg"><g fill="#222568"><path d="M5.583 46.9h26.8v3.346c0 .47.296.892.74 1.05A39.037 39.037 0 0 0 46.349 53.6c.932 0 1.86-.041 2.784-.107v3.662A3.345 3.345 0 0 0 46.9 60.3v5.583c0 .617.5 1.117 1.117 1.117h4.466c.617 0 1.117-.5 1.117-1.117V60.3a3.345 3.345 0 0 0-2.233-3.145v-3.879a39.108 39.108 0 0 0 8.194-1.98c.443-.16.739-.58.739-1.05V37.203l6.037-2.683a1.117 1.117 0 1 0-.117-2.085l-8.153-2.574V5.583A5.59 5.59 0 0 0 52.483 0H10.05a5.59 5.59 0 0 0-5.583 5.583v32.384h-3.35c-.617 0-1.117.5-1.117 1.116v2.234A5.59 5.59 0 0 0 5.583 46.9zm45.784 17.867h-2.234V60.3c0-.615.502-1.117 1.117-1.117s1.117.502 1.117 1.117v4.467zm0-37.022l-6.364-2.01a1.134 1.134 0 0 0-.742.023L24.357 33.5h-13.19V6.7h40.2v21.045zM45.8 51.362a36.802 36.802 0 0 1-11.183-1.91V39.51l1.687.622 9.093 3.35c.125.045.256.068.386.068.006 0 .011-.003.018-.003.15-.003.297-.032.437-.093l2.895-1.288v9.095c-1.104.082-2.215.12-3.333.101zm12.267-1.91a36.812 36.812 0 0 1-6.7 1.566v-9.844l6.7-2.978v11.256zm.664-13.994c-.001 0-.001 0 0 0l-8.115 3.605-5.253-4.202-1.394 1.744 4.35 3.48-2.575 1.145-11.858-4.37-.009-.003-6.156-2.268 16.985-6.605 18.03 5.694-4.005 1.78zM6.7 5.583a3.354 3.354 0 0 1 3.35-3.35h42.433a3.354 3.354 0 0 1 3.35 3.35v23.572L53.6 28.45V5.583c0-.616-.5-1.116-1.117-1.116H10.05c-.616 0-1.117.5-1.117 1.116v29.034c0 .616.5 1.116 1.117 1.116h14.317l6.062 2.234H6.7V5.583zM2.233 40.2h30.15v4.467h-26.8a3.354 3.354 0 0 1-3.35-3.35V40.2z"/><path d="M31.235 14.517a7.763 7.763 0 0 0-6.668 3.752l1.906 1.163a5.546 5.546 0 0 1 4.762-2.682 5.546 5.546 0 0 1 4.763 2.682l1.906-1.163a7.763 7.763 0 0 0-6.669-3.752z"/><path d="M31.034 12.283c3.182 0 6.11 1.469 8.031 4.03l1.787-1.342c-2.35-3.128-5.927-4.921-9.818-4.921-3.89 0-7.468 1.793-9.817 4.921l1.786 1.341c1.922-2.56 4.85-4.029 8.031-4.029zm.233 6.7a3.354 3.354 0 0 0-3.35 3.35h2.233a1.118 1.118 0 0 1 2.233 0h2.234a3.354 3.354 0 0 0-3.35-3.35zm-1.117 5.584h2.233V26.8H30.15zM14.517 49.133h2.233v2.233h-2.233zm0 4.467h2.233v2.233h-2.233zm0 4.467h2.233V60.3h-2.233zm0 4.466h2.233v2.233h-2.233zm5.583 0h2.233v2.233H20.1zm4.467 0H26.8v2.233h-2.233zm4.466 0h2.233v2.233h-2.233zm4.467 0h2.233v2.233H33.5zm4.467 0H40.2v2.233h-2.233zm4.466 0h2.233v2.233h-2.233zM64.767 40.2H67v2.233h-2.233zm0 4.467H67V46.9h-2.233zm0 4.466H67v2.233h-2.233zm0 4.467H67v2.233h-2.233zm0 4.467H67V60.3h-2.233zm0 4.466H67v2.233h-2.233zm-4.467 0h2.233v2.233H60.3zm-4.467 0h2.233v2.233h-2.233z"/></g></svg><svg width="70" height="70" id="L1VzZXJzL2t1a2tvbWFoL3Byb2plY3RzL2NhbWJyaWRnZS9zcmMvaW1hZ2VzL3Nwcml0ZS1yZWFzb24xLnN2Zw==" x="266" y="71" xmlns="http://www.w3.org/2000/svg"><g fill="#222568"><path d="M19.118 22.998a10.603 10.603 0 0 0-2.47 1.872c-2.204 2.358-2.216 4.883-2.232 7.558a59.71 59.71 0 0 1-.023 1.515L8.68 35.249a8.157 8.157 0 0 0-6.745 7.442L.004 68.747A1.164 1.164 0 0 0 1.167 70h67.666a1.165 1.165 0 0 0 1.163-1.253l-1.93-26.056c-.276-3.738-3.049-6.799-6.684-7.43l-11.499-2.625-.007-.002-3.342-.762a18.349 18.349 0 0 0 1.607-2.164c.05-.077.102-.15.15-.229.219-.35.423-.712.622-1.08.057-.106.114-.211.169-.319a20.179 20.179 0 0 0 1.13-2.663c.032-.092.06-.187.09-.279.144-.442.278-.889.392-1.346l.016-.075c.126-.508.238-1.023.326-1.55H52.5c1.93 0 3.5-1.57 3.5-3.5 0-1.929-1.57-3.5-3.5-3.5h-1.464c-.036-.215-.08-.428-.122-.642v-.005c-.061-.303-.13-.603-.204-.902l-.016-.074c-.054-.213-.104-.426-.163-.636 0-.001 0-.002-.002-.002-.068-.24-.15-.473-.227-.709-.03-.093-.058-.186-.09-.278-.076-.22-.145-.445-.227-.662-.08-.214-.175-.421-.263-.631l-.065-.156c-.097-.227-.187-.457-.29-.677-.017-.035-.037-.068-.053-.103a19.12 19.12 0 0 0-.76-1.428c-.02-.034-.042-.066-.063-.1-.27-.454-.556-.891-.86-1.314-.035-.049-.072-.094-.107-.143-.288-.394-.59-.775-.906-1.139l-.192-.215a17.024 17.024 0 0 0-1.214-1.23c-.257-.234-.52-.458-.79-.675a14.62 14.62 0 0 0-.521-.41 14.464 14.464 0 0 0-.592-.41l-.012-.008c-.07-.049-.14-.1-.212-.147a17.933 17.933 0 0 0-.57-.358c-.073-.043-.149-.082-.223-.124l-.15-.083c-.13-.072-.259-.145-.39-.214a14.844 14.844 0 0 0-1.42-.648c-.277-.11-.554-.213-.838-.307A13.523 13.523 0 0 0 38.82.54c-.254-.07-.505-.141-.762-.197-.293-.064-.59-.11-.887-.155-.204-.032-.406-.073-.612-.095A13.82 13.82 0 0 0 35 0c-.525 0-1.044.034-1.559.09-.206.022-.408.063-.612.094-.298.046-.595.091-.887.156-.258.055-.51.127-.762.197-.226.063-.451.124-.674.198a14.953 14.953 0 0 0-1.365.527c-.301.133-.598.274-.891.427-.132.07-.26.143-.39.215a15.506 15.506 0 0 0-1.031.622c-.02.012-.04.02-.06.033-.107.07-.206.155-.311.23-.269.187-.535.376-.791.581-.15.12-.29.249-.437.374-.25.214-.503.427-.742.658-.104.1-.198.209-.3.311a18.172 18.172 0 0 0-2.328 2.913c-.05.077-.102.151-.15.23 0 .002-.003.004-.004.006-.033.051-.068.1-.1.152-.183.3-.35.611-.519.924-.05.095-.103.189-.154.284-.033.067-.07.132-.103.2-.157.313-.301.632-.442.955l-.123.285-.098.237a18.64 18.64 0 0 0-.378 1.02c-.028.08-.053.162-.08.243-.013.045-.032.086-.046.13-.005.015-.005.03-.008.047-.126.396-.245.796-.347 1.206l-.016.075a20.248 20.248 0 0 0-.326 1.549H17.5c-1.93 0-3.5 1.57-3.5 3.5s1.57 3.5 3.5 3.5h1.464l.003.012c.031.186.066.37.102.554.017.086.03.176.05.264zm-2.37 9.442c.015-2.488.025-4.286 1.605-5.978a8.558 8.558 0 0 1 1.408-1.13c1.351 4.019 3.876 7.367 7.103 9.498-.034.14-.059.28-.097.42-.077.277-.168.555-.265.833-.03.087-.056.175-.087.262a16.5 16.5 0 0 1-1.006 2.202c-.007.014-.008.029-.015.043-1 1.819-2.353 3.502-3.973 4.846-4.047 3.359-9.207 4.21-10.772 3.882.186-.22.441-.494.664-.732 1.003-1.07 2.52-2.689 3.74-5.251.188-.395.348-.778.494-1.156.048-.122.09-.242.133-.362.098-.272.188-.536.267-.797.034-.112.071-.224.102-.333a16 16 0 0 0 .256-1.023l.039-.199c.06-.297.11-.58.151-.854a20.866 20.866 0 0 0 .139-1.135c.01-.096.015-.189.023-.285.005-.076.014-.157.018-.228l-.002-.016a38.53 38.53 0 0 0 .076-2.507zm30.599 2.01L35.044 47.27l-7.207-8.323c.061-.126.133-.25.191-.376.389-.837.71-1.695.954-2.558.061.028.125.046.186.073l.047.021.158.071c.1.042.2.077.301.117.223.089.445.18.671.257.123.042.245.074.369.113.115.036.234.08.347.11l.009.003.011.004.127.031c.021.006.045.01.066.015l.079.019c.161.042.32.09.484.127.226.051.457.083.686.123.091.016.176.035.27.05.007 0 .011.002.016.003l.186.027c.133.019.263.048.397.063s.272.017.407.028l.112.012h.008c.375.033.731.052 1.073.052h.01l.027-.001c.05 0 .1-.004.148-.004h.021c.335-.004.677-.024 1.033-.057.11-.009.22-.015.329-.027.132-.014.26-.037.39-.056l.165-.024c.071-.01.141-.026.212-.037.239-.04.478-.075.712-.126l.004-.002.024-.005c.19-.042.378-.091.566-.14.035-.01.07-.017.105-.026.071-.019.142-.043.212-.063.165-.047.33-.092.491-.146l.009-.002c.023-.007.045-.017.069-.025.21-.069.416-.14.623-.219.032-.012.066-.022.097-.035.078-.03.163-.065.263-.107.121-.05.24-.108.36-.16.276-.121.548-.248.816-.385l.112-.059c.119-.063.236-.131.354-.197.32-.178.635-.363.943-.563.068-.044.133-.093.201-.139a15.833 15.833 0 0 0 1.064-.775c.06-.047.124-.094.183-.143l2.812.64zm-11.18 26.217a1.167 1.167 0 1 1-2.335-.001 1.167 1.167 0 0 1 2.335 0zm12.69-39.801c-.52 4.49-2.601 8.359-5.546 10.91-.108.095-.222.183-.334.274-.198.16-.398.318-.602.467-.138.1-.277.196-.417.29h-.001a13.536 13.536 0 0 1-.853.527c-.075.042-.147.087-.222.13-.128.07-.26.133-.39.198-.226.112-.45.225-.682.324l-.036.015c-.244.104-.491.2-.74.288l-.123.044a11.52 11.52 0 0 1-.592.182c-.147.042-.295.085-.444.121-.103.026-.203.054-.307.076-.202.044-.407.076-.613.11-.133.022-.266.047-.4.065-.08.011-.157.024-.238.034l-.063.005c-.381.04-.765.066-1.155.068-.08 0-.16-.002-.238-.003a12.14 12.14 0 0 1-1.092-.074c-.169-.019-.34-.034-.508-.058l-.045-.007c-.047-.007-.093-.018-.14-.025a12.063 12.063 0 0 1-1.195-.252l-.018-.004-.023-.006c-.09-.025-.177-.054-.264-.08-.095-.027-.187-.067-.28-.097a12.213 12.213 0 0 1-.802-.284c-.123-.05-.239-.091-.37-.148a13.68 13.68 0 0 1-.933-.47c-.085-.046-.177-.083-.261-.131a3.086 3.086 0 0 0-.114-.058c-3.446-1.99-6.095-5.575-7.22-9.934v-.006a18.682 18.682 0 0 1-.41-2.165A18.881 18.881 0 0 1 21 18.668c0-.747.058-1.477.142-2.197v-.002c.112-.971.301-1.91.552-2.817a17.711 17.711 0 0 0 5.734-2.148 17.682 17.682 0 0 0 4.258-3.531 35.506 35.506 0 0 0 7.382 5.863 35.334 35.334 0 0 0 8.445 3.638 1.192 1.192 0 0 0 .523.026h.911c.026.388.053.773.053 1.168 0 .746-.058 1.477-.142 2.196v.003zm-26.171-9.923c.048-.104.101-.204.151-.308a17.4 17.4 0 0 1 .452-.869 15.83 15.83 0 0 1 .748-1.213c.031-.047.062-.095.094-.141a15.366 15.366 0 0 1 2.616-2.91l.04-.035a14.1 14.1 0 0 1 .946-.735l.127-.091c.084-.058.172-.107.257-.163 2.243-1.28 4.796-2.017 7.312-2.119 1.203.043 2.367.263 3.476.635.286.098.566.21.844.327.111.047.222.091.33.142a12.939 12.939 0 0 1 1.125.584c.318.186.63.383.932.594a14.176 14.176 0 0 1 1.113.861c1.974 1.69 3.563 3.974 4.563 6.637l.019.05c.145.39.273.79.392 1.196.022.075.047.147.068.223.098.352.18.713.259 1.076.027.122.058.242.081.366.007.037.01.077.019.115h-.719a33.09 33.09 0 0 1-7.67-3.334A33.147 33.147 0 0 1 32.5 5.42a1.153 1.153 0 0 0-.919-.388 1.164 1.164 0 0 0-.883.462 15.46 15.46 0 0 1-4.462 4.002 15.195 15.195 0 0 1-3.596 1.553c.019-.034.032-.07.047-.105zm43.054 31.92l1.837 24.804H2.423L4.26 42.863c.198-2.67 2.179-4.856 4.879-5.328l5.035-1.149c-.051.328-.116.647-.187.961-.02.094-.048.188-.071.282-.056.226-.116.45-.182.672-.056.181-.123.37-.188.556-.051.146-.098.292-.154.436-.132.34-.277.685-.445 1.04-1.063 2.234-2.377 3.634-3.336 4.657-1.03 1.1-2.003 2.139-1.296 3.41.343.619.997 1.022 1.947 1.2.337.064.716.093 1.121.101.045.001.085.005.13.005l.04.001c.396 0 .82-.027 1.265-.077.173-.02.358-.058.536-.085.304-.046.607-.092.926-.16.222-.047.448-.11.674-.167.295-.075.59-.152.892-.244.238-.072.474-.154.716-.236a21.09 21.09 0 0 0 2.593-1.095c.224-.112.446-.22.668-.342a20.45 20.45 0 0 0 1.04-.618c.183-.113.367-.218.547-.338a18.54 18.54 0 0 0 1.503-1.114 19.189 19.189 0 0 0 3.699-4.138l7.221 8.341v7.947a3.495 3.495 0 0 0-2.333 3.286c0 1.93 1.57 3.5 3.5 3.5s3.5-1.57 3.5-3.5a3.495 3.495 0 0 0-2.333-3.286V49.47L50 35.055l10.921 2.492a5.83 5.83 0 0 1 4.82 5.316zM53.667 18.667c0 .644-.523 1.166-1.167 1.166h-1.218c.021-.387.051-.772.051-1.166 0-.395-.03-.78-.051-1.167H52.5c.644 0 1.167.523 1.167 1.167zM17.5 19.833a1.167 1.167 0 0 1 0-2.333h1.218c-.021.387-.051.772-.051 1.167 0 .394.03.779.051 1.166H17.5z"/><path d="M32.2 18.9a7.058 7.058 0 0 0-4.2-1.4 7.052 7.052 0 0 0-4.201 1.4l1.401 1.867a4.696 4.696 0 0 1 2.8-.934c.581 0 1.717.122 2.8.934l1.4-1.867zm5.599 0l1.401 1.867a4.696 4.696 0 0 1 2.8-.934c.581 0 1.717.122 2.8.934l1.399-1.867A7.053 7.053 0 0 0 42 17.5a7.052 7.052 0 0 0-4.201 1.4zM35 28a4.689 4.689 0 0 1-2.799-.933L30.8 28.933a7.045 7.045 0 0 0 4.2 1.4c.871 0 2.576-.182 4.2-1.4l-1.4-1.866A4.705 4.705 0 0 1 35 28zm8.836 24.535A3.505 3.505 0 0 0 40.833 56a3.505 3.505 0 0 0 3.003 3.465c1.401 3.494 4.851 5.868 8.664 5.868 3.813 0 7.263-2.374 8.664-5.868A3.505 3.505 0 0 0 64.167 56a3.505 3.505 0 0 0-3.003-3.465c-1.401-3.494-4.851-5.868-8.664-5.868-3.813 0-7.263 2.374-8.664 5.868zm15.37 1.464c.147.495.602.834 1.118.834h.343a1.167 1.167 0 0 1 0 2.334h-.343c-.516 0-.971.34-1.118.834C58.33 60.944 55.572 63 52.5 63c-3.072 0-5.83-2.056-6.706-5a1.167 1.167 0 0 0-1.118-.833h-.343a1.167 1.167 0 0 1 0-2.334h.343c.516 0 .971-.34 1.118-.834.624-2.096 2.21-3.725 4.175-4.498-.145.8-.046 1.619.321 2.354a3.748 3.748 0 0 0 2.184 1.889 3.737 3.737 0 0 0 2.882-.2l-1.044-2.088a1.42 1.42 0 0 1-1.1.073 1.426 1.426 0 0 1-.909-1.818c.097-.286.291-.51.527-.684 2.936.142 5.531 2.135 6.376 4.972z"/><path d="M47.833 54.833h2.333v2.333h-2.333zm7 0h2.333v2.333h-2.333zm-3.5 3.5h2.333v2.333h-2.333z"/></g></svg><svg width="62" height="61" id="L1VzZXJzL2t1a2tvbWFoL3Byb2plY3RzL2NhbWJyaWRnZS9zcmMvaW1hZ2VzL3Nwcml0ZS1yZWFzb24yLnN2Zw==" x="337" y="67" xmlns="http://www.w3.org/2000/svg"><path d="M59.455 60.825c-1.501 0-3.524-.457-4.503-1.436-1.11-1.109-1.632-2.806-1.37-4.372.13-.588.325-1.175.521-1.697.261-.653.457-1.305.326-1.566-.065-.196-.391-.392-.652-.653-.13-.13-.261-.261-.392-.326-1.044-.98-1.5-2.154-1.174-3.198.13-.522.522-1.24 1.5-1.762-1.37-.914-2.088-2.546-1.696-3.981.26-.849.783-1.436 1.24-1.958.196-.196.457-.522.522-.653-.065-.065-.326-.26-1.11-.587-2.35-.914-2.871-2.22-2.871-3.198 0-1.893 1.697-2.741 2.74-3.263.98-.457 1.828-1.175 2.48-2.023 1.306-1.697 1.437-3.264 1.502-5.026.13-1.892.26-3.98 2.219-5.678.718-.652 2.023-.391 2.35.653.195.587-.066 1.175-.458 1.566-.978.914-1.109 1.893-1.174 3.72-.13 2.024-.327 4.504-2.61 7.114a8.966 8.966 0 0 1-2.938 2.219l-.065.065c-.326.13-.914.457-1.11.653.131.13.392.26.914.522.783.261 2.741 1.044 2.937 3.002.13 1.305-.652 2.22-1.24 2.872-.26.26-.522.587-.587.783-.065.196.196.587.587.783.653.326 1.501.326 2.415.326a1.4 1.4 0 0 1 1.24.718c.326.522.326.98.065 1.501-.457.914-1.892 1.828-3.394 2.35-.26.065-.456.065-.587.13l.196.196c.13.065.196.196.326.261.457.392 1.044.849 1.37 1.632.653 1.435.197 2.74-.195 3.85-.13.457-.326.849-.392 1.175-.13.653.13 1.37.588 1.827.326.327 2.023.718 2.871.588.783-.13 1.567.391 1.697 1.174.13.784-.391 1.567-1.175 1.697h-.913zM3.98 49.208a5.274 5.274 0 0 1-2.415-.587c-.522-.261-.848-.848-.783-1.501.196-1.11 1.305-1.566 2.154-1.11.587.327 1.305.327 1.827.066.392-.196.588-.522.653-.98.065-.521-.196-1.24-.522-1.957-.392-.979-.849-2.023-.783-3.263.065-1.11.587-2.023 1.044-2.807.391-.652.718-1.24.652-1.631-.065-.522-.652-.98-1.566-1.566-.653-.392-1.305-.849-1.827-1.436a1.445 1.445 0 0 1 1.37-2.415c1.11.261 2.937.196 3.329-.718.13-.26 0-.652-.392-1.37-.326-.653-.653-1.306-.718-2.22-.196-2.284 1.37-3.197 2.35-3.72.848-.521.979-.652.979-1.044.065-1.044-1.306-2.218-2.546-3.328-.913-.783-1.892-1.632-2.48-2.61-1.044-1.763-1.044-3.916-1.044-5.94 0-2.61 0-4.829-2.023-6.46C.718 2.219.457 1.5.718.914 1.109 0 2.218-.261 3.002.326c3.133 2.546 3.133 6.005 3.133 8.746 0 1.696 0 3.328.718 4.372.391.588 1.174 1.24 1.892 1.958 1.632 1.436 3.655 3.198 3.524 5.678-.065 2.023-1.566 2.872-2.414 3.394-.914.522-.914.652-.914.979 0 .326.196.718.457 1.174.457.914 1.044 2.22.457 3.72-.457 1.11-1.306 1.893-2.415 2.285a4 4 0 0 1 1.305 2.48c.196 1.435-.522 2.545-1.044 3.459-.326.587-.653 1.109-.653 1.5-.065.523.261 1.24.523 1.958.391.98.848 2.089.717 3.394-.13 1.436-.979 2.61-2.219 3.263-.522.392-1.305.522-2.088.522zm13.444-11.42c1.11-.914 1.828-2.22 2.023-3.72.327-3.003-1.892-5.679-4.894-6.005a1.508 1.508 0 0 0-1.632 1.501c0 .718.587 1.37 1.305 1.436 1.37.13 2.415 1.436 2.285 2.806-.066.653-.392 1.306-.914 1.697-.522.457-1.175.653-1.893.588-.979-.131-1.827.783-1.566 1.892.13.588.653.98 1.24 1.044h.587c1.24 0 2.48-.456 3.46-1.24zm6.853-3.199c.522-5.22-3.263-9.92-8.55-10.507-.913-.065-1.762.718-1.566 1.697.13.653.718 1.175 1.37 1.24 3.59.392 6.2 3.655 5.874 7.244-.391 3.655-3.654 6.265-7.244 5.94-.914-.131-1.697.652-1.566 1.63.065.719.718 1.175 1.37 1.24.327 0 .588.066.914.066 4.764 0 8.941-3.655 9.398-8.55zm4.83-1.827a13.633 13.633 0 0 0-1.697-5.678c-2.22-3.85-5.94-6.265-10.247-6.787-.718-.065-1.37.26-1.631.979-.327.913.326 1.827 1.24 1.958 6.722.718 11.29 7.505 8.745 14.358-.326.913-.849 1.762-1.436 2.545-2.35 3.002-5.874 4.503-9.528 4.111-.914-.065-1.697.653-1.567 1.632.066.718.718 1.175 1.436 1.24.457.065.849.065 1.305.065 7.506 0 13.901-6.396 13.38-14.423zM47.054 51.95h.587c.587-.065 1.11-.456 1.24-1.044a1.521 1.521 0 0 0-1.566-1.892c-.653.065-1.37-.13-1.893-.588a2.621 2.621 0 0 1-.848-2.806c.26-.979 1.174-1.632 2.219-1.762.783-.065 1.37-.783 1.24-1.566-.066-.784-.783-1.371-1.632-1.306-3.002.327-5.22 3.002-4.895 6.004.13 1.436.849 2.742 2.024 3.72 1.109.849 2.284 1.24 3.524 1.24zm-.849 4.177c.327 0 .588 0 .914-.065.718-.065 1.305-.587 1.37-1.24.131-.979-.717-1.762-1.566-1.632-3.655.327-6.918-2.284-7.31-5.938-.39-3.59 2.22-6.853 5.874-7.245a1.596 1.596 0 0 0 1.37-1.24 1.481 1.481 0 0 0-1.565-1.697c-5.221.523-9.072 5.222-8.55 10.508.522 4.895 4.634 8.55 9.463 8.55zm-.848 3.981c.457 0 .848 0 1.305-.065.718-.065 1.305-.587 1.436-1.24.13-.979-.653-1.762-1.566-1.631-3.655.391-7.18-1.11-9.529-4.177-.587-.718-1.044-1.567-1.37-2.415-2.61-6.787 1.958-13.705 8.68-14.423.718-.065 1.305-.718 1.37-1.436 0-.914-.783-1.566-1.631-1.501-4.438.457-8.354 3.067-10.573 7.179-.783 1.436-1.24 3.002-1.436 4.568-.979 8.42 5.548 15.141 13.314 15.141z" fill="#222568"/></svg><svg width="69" height="58" id="L1VzZXJzL2t1a2tvbWFoL3Byb2plY3RzL2NhbWJyaWRnZS9zcmMvaW1hZ2VzL3Nwcml0ZS1yZWFzb24zLnN2Zw==" y="255" xmlns="http://www.w3.org/2000/svg"><g fill="#222568"><path d="M56.193 35.965c0-3.09-2.526-5.606-5.632-5.606s-5.632 2.516-5.632 5.606c0 3.091 2.526 5.606 5.632 5.606s5.632-2.515 5.632-5.606zM50.56 39.33c-1.864 0-3.38-1.51-3.38-3.364 0-1.853 1.516-3.363 3.38-3.363a3.375 3.375 0 0 1 3.379 3.363 3.375 3.375 0 0 1-3.38 3.364z"/><path d="M67.874.497H1.126C.504.497 0 .999 0 1.617v41.528c0 .62.504 1.121 1.126 1.121H34.5v-2.242H11.728c-.685-4.883-4.569-8.75-9.476-9.433v-20.42c4.906-.682 8.79-4.549 9.476-9.432h45.544c.685 4.883 4.568 8.751 9.475 9.433v30.973H69V1.618c0-.619-.504-1.121-1.126-1.121zM9.45 42.023H2.252v-7.167c3.664.644 6.554 3.52 7.2 7.167zM2.252 9.906V2.738h7.2c-.646 3.647-3.537 6.524-7.2 7.168zm64.496 0c-3.663-.644-6.554-3.521-7.2-7.168h7.2v7.168z"/><path d="M15.31 10.961h34.208v2.242H15.31zm0 9.551H34.5v2.242H15.31zm0 9.553H34.5v2.242H15.31zm45.976 11.489c.737-.35 1.287-.916 1.52-1.629.28-.857.088-1.821-.528-2.64l-.99-1.32.99-1.32c.616-.818.809-1.782.527-2.64-.28-.858-1.004-1.526-1.985-1.828l-1.582-.488.023-1.647c.012-.86-.277-1.63-.813-2.17-.734-.743-1.884-.973-3.007-.59l-1.566.53-.955-1.348c-.593-.836-1.453-1.316-2.36-1.316-.908 0-1.767.48-2.36 1.316l-.956 1.348-1.565-.53c-1.126-.383-2.272-.152-3.007.59-.535.54-.824 1.31-.813 2.17l.023 1.647-1.58.488c-.982.302-1.706.97-1.987 1.828-.28.858-.088 1.822.527 2.64l.992 1.32-.992 1.32c-.615.819-.808 1.783-.527 2.64.233.713.782 1.28 1.52 1.629l-6.52 8.679c-.607.83-.41 1.478-.238 1.788.172.313.612.822 1.644.759l3.735-.23.934 3.605c.256.996.882 1.257 1.233 1.323.074.014.163.024.263.024.371 0 .892-.145 1.363-.789l6.495-8.645c.525.458 1.158.714 1.816.714.659 0 1.291-.256 1.816-.714l6.486 8.632c.479.656 1.002.803 1.373.803.1 0 .19-.011.263-.024.35-.067.976-.328 1.232-1.321l.934-3.608 3.734.23c1.036.066 1.473-.447 1.645-.758.173-.31.37-.958-.247-1.802l-6.51-8.666zM41.24 54.312l-.833-3.22a1.121 1.121 0 0 0-1.16-.839l-3.285.203 5.918-7.877-.018 1.311c-.012.86.277 1.63.813 2.171.734.74 1.881.97 3.006.59l1.566-.53.072.102-6.08 8.089zm11.28-10.17l-1.44 2.03c-.33.466-.708.466-1.039 0l-1.44-2.03a1.127 1.127 0 0 0-1.282-.415l-2.365.801a1.138 1.138 0 0 1-.36.066c-.209 0-.29-.082-.317-.109-.107-.108-.167-.315-.163-.566l.035-2.485a1.122 1.122 0 0 0-.793-1.087l-2.386-.735c-.273-.084-.46-.224-.51-.38-.051-.156.018-.377.189-.604l1.495-1.991a1.118 1.118 0 0 0 0-1.343l-1.495-1.991c-.171-.228-.24-.45-.19-.605.052-.156.238-.295.512-.379l2.385-.735c.477-.147.8-.59.792-1.086l-.034-2.486c-.003-.251.056-.457.163-.567.026-.026.108-.108.316-.108.109 0 .23.021.362.067l2.364.8c.473.163.996-.008 1.283-.416l1.44-2.03c.33-.465.708-.466 1.039 0l1.44 2.032c.287.406.81.574 1.282.414l2.365-.8c.13-.046.252-.067.36-.067.208 0 .29.082.316.11.108.108.168.314.164.565l-.035 2.486c-.007.496.317.938.795 1.086l2.384.735c.274.084.46.223.51.38.052.155-.017.376-.19.604l-1.495 1.99a1.118 1.118 0 0 0 0 1.344l1.495 1.991c.172.227.241.448.19.604-.05.156-.237.296-.51.38l-2.386.735a1.12 1.12 0 0 0-.793 1.087l.034 2.485c.004.251-.056.459-.163.566-.027.026-.108.109-.317.109-.109 0-.23-.022-.362-.066l-2.363-.8a1.125 1.125 0 0 0-1.282.415zm9.356 6.112a1.125 1.125 0 0 0-1.16.84l-.835 3.218-6.078-8.09.072-.101 1.566.53c1.126.38 2.273.151 3.007-.591.535-.54.825-1.311.813-2.172l-.018-1.308 5.915 7.878-3.282-.204z"/></g></svg><svg data-name="Слой 1" width="172" height="172" id="L1VzZXJzL2t1a2tvbWFoL3Byb2plY3RzL2NhbWJyaWRnZS9zcmMvaW1hZ2VzL3Nwcml0ZS1zdGF0cy1lbXB0eS5zdmc=" xmlns="http://www.w3.org/2000/svg"><circle cx="86" cy="86" r="63" fill="none" stroke="#f4cc8e" stroke-width="44" stroke-dasharray="2"/></svg></svg>